{"glyphs":{"0":{"ha":479,"x_min":4,"x_max":439,"o":"m 376 82 q 310 24 347 44 q 236 0 274 4 q 228 0 232 0 q 221 0 225 0 q 138 21 178 0 q 67 82 99 42 q 20 173 36 122 q 4 275 4 224 q 20 377 4 328 q 67 465 36 426 q 136 526 96 504 q 222 549 176 549 q 307 526 267 549 q 376 465 347 504 q 424 376 408 426 q 439 274 439 326 q 424 172 439 222 q 376 82 408 122 l 376 82 m 346 107 q 387 185 374 142 q 400 274 400 228 q 387 363 400 319 q 346 442 374 407 q 290 491 322 474 q 222 508 258 508 q 183 491 201 508 q 149 444 164 474 q 123 369 132 413 q 114 274 114 325 q 123 180 114 224 q 149 104 132 136 q 183 57 164 74 q 222 40 201 40 q 290 58 258 40 q 346 107 322 76 l 346 107 z "},"1":{"ha":328,"x_min":0,"x_max":297,"o":"m 297 0 l 0 0 l 0 40 l 100 40 l 100 508 l 33 508 l 33 549 l 203 549 l 203 40 l 297 40 l 297 0 l 297 0 z "},"2":{"ha":360,"x_min":6,"x_max":332,"o":"m 310 0 l 6 0 q 59 86 32 43 q 113 172 86 129 q 167 257 140 214 q 221 343 194 300 q 237 378 231 358 q 243 417 243 397 q 237 451 243 435 q 218 482 231 468 q 201 497 210 492 q 182 504 192 501 q 173 506 178 506 q 164 507 168 507 q 158 507 161 507 q 150 506 154 507 q 117 492 133 503 q 89 468 101 482 q 62 422 72 449 q 51 365 51 396 l 11 367 q 11 369 11 368 q 11 371 11 371 q 52 485 14 433 q 156 547 90 538 q 166 549 161 549 q 176 549 171 549 q 238 537 208 549 q 289 501 267 525 q 322 447 311 478 q 332 382 332 415 q 332 374 332 378 q 332 367 332 371 q 320 313 329 339 q 296 264 311 286 l 297 265 l 154 40 l 310 40 l 310 0 l 310 0 z "},"3":{"ha":385,"x_min":0,"x_max":350,"o":"m 350 179 q 335 109 350 142 q 294 53 319 76 q 230 13 265 26 q 158 0 194 0 q 70 22 113 0 q 0 86 28 43 l 33 107 q 76 65 50 82 q 132 43 103 47 q 134 43 133 43 q 136 43 135 43 q 137 43 136 43 q 139 43 138 43 q 147 44 143 43 q 153 44 150 44 q 177 56 165 49 q 197 71 189 63 q 201 74 199 72 q 204 76 203 75 q 233 124 224 97 q 243 179 243 151 q 234 232 243 207 q 207 278 225 257 q 169 307 190 297 q 122 317 147 317 l 122 318 q 101 318 113 318 q 78 318 89 318 l 224 508 l 49 508 l 49 549 l 306 549 l 160 358 q 292 308 235 360 q 350 179 350 257 l 350 179 z "},"4":{"ha":489,"x_min":1,"x_max":457,"o":"m 457 93 l 386 93 l 386 -81 l 285 -81 l 285 93 l 1 93 l 194 549 l 306 549 l 131 133 l 285 133 l 285 463 l 386 463 l 386 133 l 457 133 l 457 93 l 457 93 z "},"5":{"ha":368,"x_min":0,"x_max":342,"o":"m 342 192 q 288 58 342 115 q 157 0 235 0 q 66 25 108 0 q 0 93 24 50 l 33 113 q 72 69 49 88 q 122 44 94 51 q 125 44 124 44 q 128 44 126 44 q 129 44 128 44 q 132 44 131 44 q 167 55 151 44 q 196 79 183 65 q 226 133 215 103 q 236 194 236 163 q 236 201 236 197 q 236 207 236 204 q 225 260 235 233 q 197 306 215 286 q 167 331 183 324 q 133 338 150 339 q 98 331 115 338 q 64 311 81 324 q 56 305 60 308 q 49 299 51 301 q 40 292 44 296 q 32 286 36 289 l 32 549 l 303 549 l 303 508 l 72 508 l 72 361 q 119 378 94 372 q 168 383 143 383 q 243 367 207 383 q 304 319 279 351 q 331 265 321 297 q 342 192 342 233 l 342 192 z "},"6":{"ha":478,"x_min":4,"x_max":439,"o":"m 438 300 q 439 285 439 293 q 439 271 439 278 q 438 246 439 258 q 435 221 438 233 q 376 74 424 142 q 246 -4 328 6 q 234 -6 240 -6 q 222 -6 228 -6 q 148 10 183 -6 q 85 53 113 26 q 26 145 46 92 q 4 254 6 199 q 4 261 4 258 q 4 267 4 264 q 15 355 4 311 q 49 435 26 399 l 276 808 l 399 808 l 236 540 q 368 469 318 533 q 433 331 418 406 q 435 315 435 322 q 438 300 436 307 l 438 300 m 396 311 q 393 327 394 319 q 389 343 392 335 q 330 453 372 403 q 221 501 288 503 q 217 501 219 501 q 213 501 215 501 l 46 228 q 49 208 47 218 q 54 189 51 199 q 114 81 71 131 q 222 33 157 32 q 224 33 224 33 q 226 33 225 33 l 396 311 l 396 311 z "},"7":{"ha":372,"x_min":-54,"x_max":285,"o":"m 285 549 l 56 -100 l -54 -100 l 160 508 l 8 508 l 8 549 l 285 549 l 285 549 z "},"8":{"ha":499,"x_min":1,"x_max":465,"o":"m 397 64 q 328 19 367 35 q 249 0 289 3 q 242 0 246 0 q 233 0 238 0 q 147 17 189 0 q 71 64 104 33 q 19 138 36 97 q 3 219 1 178 q 41 341 3 285 q 147 424 79 397 q 92 481 111 446 q 74 553 74 515 q 85 610 74 582 q 121 661 97 639 q 174 694 144 683 q 235 704 204 706 q 241 704 238 704 q 249 704 244 704 q 301 691 275 701 q 347 661 326 681 q 376 622 365 643 q 392 578 388 600 q 394 566 393 572 q 394 553 394 560 q 376 481 394 515 q 321 424 357 446 q 428 340 390 397 q 465 218 465 283 q 449 137 465 176 q 397 64 433 97 l 397 64 m 426 219 q 368 349 426 297 q 233 400 310 400 q 159 363 188 400 q 119 282 131 326 q 113 249 115 265 q 111 219 111 233 q 113 189 111 206 q 119 156 115 172 q 160 76 132 113 q 233 40 188 40 q 367 91 308 40 q 426 219 426 142 l 426 219 m 354 553 q 318 633 354 601 q 233 665 282 665 q 201 646 214 665 q 182 603 189 626 q 177 575 179 589 q 175 553 175 561 q 176 530 175 543 q 182 503 178 517 q 201 458 189 478 q 233 439 214 439 q 318 472 282 439 q 354 553 354 504 l 354 553 z "},"9":{"ha":475,"x_min":3,"x_max":438,"o":"m 393 110 l 165 -264 l 43 -264 l 206 4 q 74 75 124 11 q 8 214 24 139 q 6 230 7 222 q 4 244 6 238 q 3 259 3 251 q 3 274 3 267 q 3 299 3 286 q 7 324 4 311 q 66 471 18 403 q 196 550 114 539 q 208 551 203 551 q 219 551 214 551 q 294 535 260 551 q 357 492 329 519 q 416 399 396 453 q 438 290 436 346 q 438 283 438 286 q 438 278 438 281 q 426 190 438 233 q 393 110 415 146 l 393 110 m 396 317 q 392 336 394 326 q 388 356 390 346 q 328 463 371 414 q 219 511 285 513 q 217 511 218 511 q 215 511 217 511 l 46 233 q 49 217 47 225 q 53 201 50 210 q 112 92 69 142 q 221 43 154 42 q 226 43 224 43 q 229 43 228 43 l 396 317 l 396 317 z "}," ":{"ha":278,"x_min":0,"x_max":0,"o":""}," ":{"ha":278,"x_min":0,"x_max":0,"o":""},"!":{"ha":181,"x_min":8,"x_max":174,"o":"m 132 50 q 114 8 132 25 q 71 -10 96 -10 q 26 8 44 -10 q 8 50 8 25 q 26 94 8 76 q 71 113 44 113 q 114 94 96 113 q 132 50 132 76 l 132 50 m 174 779 l 144 750 q 128 762 138 757 q 108 767 119 767 q 106 767 107 767 q 104 767 106 767 l 104 194 q 106 190 104 192 q 111 188 108 188 q 113 188 113 188 q 114 189 114 189 q 119 192 117 190 q 122 197 121 194 l 142 160 q 118 146 131 150 q 90 142 106 142 q 32 165 56 142 q 8 222 8 189 l 8 710 q 37 778 8 750 q 104 807 65 807 q 142 800 124 807 q 174 779 160 793 l 174 779 z "},"\"":{"ha":260,"x_min":7,"x_max":254,"o":"m 117 722 l 58 644 l 26 668 l 50 700 q 45 701 47 700 q 40 704 43 703 q 35 707 38 706 q 31 710 33 708 q 13 733 19 719 q 7 760 7 746 q 10 778 7 769 q 18 796 13 788 q 41 815 28 808 q 68 821 54 821 q 74 821 71 821 q 81 819 78 821 q 94 815 88 818 q 106 808 100 813 q 123 786 117 799 q 129 758 129 774 q 126 740 129 749 q 117 722 124 731 l 117 722 m 242 722 l 183 644 l 151 668 l 175 700 q 170 701 172 700 q 165 704 168 703 q 160 707 163 706 q 156 710 158 708 q 138 733 144 719 q 132 760 132 746 q 135 778 132 769 q 143 796 138 788 q 166 815 153 808 q 193 821 179 821 q 199 821 196 821 q 206 819 203 821 q 219 815 213 818 q 231 808 225 813 q 248 786 242 799 q 254 758 254 774 q 251 740 254 749 q 242 722 249 731 l 242 722 z "},"#":{"ha":694,"x_min":0,"x_max":0,"o":""},"$":{"ha":268,"x_min":13,"x_max":256,"o":"m 256 357 q 228 302 256 324 q 169 272 201 281 q 159 271 164 272 q 149 269 154 269 l 149 128 l 108 128 l 108 272 q 102 273 106 272 q 96 275 99 274 q 44 299 68 282 q 14 342 21 315 q 13 345 14 343 q 13 349 13 347 q 13 352 13 350 q 13 356 13 354 q 23 388 13 374 q 53 403 33 401 q 53 403 53 403 q 54 403 53 403 q 54 403 54 403 q 54 403 54 403 q 98 383 79 403 q 118 339 117 363 q 118 337 118 338 q 118 335 118 336 q 118 329 118 332 q 117 324 118 326 q 115 318 117 321 q 113 313 114 315 q 124 310 118 311 q 138 310 131 310 q 154 311 146 310 q 168 318 163 313 q 172 322 171 319 q 175 325 174 324 q 176 328 175 326 q 176 332 176 331 q 167 347 176 338 q 143 368 157 357 q 140 372 142 369 q 135 375 138 374 q 113 392 124 383 q 97 404 103 400 q 44 447 68 425 q 21 497 21 469 q 45 549 21 529 q 97 576 69 568 q 103 578 100 578 q 108 579 106 579 l 108 732 l 149 732 l 149 581 q 155 580 151 581 q 161 579 158 579 q 210 561 188 575 q 240 519 233 547 q 241 516 240 518 q 242 513 242 514 q 242 509 242 511 q 242 506 242 507 q 232 476 242 489 q 203 461 222 463 q 203 461 203 461 q 203 461 203 461 q 201 461 201 461 q 201 461 201 461 q 160 481 178 461 q 142 522 143 500 q 142 524 142 524 q 142 526 142 525 q 142 530 142 528 q 143 533 142 532 q 144 537 143 535 q 144 540 144 539 q 142 540 143 540 q 140 542 140 540 q 138 542 139 542 q 135 542 136 542 q 131 542 133 542 q 126 542 128 542 q 106 535 115 540 q 97 521 97 531 q 107 508 97 517 q 129 489 117 499 q 133 486 131 488 q 138 482 135 485 q 157 468 147 475 q 172 457 167 461 q 230 411 204 435 q 256 357 256 388 l 256 357 z "},"%":{"ha":694,"x_min":0,"x_max":0,"o":""},"&":{"ha":801,"x_min":3,"x_max":771,"o":"m 738 432 q 688 403 715 410 q 629 397 660 397 q 613 397 621 397 q 599 399 606 397 q 583 399 590 399 q 567 399 575 399 q 620 333 603 371 q 638 253 638 294 q 637 240 638 247 q 636 228 636 233 q 623 178 632 203 q 600 131 614 153 q 614 78 610 104 q 618 26 618 53 q 599 -74 618 -25 q 539 -161 579 -122 q 451 -220 500 -201 q 350 -239 401 -239 q 213 -202 278 -239 q 111 -96 149 -165 l 146 -79 q 224 -164 174 -131 q 331 -197 275 -197 q 392 -184 363 -197 q 449 -143 422 -171 q 496 -64 481 -108 q 511 26 511 -19 q 511 35 511 31 q 511 43 511 39 q 420 4 469 17 q 319 -8 371 -8 q 102 62 201 -8 q 3 263 3 132 q 67 408 3 354 q 207 496 131 461 q 254 517 231 507 q 299 536 278 526 q 297 542 297 539 q 296 547 296 544 q 283 599 289 572 q 274 656 276 626 q 272 669 272 663 q 272 683 272 676 q 282 751 272 719 q 314 808 292 783 q 353 839 332 828 q 396 853 375 850 q 406 854 401 854 q 414 854 410 854 q 513 810 469 853 q 557 703 557 768 q 507 591 557 624 q 397 535 457 558 q 378 526 388 531 q 358 518 368 522 q 380 478 368 497 q 404 439 392 458 q 531 438 468 438 q 658 438 594 438 q 708 458 689 438 q 729 501 726 478 q 729 506 729 504 q 729 511 729 508 q 717 546 729 531 q 681 561 706 561 q 667 560 672 561 q 660 557 663 558 q 655 555 657 556 q 650 554 653 554 q 642 558 647 553 q 622 581 636 564 q 633 588 628 585 q 642 593 638 590 q 662 601 651 599 q 681 603 672 603 q 744 574 717 603 q 771 507 771 546 q 770 494 771 501 q 768 482 769 488 q 757 457 764 469 q 738 432 750 444 l 738 432 m 506 88 q 465 203 493 147 q 406 314 438 260 q 390 340 397 326 q 375 367 382 354 q 367 383 371 375 q 358 397 363 390 q 297 367 324 394 q 271 304 271 340 q 271 299 271 301 q 272 293 271 296 q 273 288 272 290 q 275 282 274 285 q 290 298 282 293 q 308 301 299 303 q 313 301 311 301 q 318 300 315 300 q 354 277 338 294 q 374 240 371 260 q 375 235 375 238 q 375 229 375 232 q 372 211 375 219 q 358 196 368 203 q 347 190 353 192 q 333 188 340 188 q 319 191 326 189 q 304 197 311 193 q 249 244 267 214 q 232 306 232 274 q 232 308 232 307 q 232 311 232 310 q 261 389 233 353 q 339 436 289 425 q 326 467 332 451 q 313 499 319 482 q 303 494 311 497 q 285 486 294 490 q 284 486 285 486 q 283 486 283 486 q 265 478 274 482 q 257 474 257 474 q 156 383 192 443 q 121 257 121 324 q 137 172 121 214 q 188 94 153 129 q 260 44 221 60 q 342 29 300 29 q 426 44 385 29 q 506 88 468 60 l 506 88 m 579 176 q 592 215 588 196 q 596 254 596 235 q 560 354 596 311 q 456 399 524 397 l 431 399 q 450 372 440 385 q 469 344 460 358 q 474 338 472 342 q 479 332 476 335 q 533 256 507 294 q 579 176 558 218 l 579 176 m 517 703 q 485 784 517 757 q 414 811 453 811 q 344 784 375 811 q 313 703 313 757 q 320 627 313 664 q 342 554 328 590 q 356 560 349 557 q 369 565 363 563 q 382 570 375 568 q 394 575 389 572 q 478 619 440 592 q 517 703 517 646 l 517 703 z "},"'":{"ha":136,"x_min":7,"x_max":129,"o":"m 117 722 l 58 644 l 26 668 l 50 700 q 45 701 47 700 q 40 704 43 703 q 35 707 38 706 q 31 710 33 708 q 13 733 19 719 q 7 760 7 746 q 10 778 7 769 q 18 796 13 788 q 41 815 28 808 q 68 821 54 821 q 74 821 71 821 q 81 819 78 821 q 94 815 88 818 q 106 808 100 813 q 123 786 117 799 q 129 758 129 774 q 126 740 129 749 q 117 722 124 731 l 117 722 z "},"(":{"ha":263,"x_min":13,"x_max":250,"o":"m 250 -139 q 141 -65 183 -111 q 69 46 99 -18 q 28 183 43 107 q 13 344 13 260 q 15 408 13 375 q 21 472 17 440 q 90 685 38 585 q 250 828 142 785 l 250 782 q 186 714 208 756 q 150 628 164 672 q 123 497 132 569 q 114 344 114 425 q 116 256 114 306 q 126 154 118 206 q 166 11 138 79 q 250 -92 194 -57 l 250 -139 l 250 -139 z "},")":{"ha":263,"x_min":11,"x_max":249,"o":"m 11 -139 l 11 -93 q 95 11 67 -57 q 135 154 124 79 q 145 256 143 206 q 147 344 147 306 q 138 497 147 425 q 111 628 129 569 q 75 714 97 672 q 11 782 53 756 l 11 828 q 172 685 119 785 q 240 472 224 585 q 247 408 244 440 q 249 344 249 375 q 234 183 249 260 q 192 46 219 107 q 120 -65 163 -18 q 11 -137 78 -111 l 11 -139 z "},"*":{"ha":250,"x_min":11,"x_max":239,"o":"m 239 671 l 219 636 l 146 678 l 146 593 l 106 593 l 106 679 l 32 638 l 11 671 l 85 714 l 11 756 l 32 790 l 106 747 l 106 833 l 146 833 l 146 749 l 219 792 l 239 757 l 165 714 l 239 671 l 239 671 z "},"+":{"ha":694,"x_min":0,"x_max":0,"o":""},",":{"ha":136,"x_min":7,"x_max":129,"o":"m 117 14 l 58 -64 l 26 -40 l 50 -8 q 45 -6 47 -7 q 40 -3 43 -4 q 35 -1 38 -1 q 31 1 33 0 q 13 24 19 11 q 7 51 7 38 q 10 70 7 61 q 18 88 13 79 q 41 106 28 100 q 68 113 54 113 q 74 113 71 113 q 81 111 78 113 q 94 107 88 110 q 106 100 100 104 q 123 78 117 90 q 129 51 129 65 q 126 32 129 42 q 117 14 124 22 l 117 14 z "},"-":{"ha":208,"x_min":10,"x_max":199,"o":"m 199 288 l 10 288 l 10 379 l 199 379 l 199 288 l 199 288 z "},".":{"ha":181,"x_min":8,"x_max":132,"o":"m 132 50 q 114 8 132 25 q 71 -10 96 -10 q 26 8 44 -10 q 8 50 8 25 q 26 94 8 76 q 71 113 44 113 q 114 94 96 113 q 132 50 132 76 l 132 50 z "},"/":{"ha":378,"x_min":13,"x_max":346,"o":"m 346 921 l 78 -250 l 13 -250 l 279 921 l 346 921 l 346 921 z "},":":{"ha":181,"x_min":8,"x_max":132,"o":"m 132 50 q 114 8 132 25 q 71 -10 96 -10 q 26 8 44 -10 q 8 50 8 25 q 26 94 8 76 q 71 113 44 113 q 114 94 96 113 q 132 50 132 76 l 132 50 m 132 258 q 114 215 132 233 q 71 197 96 197 q 26 215 44 197 q 8 258 8 233 q 26 303 8 285 q 71 321 44 321 q 114 303 96 321 q 132 258 132 285 l 132 258 z "},";":{"ha":181,"x_min":8,"x_max":132,"o":"m 119 14 l 61 -64 l 29 -40 l 53 -8 q 48 -6 50 -7 q 43 -3 46 -4 q 38 -1 40 -1 q 33 1 36 0 q 16 24 22 11 q 10 51 10 38 q 13 70 10 61 q 21 88 15 79 q 44 106 31 100 q 71 113 57 113 q 77 113 74 113 q 83 111 81 113 q 97 107 90 110 q 108 100 103 104 q 126 78 119 90 q 132 50 132 65 q 129 31 132 40 q 119 14 126 22 l 119 14 m 132 258 q 114 215 132 233 q 71 197 96 197 q 26 215 44 197 q 8 258 8 233 q 26 303 8 285 q 71 321 44 321 q 114 303 96 321 q 132 258 132 285 l 132 258 z "},"<":{"ha":694,"x_min":0,"x_max":0,"o":""},"=":{"ha":694,"x_min":0,"x_max":0,"o":""},">":{"ha":694,"x_min":0,"x_max":0,"o":""},"?":{"ha":468,"x_min":7,"x_max":456,"o":"m 267 50 q 249 8 267 25 q 204 -10 231 -10 q 161 8 179 -10 q 143 50 143 25 q 161 94 143 76 q 204 113 179 113 q 249 94 231 113 q 267 50 267 76 l 267 50 m 456 571 q 454 544 456 558 q 450 518 453 531 q 417 431 442 472 q 349 371 392 389 q 327 360 339 367 q 303 349 315 354 q 244 304 271 331 q 218 242 218 278 q 218 227 218 238 q 218 204 218 217 q 218 183 218 193 q 218 168 218 174 l 178 168 q 178 183 178 174 q 178 204 178 193 q 178 227 178 217 q 178 242 178 238 q 206 338 178 294 q 274 413 235 382 q 330 483 313 442 q 347 571 347 524 q 337 651 347 614 q 306 714 326 688 q 267 747 290 733 q 217 764 243 761 q 209 765 213 765 q 201 765 206 765 q 197 765 199 765 q 192 764 194 765 q 187 763 189 764 q 182 763 185 763 q 92 714 131 751 q 49 622 53 676 q 55 622 51 622 q 61 621 58 621 q 95 599 79 615 q 115 565 111 583 q 115 562 115 564 q 115 558 115 560 q 112 547 114 553 q 106 535 110 540 q 95 526 101 529 q 82 521 89 522 q 78 519 81 519 q 74 519 76 519 q 68 519 71 519 q 64 521 65 519 q 27 542 43 525 q 10 581 11 560 q 8 597 8 589 q 7 611 7 604 q 76 752 7 697 q 231 807 144 807 q 391 736 326 807 q 456 571 456 665 l 456 571 z "},"@":{"ha":1303,"x_min":60,"x_max":1244,"o":"m 875 882 l 538 -115 q 467 -209 518 -174 q 356 -244 415 -244 q 344 -244 350 -244 q 332 -243 338 -243 q 319 -240 325 -242 q 307 -237 314 -239 l 318 -189 q 335 -191 326 -190 q 351 -192 343 -192 q 435 -163 397 -192 q 488 -93 474 -135 l 790 799 q 753 788 772 792 q 714 785 733 785 q 617 800 667 785 q 517 835 567 815 q 508 839 513 838 q 499 843 503 840 q 391 881 444 864 q 288 900 338 899 q 283 900 286 900 q 276 900 279 900 q 243 898 263 900 q 203 889 224 896 q 153 862 176 881 q 118 810 129 843 q 113 790 115 800 q 111 769 111 779 q 133 703 113 733 q 193 661 153 672 l 182 610 q 91 672 122 625 q 60 775 60 719 q 60 789 60 782 q 63 803 61 796 q 65 817 63 810 q 68 831 67 824 q 144 926 92 900 q 258 953 196 953 q 292 951 275 953 q 325 947 308 950 q 412 927 369 940 q 492 900 454 914 q 522 888 504 894 q 558 875 539 882 q 602 861 579 868 q 649 849 625 854 q 685 842 667 844 q 721 840 704 840 q 785 853 757 840 q 825 901 814 867 l 875 882 l 875 882 m 1244 165 l 1031 53 q 1047 48 1039 50 q 1065 46 1056 46 q 1072 46 1068 46 q 1078 47 1075 46 q 1140 70 1111 50 q 1185 115 1169 90 l 1231 86 q 1162 21 1207 47 q 1068 -6 1117 -6 q 1056 -5 1063 -6 q 1044 -4 1050 -4 q 1033 -1 1039 -3 q 1021 1 1026 0 q 967 37 983 14 q 950 86 950 60 q 951 100 950 93 q 954 114 953 107 q 1018 205 968 164 q 1129 246 1068 246 q 1142 245 1136 246 q 1154 244 1147 244 q 1166 242 1160 243 q 1178 238 1172 240 q 1193 228 1183 235 q 1214 211 1203 222 q 1231 191 1222 203 q 1244 165 1239 179 l 1244 165 m 1168 186 q 1167 187 1168 186 q 1167 188 1167 188 q 1165 188 1165 188 q 1164 189 1164 189 q 1149 192 1157 192 q 1135 193 1142 193 q 1124 192 1129 193 q 1115 192 1119 192 q 1045 159 1078 185 q 1006 101 1013 133 l 1168 186 l 1168 186 m 1049 858 q 1040 858 1044 858 q 1031 856 1035 857 q 994 834 1011 850 q 969 799 976 818 l 765 193 q 772 199 768 196 q 779 204 776 201 q 812 225 794 215 q 846 239 829 235 q 859 242 853 242 q 871 243 865 243 q 902 236 889 243 q 925 215 915 229 q 940 183 936 201 q 943 146 943 165 q 943 135 943 140 q 942 125 943 131 q 936 85 940 104 q 926 49 932 65 q 920 26 924 36 q 914 10 917 17 l 864 31 q 869 44 867 36 q 875 61 872 53 q 882 85 879 72 q 888 111 885 97 q 891 132 890 121 q 892 153 892 143 q 890 173 892 164 q 883 188 888 182 q 881 190 882 189 q 875 190 879 190 q 858 188 867 190 q 842 182 850 186 q 785 140 813 169 q 738 78 758 111 q 717 42 725 60 q 703 10 708 25 l 651 31 l 919 819 q 969 883 933 856 q 1044 910 1004 910 l 1049 858 l 1049 858 z "},"A":{"ha":788,"x_min":-214,"x_max":771,"o":"m 771 0 l 472 0 l 472 40 l 574 40 l 574 161 q 560 263 574 214 q 510 358 547 313 q 449 413 483 390 q 378 449 415 436 q 349 351 363 400 q 322 251 335 301 q 283 110 303 181 q 236 -29 263 39 q 283 -42 260 -37 q 331 -46 307 -46 l 331 -86 q 303 -83 317 -85 q 276 -81 289 -82 q 249 -74 263 -78 q 221 -67 235 -71 q 117 -225 179 -164 q -42 -286 54 -286 q -160 -246 -107 -286 q -214 -136 -214 -206 q -180 -51 -214 -86 q -100 -17 -146 -17 q -77 -19 -89 -17 q -54 -28 -65 -22 q -52 -28 -53 -28 q -50 -29 -51 -29 q -22 -55 -35 -37 q -6 -90 -8 -72 q -6 -93 -6 -92 q -6 -96 -6 -94 q -10 -114 -7 -106 q -24 -129 -14 -122 q -37 -135 -31 -133 q -49 -137 -43 -137 q -85 -120 -68 -137 q -110 -82 -103 -103 q -110 -74 -110 -78 q -111 -65 -111 -69 q -111 -63 -111 -64 q -111 -62 -111 -62 q -111 -60 -111 -61 q -111 -58 -111 -60 q -157 -85 -140 -64 q -174 -136 -174 -107 q -136 -214 -174 -186 q -53 -246 -99 -242 q -47 -246 -50 -246 q -42 -246 -44 -246 q 92 -191 39 -246 q 185 -50 146 -136 q 58 63 107 -11 q 8 225 8 138 q 8 238 8 232 q 10 250 8 244 q 104 434 21 365 q 294 503 188 503 q 308 503 301 503 q 324 501 315 503 q 338 500 331 501 q 351 497 344 499 q 364 533 357 515 q 379 571 371 551 q 481 734 417 660 q 650 808 544 808 l 757 808 l 757 768 l 675 768 l 675 40 l 771 40 l 771 0 l 771 0 m 339 458 q 316 462 328 461 q 293 463 304 463 q 130 404 201 463 q 50 247 58 346 q 50 242 50 244 q 50 236 50 239 q 49 229 49 232 q 49 224 49 226 q 92 85 50 149 q 200 -12 133 21 q 247 124 226 54 q 285 265 267 194 q 288 276 286 271 q 290 286 289 281 q 313 372 301 329 q 339 458 325 415 l 339 458 m 572 339 l 572 751 q 465 651 508 722 q 390 486 422 581 q 494 430 447 468 q 572 339 542 392 l 572 339 z "},"B":{"ha":710,"x_min":7,"x_max":690,"o":"m 632 613 q 597 515 632 553 q 508 458 561 478 q 641 369 592 435 q 690 229 690 304 q 690 217 690 224 q 689 206 690 211 q 667 135 685 169 q 618 68 650 100 q 523 13 574 25 q 414 0 472 0 q 265 0 339 0 q 117 0 190 0 l 117 40 l 217 40 l 217 219 q 65 337 122 253 q 7 522 7 421 q 100 755 7 664 q 335 843 193 846 q 381 901 356 874 q 432 953 406 929 l 460 924 q 424 884 439 906 q 396 839 410 863 q 563 776 494 828 q 632 613 632 724 l 632 613 m 533 96 q 572 162 560 126 q 585 233 585 197 q 536 369 585 308 q 401 431 488 431 q 360 431 381 431 q 321 431 340 431 l 321 242 q 401 254 361 242 q 474 290 440 267 l 497 258 q 413 217 458 232 q 321 201 368 201 l 321 40 q 338 40 329 40 q 353 40 346 40 q 369 39 361 39 q 385 39 376 39 q 464 49 426 39 q 533 96 501 58 l 533 96 m 307 800 q 301 800 304 800 q 296 800 299 800 q 290 800 293 800 q 285 800 288 800 q 107 703 168 786 q 47 521 46 619 q 47 517 47 519 q 47 514 47 515 q 91 366 49 436 q 217 261 133 296 q 217 366 217 314 q 217 469 217 418 q 240 641 217 557 q 307 800 264 725 l 307 800 m 519 626 q 478 738 519 697 q 371 792 436 778 q 328 635 335 715 q 321 472 321 556 q 462 503 404 472 q 519 626 519 533 l 519 626 z "},"C":{"ha":664,"x_min":1,"x_max":640,"o":"m 640 135 q 534 44 596 79 q 401 1 472 8 q 393 1 397 1 q 385 1 389 1 q 376 0 381 0 q 368 0 372 0 q 103 125 206 0 q 1 404 1 250 q 111 688 1 568 q 389 808 221 808 q 406 808 397 808 q 422 806 414 807 q 560 744 497 796 q 622 610 622 692 q 603 551 622 576 q 557 526 583 526 q 545 528 551 526 q 533 533 539 529 q 522 542 528 536 q 510 556 515 547 q 498 577 501 567 q 494 597 494 588 q 508 628 496 617 q 538 639 519 639 q 549 638 543 639 q 560 633 554 636 q 571 625 565 629 q 582 614 576 621 q 533 715 581 675 q 429 765 485 754 q 415 767 422 767 q 401 768 408 768 l 401 767 q 280 741 333 767 q 190 671 226 715 q 128 549 149 619 q 107 401 107 478 q 107 399 107 400 q 107 397 107 399 q 178 151 108 263 q 392 40 249 39 q 408 41 400 40 q 422 43 415 42 q 527 87 476 53 q 610 160 578 121 l 640 135 l 640 135 z "},"D":{"ha":846,"x_min":1,"x_max":824,"o":"m 706 689 q 795 555 767 628 q 822 407 824 482 q 713 126 822 251 q 421 0 603 0 l 121 0 l 121 40 l 222 40 l 222 215 q 64 323 126 243 q 1 504 1 403 q 93 724 1 640 q 317 808 185 807 q 372 885 342 849 q 438 953 403 922 l 464 924 q 460 920 463 922 q 457 917 458 918 q 453 913 454 915 q 449 910 451 911 q 412 858 428 883 q 383 808 396 832 q 558 784 478 808 q 706 689 638 760 l 706 689 m 717 404 q 626 654 717 540 q 390 768 536 768 q 378 768 385 768 q 365 768 372 768 q 332 642 339 707 q 325 513 325 578 q 325 491 325 501 q 325 469 325 481 q 325 412 325 440 q 325 356 325 383 q 325 299 325 328 q 325 242 325 271 q 401 255 364 243 q 468 288 438 267 l 490 256 q 412 217 454 231 q 325 201 369 203 l 325 40 l 390 40 q 626 153 536 40 q 717 404 717 267 l 717 404 m 294 767 q 113 688 186 761 q 40 504 40 615 q 92 352 40 419 q 222 257 143 285 q 222 290 222 274 q 222 322 222 306 q 229 548 221 438 q 294 767 238 658 l 294 767 z "},"E":{"ha":544,"x_min":6,"x_max":533,"o":"m 533 188 q 437 47 511 94 q 276 0 363 0 q 175 17 225 0 q 85 69 125 35 q 29 140 49 101 q 7 217 10 178 q 6 226 6 221 q 6 236 6 232 q 50 369 6 307 q 171 460 94 431 q 88 524 122 482 q 54 622 54 567 q 117 753 54 704 q 256 807 181 803 q 263 807 260 807 q 271 807 267 807 q 384 774 332 807 q 450 668 436 742 q 451 660 451 664 q 451 651 451 656 q 440 619 451 631 q 411 608 428 608 q 401 610 406 608 q 390 614 396 611 q 375 622 382 617 q 363 636 368 628 q 355 651 358 643 q 350 669 351 660 q 349 675 349 672 q 349 681 349 678 q 357 708 349 696 q 385 721 365 719 q 338 756 365 744 q 279 768 310 767 q 274 768 276 768 q 269 768 272 768 q 184 725 213 767 q 156 632 156 683 q 156 626 156 629 q 156 621 156 624 q 167 567 157 593 q 197 522 178 542 q 232 496 211 508 q 275 479 253 483 q 286 478 281 479 q 297 478 292 478 q 302 478 300 478 q 306 478 304 478 l 390 478 l 390 438 q 376 438 383 438 q 364 438 369 438 q 262 432 310 439 q 169 379 214 425 q 129 315 143 353 q 114 240 115 278 q 114 233 114 236 q 114 228 114 231 q 155 99 114 157 q 276 40 196 40 q 415 79 354 40 q 494 197 475 118 l 533 188 l 533 188 z "},"F":{"ha":815,"x_min":-1,"x_max":790,"o":"m 790 618 l 751 618 l 751 768 l 507 768 q 500 694 501 736 q 499 597 499 653 q 499 565 499 581 q 499 532 499 549 q 499 499 499 515 q 499 467 499 483 l 650 467 l 650 581 l 690 581 l 690 313 l 650 313 l 650 426 l 499 426 q 499 408 499 417 q 499 389 499 399 q 499 371 499 381 q 499 353 499 361 q 497 296 499 324 q 490 242 496 268 q 506 242 499 242 q 522 243 514 242 q 538 246 531 244 q 554 249 546 247 l 563 210 q 528 203 546 206 q 493 201 511 201 q 487 201 490 201 q 481 201 483 201 q 381 43 451 108 q 207 -22 310 -22 q 63 26 126 -22 q -1 164 -1 75 q 42 267 -1 222 q 139 313 86 311 q 141 313 140 313 q 143 313 142 313 q 183 305 164 313 q 221 279 203 297 q 244 245 235 265 q 256 203 253 225 q 256 199 256 201 q 256 194 256 197 q 256 188 256 192 q 254 182 256 185 q 252 169 254 175 q 246 157 250 163 q 226 135 239 143 q 199 128 214 126 q 190 128 194 128 q 182 131 186 129 q 151 153 163 138 q 138 185 140 168 q 137 191 138 188 q 136 199 136 194 q 145 228 136 215 q 172 240 154 240 q 181 240 176 240 q 192 236 186 239 q 200 233 196 235 q 207 228 204 231 q 179 262 197 251 q 142 272 161 272 q 135 272 139 272 q 128 271 132 272 q 65 235 93 265 q 36 164 36 206 q 88 56 36 94 q 206 17 140 17 q 308 63 268 17 q 369 167 349 110 q 378 194 374 181 q 385 219 382 207 q 237 329 294 251 q 179 504 179 407 q 253 706 179 622 q 444 806 328 790 q 519 892 474 856 q 615 956 564 929 l 635 921 q 566 875 599 903 q 518 808 533 847 l 790 808 l 790 618 l 790 618 m 424 761 q 271 665 322 739 q 219 507 219 592 q 263 362 219 431 q 392 260 306 293 q 394 283 393 271 q 396 307 394 294 q 396 319 396 313 q 396 331 396 325 q 396 464 396 397 q 396 597 396 531 q 403 686 396 646 q 424 761 410 726 l 424 761 z "},"G":{"ha":778,"x_min":4,"x_max":753,"o":"m 753 272 l 669 272 q 669 239 669 267 q 669 178 669 211 q 669 113 669 143 q 668 83 668 83 q 694 49 683 69 q 704 4 704 28 l 664 4 q 643 53 664 35 q 596 71 622 71 q 578 68 586 71 q 561 60 569 65 q 467 15 517 29 q 368 0 418 0 q 231 30 299 0 q 111 119 164 60 q 33 244 60 176 q 4 382 7 313 q 4 392 4 388 q 4 401 4 397 q 108 683 4 557 q 392 808 211 808 q 408 808 400 808 q 425 806 417 807 q 563 744 500 796 q 625 610 625 692 q 624 601 625 606 q 624 590 624 596 q 608 553 619 571 q 576 529 597 535 q 568 527 572 528 q 560 526 564 526 q 520 545 535 528 q 501 583 506 563 q 501 591 501 588 q 500 599 500 594 q 508 628 500 615 q 535 640 517 640 q 544 640 539 640 q 556 636 550 639 l 554 636 q 571 628 563 633 q 585 614 579 622 q 538 713 583 674 q 436 764 492 751 q 420 767 428 765 q 404 768 413 768 l 404 767 q 181 653 251 767 q 110 404 110 540 q 130 256 110 325 q 192 136 150 186 q 281 65 232 88 q 383 42 331 42 q 399 42 392 42 q 415 44 407 43 q 478 60 447 49 q 539 92 510 72 q 552 99 546 96 q 565 106 558 103 l 565 272 l 397 272 l 397 311 l 753 311 l 753 272 l 753 272 z "},"H":{"ha":813,"x_min":-282,"x_max":786,"o":"m 786 0 l 486 0 l 486 40 l 588 40 l 588 415 l 204 415 q 204 219 204 318 q 204 22 204 121 q 203 6 204 14 q 203 -12 203 -3 q 122 -222 193 -126 q -75 -318 51 -318 q -81 -318 -78 -318 q -86 -318 -83 -318 q -221 -267 -160 -314 q -282 -139 -282 -219 q -263 -79 -282 -106 q -212 -42 -244 -53 q -209 -41 -211 -42 q -206 -40 -207 -40 q -202 -39 -204 -39 q -199 -39 -200 -39 q -159 -58 -176 -40 q -136 -96 -142 -75 q -134 -103 -135 -100 q -133 -111 -133 -107 q -137 -131 -133 -122 q -150 -144 -142 -139 q -163 -151 -157 -149 q -175 -153 -169 -153 q -210 -139 -194 -153 q -233 -108 -226 -125 q -240 -125 -237 -117 q -242 -142 -242 -133 q -242 -149 -242 -146 q -240 -156 -242 -153 q -223 -202 -236 -181 q -193 -237 -210 -224 q -144 -267 -172 -256 q -79 -278 -115 -278 q -77 -278 -78 -278 q -75 -278 -76 -278 q 43 -219 4 -278 q 93 -90 82 -161 q 97 -56 96 -74 q 99 -22 99 -39 l 99 768 l 0 768 l 0 808 l 300 808 l 300 768 l 204 768 l 204 456 l 588 456 l 588 768 l 486 768 l 486 808 l 786 808 l 786 768 l 690 768 l 690 40 l 786 40 l 786 0 l 786 0 z "},"I":{"ha":329,"x_min":0,"x_max":300,"o":"m 300 0 l 0 0 l 0 40 l 100 40 l 100 768 l 0 768 l 0 808 l 300 808 l 300 768 l 204 768 l 204 40 l 300 40 l 300 0 l 300 0 z "},"J":{"ha":336,"x_min":-226,"x_max":304,"o":"m 304 768 l 207 768 q 207 383 207 575 q 207 -3 207 190 q 206 -36 207 -19 q 201 -71 204 -53 q 126 -241 185 -164 q -36 -318 67 -318 q -42 -318 -39 -318 q -47 -318 -44 -318 q -171 -272 -115 -314 q -226 -151 -226 -229 q -226 -145 -226 -149 q -225 -137 -226 -142 q -200 -84 -221 -108 q -151 -60 -179 -60 q -128 -66 -140 -60 q -106 -86 -117 -72 q -92 -108 -96 -97 q -89 -128 -89 -118 q -101 -155 -89 -144 q -132 -165 -114 -165 q -142 -165 -136 -165 q -151 -161 -147 -164 q -168 -152 -160 -158 q -183 -135 -176 -146 q -186 -147 -186 -142 q -186 -158 -186 -153 q -153 -233 -186 -200 q -79 -275 -119 -267 q -68 -277 -74 -276 q -57 -278 -62 -278 q -57 -278 -57 -278 q -57 -278 -57 -278 q -56 -278 -56 -278 q -56 -278 -56 -278 q 46 -227 10 -276 q 94 -118 82 -178 q 101 -81 99 -99 q 103 -46 103 -62 l 103 768 l 4 768 l 4 808 l 304 808 l 304 768 l 304 768 z "},"K":{"ha":1088,"x_min":1,"x_max":1072,"o":"m 1072 169 q 1022 50 1072 100 q 903 0 972 0 q 805 25 851 0 q 728 93 758 50 q 617 256 672 175 q 504 418 561 338 q 501 405 503 415 q 500 382 500 394 q 500 379 500 381 q 500 376 500 378 q 500 363 500 369 q 501 351 500 357 q 501 339 501 344 q 501 331 501 333 q 501 317 501 324 q 500 304 501 311 q 419 80 493 182 q 207 -22 344 -22 q 64 28 126 -21 q 1 164 1 78 q 44 268 1 225 q 147 311 88 311 q 226 278 194 311 q 260 200 258 244 q 243 145 260 163 q 204 128 226 128 q 202 128 203 128 q 200 128 201 128 q 159 147 178 129 q 139 194 140 165 q 139 197 139 196 q 139 199 139 197 q 150 228 139 217 q 178 240 161 240 q 183 240 181 240 q 188 239 185 240 q 192 238 189 239 q 196 236 194 238 q 204 233 200 235 q 211 228 208 231 q 183 262 201 251 q 143 272 165 272 q 137 272 140 272 q 131 271 133 271 q 100 260 115 268 q 72 240 85 253 q 49 204 56 224 q 42 163 42 185 q 42 153 42 158 q 43 143 43 149 q 59 97 47 119 q 89 58 71 75 q 140 28 110 40 q 208 17 171 17 q 326 77 283 17 q 385 208 368 138 q 397 273 393 242 q 400 331 400 304 q 400 549 400 440 q 400 768 400 658 l 299 768 l 299 808 l 599 808 l 599 768 l 503 768 l 501 492 l 508 483 q 572 555 540 519 q 633 626 603 590 q 697 698 665 663 q 758 769 728 733 q 791 795 774 786 q 826 807 808 804 q 834 807 831 807 q 842 807 838 807 q 920 776 885 807 q 954 701 956 746 q 951 676 954 689 q 940 650 947 664 q 926 635 935 640 q 907 631 917 629 q 902 631 904 631 q 897 632 900 632 q 861 655 878 638 q 842 692 844 672 q 840 697 840 694 q 840 703 840 700 q 844 722 840 713 q 857 736 847 731 q 869 742 863 740 q 882 743 875 744 q 890 742 886 743 q 899 740 894 742 q 899 740 899 740 q 901 739 900 740 q 876 760 892 753 q 842 768 860 768 q 841 768 842 768 q 839 768 840 768 q 812 760 825 767 q 789 743 799 754 q 681 621 735 682 q 575 499 628 560 q 702 315 639 407 q 828 132 765 224 q 831 127 829 129 q 835 124 832 125 q 874 80 851 100 q 926 56 897 60 q 930 55 928 56 q 933 54 932 54 q 937 54 935 54 q 940 54 939 54 q 998 82 974 54 q 1029 143 1022 110 q 1031 156 1031 150 q 1032 169 1032 163 l 1072 169 l 1072 169 z "},"L":{"ha":632,"x_min":1,"x_max":1018,"o":"m 1018 -46 q 1018 -47 1018 -46 q 1018 -49 1018 -47 q 1017 -49 1017 -49 q 1017 -50 1017 -50 q 1015 -58 1017 -54 q 1010 -72 1014 -62 q 942 -165 988 -137 q 840 -192 897 -192 q 768 -183 806 -192 q 693 -162 731 -175 q 618 -131 656 -149 q 546 -97 581 -114 q 473 -57 507 -76 q 414 -24 439 -37 q 332 19 372 -1 q 254 58 292 40 q 181 0 224 21 q 92 -22 139 -21 q 24 3 47 -22 q 1 58 1 28 q 26 118 3 90 q 96 147 49 146 q 98 147 97 147 q 100 147 99 147 q 101 147 100 147 q 103 147 101 147 q 153 141 126 147 q 211 124 181 135 q 221 169 218 144 q 224 222 224 194 q 224 388 224 306 q 224 553 224 471 q 225 582 224 567 q 229 611 226 597 q 295 760 243 693 q 438 828 347 828 q 552 790 500 828 q 604 682 604 751 q 581 622 604 647 q 531 599 558 597 q 524 599 528 599 q 518 600 521 599 q 499 608 508 601 q 482 624 490 614 q 469 645 472 635 q 465 665 465 656 q 478 694 465 683 q 510 704 492 704 q 518 703 514 704 q 525 701 522 703 q 546 690 536 697 q 563 669 556 682 q 565 680 564 675 q 565 689 565 685 q 536 751 564 725 q 474 785 508 776 q 462 787 468 786 q 450 788 456 788 q 450 788 450 788 q 450 788 450 788 q 449 788 449 788 q 449 788 449 788 q 362 742 389 786 q 329 646 335 699 q 328 633 328 639 q 328 619 328 626 q 328 444 328 532 q 328 271 328 357 q 316 178 328 222 q 282 97 304 133 q 354 65 318 82 q 426 31 390 47 q 435 26 431 28 q 446 21 440 24 q 561 -33 503 -6 q 681 -82 619 -60 q 772 -109 728 -99 q 851 -119 815 -119 q 924 -105 892 -119 q 974 -56 956 -90 q 980 -44 976 -50 q 985 -32 983 -39 l 1018 -46 l 1018 -46 m 197 88 q 187 91 193 89 q 174 94 181 93 q 152 101 164 99 q 128 106 140 103 q 116 106 122 106 q 104 107 110 107 q 69 101 85 107 q 46 78 53 94 q 44 73 44 75 q 43 68 43 71 q 42 63 42 65 q 42 58 42 61 q 56 28 42 40 q 90 17 69 17 q 153 37 126 17 q 197 88 181 57 l 197 88 z "},"M":{"ha":974,"x_min":1,"x_max":951,"o":"m 951 0 l 651 0 l 651 40 l 753 40 l 753 743 l 492 356 q 528 276 511 321 q 553 186 544 232 q 557 156 556 171 q 558 128 558 142 q 555 88 558 107 q 544 49 551 68 q 508 0 533 17 q 456 -19 483 -17 q 452 -19 454 -19 q 449 -19 450 -19 q 405 -10 426 -19 q 368 22 383 0 q 344 68 351 44 q 338 117 338 92 q 338 131 338 124 q 339 144 339 138 q 365 228 346 188 q 407 301 385 268 l 140 726 l 140 40 l 236 40 l 236 0 l 1 0 l 1 40 l 100 40 l 100 768 l 1 768 l 1 808 l 211 808 l 469 394 l 749 808 l 951 808 l 951 768 l 856 768 l 856 40 l 951 40 l 951 0 l 951 0 m 489 44 q 494 63 492 53 q 496 83 496 74 q 493 113 496 97 q 485 144 490 129 q 472 183 479 164 q 456 218 464 201 q 442 243 449 232 q 431 264 436 254 q 401 213 415 242 q 382 154 388 183 q 379 135 381 144 q 378 117 378 126 q 383 80 378 99 q 400 46 389 61 q 423 27 408 35 q 453 19 438 19 q 474 25 464 19 q 489 44 483 31 l 489 44 z "},"N":{"ha":964,"x_min":8,"x_max":1179,"o":"m 1174 932 q 1178 915 1176 924 q 1179 900 1179 907 q 1150 837 1179 861 q 1081 813 1121 813 q 1080 813 1081 813 q 1079 813 1079 813 q 1078 813 1079 813 q 1078 813 1078 813 q 1069 814 1074 813 q 1061 817 1065 815 q 1025 840 1042 824 q 1008 876 1008 857 q 1010 889 1008 883 q 1017 900 1013 894 q 1033 914 1024 910 q 1051 918 1042 918 q 1058 917 1054 918 q 1064 917 1061 917 q 1100 897 1083 911 q 1121 864 1117 882 q 1135 883 1131 872 q 1139 903 1139 893 q 1139 906 1139 904 q 1139 908 1139 907 q 1125 940 1136 925 q 1097 961 1114 954 q 1080 966 1089 964 q 1060 968 1071 968 q 1043 967 1051 968 q 1026 963 1035 965 q 947 891 969 944 q 919 778 925 838 q 916 720 917 749 q 915 667 915 692 q 915 660 915 664 q 915 651 915 656 l 915 -1 l 883 -1 l 510 682 q 510 594 510 638 q 510 506 510 550 q 510 417 510 461 q 510 329 510 374 q 509 310 510 319 q 508 290 508 300 q 424 74 497 172 q 219 -24 350 -24 q 73 26 138 -24 q 8 163 8 75 q 49 264 8 226 q 136 307 89 301 q 146 308 142 308 q 154 308 150 308 q 229 282 196 308 q 267 199 263 256 q 249 144 267 161 q 210 126 232 126 q 208 126 208 126 q 206 126 207 126 q 167 146 185 128 q 147 193 149 164 q 147 195 147 194 q 147 197 147 196 q 160 227 147 217 q 188 238 172 238 q 204 235 196 238 q 219 226 213 232 q 192 260 210 250 q 154 271 174 271 q 148 271 151 271 q 140 269 144 271 q 77 234 106 264 q 49 163 49 204 q 101 53 49 92 q 219 15 154 15 q 391 97 329 15 q 467 278 453 179 q 469 303 468 290 q 469 329 469 317 l 469 767 l 349 767 l 349 807 l 558 807 l 564 796 l 875 226 l 875 651 q 875 653 875 653 q 875 656 875 654 q 876 713 875 682 q 879 775 876 744 q 914 912 886 847 q 1015 1000 942 976 q 1039 1006 1026 1004 q 1064 1008 1051 1008 q 1131 989 1100 1007 q 1174 932 1161 971 l 1174 932 z "},"O":{"ha":782,"x_min":1,"x_max":754,"o":"m 754 406 q 649 120 754 249 q 378 -8 544 -8 q 106 120 211 -8 q 1 406 1 249 q 106 692 1 563 q 378 821 210 821 q 649 692 544 821 q 754 406 754 564 l 754 406 m 567 138 q 628 265 607 194 q 647 407 649 335 q 647 415 647 411 q 647 424 647 419 q 625 556 644 490 q 567 674 606 621 q 482 753 531 724 q 378 782 433 782 q 274 753 322 782 q 189 674 225 724 q 128 548 149 618 q 108 404 107 478 q 108 396 108 400 q 108 388 108 392 q 131 256 111 321 q 189 138 150 190 q 278 58 229 85 q 378 31 326 31 q 478 58 429 31 q 567 138 528 85 l 567 138 z "},"P":{"ha":674,"x_min":4,"x_max":657,"o":"m 657 576 q 581 410 657 463 q 406 357 504 357 q 387 358 396 357 q 369 358 378 358 q 351 361 360 360 q 332 364 342 363 l 332 242 q 398 250 365 242 q 460 275 431 258 l 479 240 q 408 212 446 222 q 332 201 371 201 l 332 40 l 428 40 l 428 0 l 128 0 l 128 40 l 228 40 l 228 218 q 68 335 132 251 q 4 522 4 418 q 97 750 4 658 q 325 843 189 842 q 381 905 350 876 q 447 956 413 933 l 468 922 q 440 897 454 913 q 415 864 426 881 q 406 851 410 858 q 397 839 401 844 q 586 765 515 828 q 657 576 657 701 l 657 576 m 297 801 q 110 706 175 789 q 46 524 46 622 q 90 370 46 443 q 228 261 135 297 l 228 468 q 241 641 228 556 q 297 801 254 726 l 297 801 m 539 526 q 544 559 542 543 q 546 590 546 575 q 503 725 546 668 q 371 796 460 782 q 337 683 344 744 q 329 557 329 621 q 330 519 329 538 q 331 481 331 500 q 331 444 331 463 q 332 408 332 425 q 359 406 346 407 q 385 404 372 404 q 483 431 442 404 q 539 526 525 458 l 539 526 z "},"Q":{"ha":786,"x_min":3,"x_max":1211,"o":"m 1211 -103 q 1211 -108 1211 -104 q 1211 -115 1211 -111 q 1160 -254 1211 -212 q 1033 -296 1108 -296 q 974 -291 1004 -296 q 911 -275 943 -286 q 770 -215 838 -251 q 636 -139 703 -178 q 633 -137 635 -139 q 629 -135 632 -136 q 531 -78 581 -106 q 428 -26 481 -50 q 408 -19 418 -22 q 386 -15 397 -17 q 376 -15 381 -15 q 365 -14 371 -14 q 363 -14 364 -14 q 361 -14 363 -14 q 244 -58 297 -15 q 192 -167 192 -100 q 192 -167 192 -167 q 192 -169 192 -168 q 192 -172 192 -171 q 192 -172 192 -172 l 153 -176 q 153 -169 153 -172 q 153 -162 153 -165 q 188 -60 153 -106 q 275 7 224 -14 q 76 161 149 47 q 3 406 3 275 q 106 692 3 563 q 378 821 210 821 q 650 692 546 821 q 754 406 754 564 q 677 154 754 271 q 465 1 600 38 q 550 -33 508 -14 q 632 -72 592 -51 q 636 -73 635 -72 q 639 -75 638 -74 q 761 -131 700 -103 q 886 -178 822 -158 q 959 -196 924 -189 q 1025 -203 994 -203 q 1115 -178 1076 -203 q 1172 -96 1154 -154 l 1211 -103 l 1211 -103 m 649 406 q 645 463 649 433 q 633 524 642 493 q 547 701 610 621 q 378 782 483 782 q 210 701 274 782 q 124 524 147 621 q 112 463 115 493 q 108 406 108 433 q 113 347 108 378 q 124 286 117 317 q 211 110 149 190 q 378 31 274 31 q 545 110 482 31 q 633 286 608 190 q 644 347 640 317 q 649 406 649 378 l 649 406 z "},"R":{"ha":782,"x_min":4,"x_max":1007,"o":"m 1007 -28 q 952 -138 1001 -93 q 838 -182 903 -183 q 831 -182 835 -182 q 825 -182 828 -182 q 729 -149 774 -178 q 658 -75 685 -119 q 618 -6 639 -40 q 576 63 597 28 q 494 202 535 132 q 417 344 453 272 q 393 369 410 358 q 358 388 376 381 q 339 392 349 390 q 321 394 329 394 q 320 394 321 394 q 319 394 319 394 q 319 394 319 394 q 318 394 318 394 l 318 242 q 335 242 328 242 q 347 243 343 243 q 357 244 353 243 q 364 244 361 244 l 378 207 q 355 204 367 206 q 332 203 343 203 q 328 203 331 203 q 325 203 326 203 q 322 203 324 203 q 318 203 319 203 l 318 40 l 414 40 l 414 0 l 114 0 l 114 40 l 214 40 l 214 225 q 65 347 125 263 q 4 529 4 432 q 92 749 4 661 q 310 842 181 838 q 366 905 335 876 q 433 956 397 933 l 454 922 q 428 898 440 913 q 403 868 415 883 q 393 854 399 861 q 383 840 388 847 q 560 769 492 829 q 629 592 629 710 q 583 473 629 515 q 471 411 538 431 q 506 383 490 400 q 533 347 522 367 q 648 151 590 249 q 761 -44 706 53 q 765 -51 763 -47 q 769 -57 767 -54 q 806 -101 785 -81 q 853 -128 826 -121 q 863 -130 858 -129 q 872 -131 868 -131 q 932 -102 907 -131 q 964 -40 957 -74 q 966 -32 965 -36 q 967 -24 967 -28 l 1007 -28 l 1007 -28 m 282 800 q 104 707 164 785 q 46 535 44 629 q 46 530 46 532 q 46 526 46 528 q 90 380 49 450 q 214 269 132 310 l 214 481 q 227 647 214 565 q 282 800 240 729 l 282 800 m 517 607 q 473 733 517 685 q 356 794 429 781 q 325 694 333 749 q 317 586 317 640 q 317 576 317 581 q 317 565 317 571 q 317 552 317 558 q 317 539 317 546 q 317 518 317 528 q 318 499 317 508 q 318 466 318 482 q 318 435 318 450 q 463 472 410 435 q 517 607 517 510 l 517 607 z "},"S":{"ha":547,"x_min":3,"x_max":515,"o":"m 515 185 q 438 38 515 86 q 269 -12 361 -10 q 262 -12 265 -12 q 254 -12 258 -12 q 183 -6 218 -12 q 118 14 147 0 q 38 85 69 36 q 3 189 6 135 q 3 195 3 192 q 3 201 3 199 q 11 254 3 229 q 38 301 19 279 q 81 336 57 325 q 132 347 106 347 q 194 326 165 346 q 229 264 222 306 q 231 256 231 260 q 231 249 231 251 q 210 191 231 215 q 160 168 189 167 q 149 169 154 168 q 140 171 144 169 q 130 176 135 174 q 119 182 125 178 q 97 206 104 193 q 90 231 90 218 q 103 260 90 249 q 135 272 115 272 q 154 269 144 272 q 174 258 164 265 q 183 251 179 256 q 190 243 188 247 q 190 244 190 243 q 190 246 190 244 q 190 248 190 247 q 190 249 190 249 q 172 292 190 278 q 131 307 154 307 q 125 307 128 307 q 119 306 122 307 q 92 297 106 304 q 68 276 79 289 q 48 240 54 260 q 42 200 42 221 q 42 194 42 197 q 42 188 42 190 q 72 106 46 144 q 135 50 97 68 q 190 31 161 38 q 250 25 219 25 q 363 58 313 25 q 413 167 413 90 q 364 294 413 240 q 257 399 315 349 q 253 402 256 400 q 249 406 251 404 q 136 517 186 458 q 86 660 86 576 q 146 790 86 746 q 279 835 206 835 q 287 835 283 835 q 294 835 290 835 q 360 820 328 832 q 419 786 393 808 l 419 813 l 460 813 l 460 600 l 419 600 l 419 726 q 371 772 401 756 q 307 790 340 788 q 299 792 303 792 q 292 792 296 792 q 215 766 249 792 q 181 685 181 740 q 210 596 181 632 q 275 528 239 560 q 278 524 276 526 q 282 521 279 522 q 298 506 290 514 q 314 490 306 499 q 340 463 326 476 q 368 436 354 450 q 371 434 369 435 q 374 432 372 433 q 471 324 426 381 q 515 185 515 268 l 515 185 z "},"T":{"ha":706,"x_min":3,"x_max":713,"o":"m 713 876 q 713 870 713 874 q 713 864 713 867 q 681 775 713 800 q 597 744 650 750 q 590 744 593 744 q 583 744 586 744 q 577 743 581 743 q 569 743 574 743 q 531 746 550 744 q 492 749 511 747 q 472 750 482 749 q 453 751 463 751 l 453 40 l 550 40 l 550 0 l 250 0 l 250 40 l 350 40 l 350 760 q 338 760 344 760 q 326 761 332 761 q 315 763 321 763 q 303 763 308 763 q 297 763 300 763 q 292 764 294 763 q 285 764 288 764 q 279 764 282 764 q 254 763 267 764 q 229 760 242 763 q 100 708 158 750 q 42 589 42 665 q 42 587 42 588 q 42 585 42 586 q 74 490 43 533 q 163 446 106 446 q 176 448 169 446 q 188 453 182 450 q 158 472 172 457 q 142 504 144 488 q 140 508 140 506 q 140 513 140 510 q 142 526 140 519 q 149 538 144 532 q 163 548 156 544 q 181 551 171 551 q 187 551 183 551 q 193 549 190 550 q 206 544 200 547 q 218 536 213 542 q 238 511 232 525 q 244 481 244 497 q 227 434 244 453 q 182 408 210 415 q 172 406 176 407 q 160 406 167 406 q 154 406 157 406 q 149 407 151 406 q 94 424 121 410 q 47 460 67 439 q 16 512 26 483 q 3 569 6 540 q 3 577 3 574 q 3 585 3 581 q 3 603 3 594 q 6 619 4 611 q 89 754 19 706 q 239 817 158 803 q 272 821 256 819 q 304 822 289 822 q 390 822 347 822 q 476 821 433 822 q 514 819 496 819 q 550 818 532 818 q 576 819 564 818 q 600 821 589 819 q 652 842 632 825 q 672 894 672 858 q 672 903 672 899 q 671 914 672 908 l 711 919 q 712 912 711 915 q 713 906 713 908 q 713 899 713 903 q 713 893 713 896 q 713 885 713 889 q 713 876 713 881 l 713 876 z "},"U":{"ha":943,"x_min":6,"x_max":922,"o":"m 922 768 l 824 768 q 824 495 824 632 q 824 222 824 358 q 749 63 824 125 q 585 -10 674 0 q 580 -11 582 -11 q 576 -11 578 -11 q 569 -12 572 -11 q 561 -12 565 -12 q 553 -12 557 -12 q 546 -12 550 -12 q 351 57 432 -12 q 269 246 269 126 q 83 347 161 265 q 6 535 6 429 q 12 588 6 561 q 29 640 18 614 q 141 765 65 721 q 301 808 217 808 q 424 808 363 808 q 546 808 485 808 l 546 768 l 372 768 l 372 285 q 522 360 463 297 q 581 507 581 422 q 581 522 581 514 q 579 536 581 529 l 619 547 q 620 539 619 543 q 621 531 621 535 q 622 521 622 525 q 622 513 622 517 q 550 335 621 411 q 372 244 479 260 q 381 152 372 193 q 433 74 389 111 q 495 40 461 51 q 564 29 529 29 q 567 29 565 29 q 572 29 569 29 q 717 85 651 33 q 783 222 783 138 q 783 495 783 358 q 783 768 783 632 l 701 768 l 701 808 l 922 808 l 922 768 l 922 768 m 269 288 l 269 767 q 110 694 175 758 q 46 540 46 629 q 51 494 46 518 q 68 444 57 469 q 151 342 96 383 q 269 288 206 301 l 269 288 z "},"V":{"ha":708,"x_min":1,"x_max":685,"o":"m 649 486 l 383 -29 l 82 768 l 1 768 l 1 808 l 258 808 l 258 768 l 196 768 l 431 147 q 478 236 456 192 q 522 325 500 281 q 567 415 544 369 q 614 504 589 460 q 638 565 629 532 q 646 632 646 597 q 632 712 646 674 q 586 776 618 750 q 533 806 561 796 q 474 815 504 815 q 406 802 439 815 q 349 761 374 789 q 332 737 338 750 q 325 711 326 724 q 324 703 324 707 q 324 697 324 700 q 326 697 325 697 q 328 699 326 697 q 331 699 329 699 q 333 699 332 699 q 372 680 354 697 q 396 642 390 663 q 397 638 396 640 q 397 632 397 635 q 397 630 397 631 q 397 626 397 629 q 385 597 397 608 q 357 585 374 585 q 348 586 353 585 q 338 589 343 588 l 336 590 q 306 615 318 597 q 292 653 293 633 q 285 676 288 664 q 283 699 283 688 q 334 803 283 760 q 446 854 385 846 q 453 855 450 854 q 461 856 457 856 q 467 856 464 856 q 474 856 471 856 q 545 844 510 856 q 611 808 581 832 q 667 731 650 778 q 685 635 685 685 q 675 557 685 596 q 649 486 665 518 l 649 486 z "},"W":{"ha":1117,"x_min":6,"x_max":1100,"o":"m 1100 768 l 1004 768 l 776 -29 l 554 442 l 351 -36 l 110 768 l 6 768 l 6 808 l 306 808 l 306 768 l 217 768 l 401 183 l 531 489 q 483 610 504 549 q 463 738 463 672 q 463 755 463 746 q 465 772 464 764 q 496 857 471 818 q 574 896 521 896 q 612 883 593 894 q 643 850 631 872 q 663 806 657 828 q 668 760 668 783 q 655 683 668 721 q 625 608 642 646 q 617 590 621 600 q 610 572 614 581 l 796 169 l 963 768 l 865 768 l 865 808 l 1100 808 l 1100 768 l 1100 768 m 610 829 q 592 849 601 842 q 572 856 583 856 q 550 840 557 854 q 543 806 543 826 q 545 774 543 790 q 551 739 547 757 q 558 712 554 725 q 565 686 561 699 q 580 641 574 660 q 588 621 586 622 q 590 624 589 622 q 592 629 590 626 q 610 674 601 650 q 624 721 618 697 q 626 741 625 731 q 628 761 628 751 q 624 796 628 779 q 610 829 619 813 l 610 829 z "},"X":{"ha":949,"x_min":1,"x_max":931,"o":"m 931 0 l 631 0 l 631 40 l 710 40 l 536 353 q 449 219 493 286 q 363 86 406 153 q 292 18 335 43 q 204 -12 250 -7 q 192 -13 199 -12 q 179 -14 186 -14 q 83 13 128 -14 q 14 100 38 40 q 5 137 8 118 q 1 174 1 156 q 14 240 1 208 q 53 297 26 272 q 94 324 72 315 q 138 331 115 332 q 230 294 189 331 q 271 203 271 258 q 271 196 271 200 q 269 188 271 192 q 249 142 267 158 q 207 125 231 125 q 199 126 203 125 q 190 128 194 126 q 174 137 182 131 q 157 151 165 143 q 143 174 147 163 q 139 196 139 186 q 152 226 140 215 q 181 236 164 238 q 189 235 185 236 q 197 233 193 235 q 215 224 206 231 q 231 207 224 218 q 199 267 228 243 q 138 292 171 292 q 107 286 122 292 q 79 268 92 281 q 50 225 60 250 q 40 172 40 200 q 40 169 40 171 q 40 164 40 167 q 80 69 43 113 q 174 25 117 25 q 263 46 222 25 q 329 108 303 67 q 421 250 375 179 q 514 393 467 321 l 306 768 l 207 768 l 207 808 l 506 808 l 506 768 l 424 768 l 578 490 l 757 768 l 676 768 l 676 808 l 888 808 l 888 768 l 804 768 l 599 451 l 825 40 l 931 40 l 931 0 l 931 0 z "},"Y":{"ha":732,"x_min":-4,"x_max":713,"o":"m 686 456 q 656 365 674 411 q 617 272 639 318 q 488 49 564 157 q 326 -136 413 -60 q 318 -144 322 -140 q 308 -150 314 -147 q 251 -190 282 -171 q 188 -217 219 -208 q 176 -219 182 -218 q 163 -221 169 -221 q 157 -221 160 -221 q 151 -221 154 -221 q 138 -220 144 -221 q 125 -219 132 -219 q 37 -185 76 -214 q -3 -104 -3 -157 q -3 -103 -3 -104 q -3 -103 -3 -103 q -3 -102 -3 -103 q -3 -101 -3 -101 q 17 -45 -1 -62 q 58 -25 35 -28 q 66 -24 63 -24 q 74 -24 69 -24 q 101 -27 89 -24 q 119 -36 114 -31 q 140 -59 131 -46 q 151 -87 149 -72 q 151 -92 151 -89 q 151 -96 151 -94 q 148 -114 151 -106 q 136 -129 144 -122 q 125 -137 131 -135 q 113 -137 119 -139 q 108 -137 110 -137 q 104 -136 106 -137 q 74 -120 88 -133 q 51 -92 60 -107 q 47 -85 49 -89 q 44 -76 46 -81 q 38 -89 40 -82 q 36 -104 36 -96 q 37 -112 36 -108 q 39 -121 38 -117 q 72 -163 46 -144 q 149 -181 99 -182 q 155 -181 151 -181 q 161 -181 158 -181 q 178 -178 169 -181 q 196 -172 188 -176 q 236 -153 217 -165 q 274 -126 256 -140 q 288 -116 281 -121 q 300 -106 294 -111 q 337 -72 319 -90 q 372 -35 354 -54 l 103 768 l -4 768 l -4 808 l 296 808 l 296 768 l 214 768 l 450 61 q 521 172 488 114 q 582 289 554 231 q 619 378 603 333 q 649 465 636 422 q 660 515 656 489 q 669 569 665 542 q 672 597 671 583 q 672 624 672 611 q 640 749 672 696 q 519 803 608 803 q 433 765 468 803 q 399 681 399 726 q 399 678 399 679 q 399 676 399 678 q 404 640 399 658 q 424 607 410 622 l 393 581 q 369 619 378 599 q 360 660 361 639 q 358 668 358 664 q 358 676 358 672 q 404 791 358 739 q 521 843 450 843 q 672 776 631 843 q 711 622 713 710 q 710 594 711 608 q 708 565 710 581 q 700 510 706 538 q 686 456 694 482 l 686 456 z "},"Z":{"ha":863,"x_min":1,"x_max":844,"o":"m 804 150 q 783 235 804 194 q 725 301 761 275 l 754 335 q 818 258 794 304 q 844 164 842 213 q 844 160 844 163 q 844 154 844 157 q 831 83 844 118 q 785 19 817 47 q 727 -13 758 -3 q 664 -24 696 -24 q 619 -19 642 -24 q 575 -4 596 -14 q 525 23 551 6 q 468 58 499 40 q 453 69 461 64 q 438 78 444 74 q 389 108 414 93 q 338 136 364 122 q 323 109 331 122 q 308 82 315 96 q 244 14 286 42 q 154 -19 201 -14 q 145 -21 150 -21 q 135 -21 140 -21 q 85 -13 110 -21 q 42 13 61 -6 q 12 54 22 31 q 1 104 1 78 q 4 127 1 115 q 11 150 7 139 q 73 209 29 193 q 164 226 117 225 q 168 226 167 226 q 171 226 169 226 q 178 226 175 226 q 185 226 182 226 q 228 222 207 225 q 265 215 249 219 l 568 768 l 182 768 l 182 615 l 142 615 l 142 808 l 701 808 l 358 175 q 394 155 376 165 q 429 135 413 144 q 463 113 446 124 q 494 93 479 103 q 511 82 503 88 q 529 71 519 76 q 599 32 563 50 q 675 15 636 14 q 683 15 679 15 q 689 15 686 15 q 773 60 742 21 q 804 150 804 99 l 804 150 m 246 179 q 210 184 231 182 q 169 186 190 186 q 166 186 168 186 q 161 186 164 186 q 79 167 117 185 q 42 101 42 150 q 63 48 42 72 q 114 19 85 24 q 116 19 115 19 q 118 19 117 19 q 121 19 119 19 q 124 19 122 19 q 165 38 151 19 q 190 76 179 56 q 192 80 192 78 q 193 83 193 82 q 197 90 196 86 q 200 96 199 93 q 223 138 211 117 q 246 179 235 158 l 246 179 z "},"[":{"ha":694,"x_min":0,"x_max":0,"o":""},"\\":{"ha":378,"x_min":13,"x_max":346,"o":"m 13 921 l 79 921 l 346 -250 l 281 -250 l 13 921 l 13 921 z "},"]":{"ha":694,"x_min":0,"x_max":0,"o":""},"^":{"ha":694,"x_min":0,"x_max":0,"o":""},"_":{"ha":694,"x_min":0,"x_max":0,"o":""},"`":{"ha":304,"x_min":63,"x_max":239,"o":"m 239 883 l 217 850 l 63 953 l 85 986 l 239 883 l 239 883 z "},"a":{"ha":393,"x_min":7,"x_max":381,"o":"m 381 83 q 355 24 381 46 q 297 1 329 1 q 263 10 279 1 q 233 36 246 18 q 192 9 214 18 q 146 1 169 0 q 93 13 119 1 q 47 47 67 25 q 17 99 28 71 q 8 158 7 128 q 18 215 8 188 q 47 265 28 243 q 93 301 67 289 q 146 313 119 313 q 183 306 165 313 q 218 289 201 300 l 218 304 q 266 304 242 304 q 313 304 290 304 q 313 179 313 242 q 313 54 313 117 q 315 49 313 51 q 319 47 317 47 q 322 48 321 47 q 324 49 322 49 q 337 64 332 54 q 342 83 342 74 l 381 83 l 381 83 m 218 79 l 218 235 q 201 252 211 244 q 181 265 192 260 q 175 267 178 267 q 169 268 172 268 q 147 258 157 267 q 131 239 138 250 q 116 200 121 221 q 111 156 111 179 q 116 113 111 133 q 131 75 121 92 q 150 54 140 61 q 169 47 160 47 q 194 56 182 47 q 218 79 207 65 l 218 79 z "},"b":{"ha":344,"x_min":1,"x_max":325,"o":"m 325 157 q 274 41 325 81 q 161 1 222 1 q 51 42 101 3 q 1 160 1 81 l 1 711 q 32 782 1 756 q 99 808 63 808 q 134 802 117 808 q 165 781 151 796 l 138 751 q 120 764 129 760 q 100 768 111 768 q 98 768 99 768 q 96 768 97 768 l 96 299 q 103 301 100 300 q 110 304 106 303 q 124 308 117 306 q 138 310 131 310 q 140 311 139 311 q 140 311 140 311 q 152 313 147 313 q 163 313 157 313 q 276 267 228 313 q 325 157 325 222 l 325 157 m 188 67 q 206 110 200 86 q 213 157 213 133 q 206 204 213 181 q 188 246 200 228 q 172 264 181 257 q 150 271 163 271 q 149 271 150 271 q 149 271 149 271 q 148 271 149 271 q 147 271 147 271 q 120 265 133 269 q 96 253 107 260 l 96 99 q 107 65 96 81 q 136 43 118 50 q 139 43 138 43 q 142 43 140 43 q 144 42 143 42 q 147 42 146 42 q 149 42 149 42 q 150 42 150 42 q 172 49 163 42 q 188 67 181 57 l 188 67 z "},"c":{"ha":294,"x_min":3,"x_max":281,"o":"m 281 64 q 232 16 258 32 q 165 0 206 0 q 48 49 93 0 q 3 158 3 99 q 3 167 3 163 q 4 178 3 172 q 19 224 7 201 q 51 267 31 247 q 106 301 75 290 q 167 313 136 313 q 175 313 171 313 q 185 311 179 313 q 193 310 189 311 q 201 308 197 310 q 213 306 207 307 q 225 301 219 304 q 240 295 232 299 q 253 288 247 292 q 268 273 263 281 q 276 257 274 265 q 278 249 278 253 q 279 242 279 246 q 266 210 279 224 q 233 197 253 197 q 222 199 228 197 q 208 203 215 200 q 202 206 206 204 q 196 211 199 208 q 177 231 185 218 q 169 258 169 244 q 169 264 169 261 q 171 269 169 267 q 131 230 144 263 q 117 160 118 197 q 117 158 117 160 q 117 156 117 157 q 133 77 117 113 q 182 42 150 42 q 198 44 190 42 q 213 50 206 47 q 229 65 221 56 q 247 86 238 74 l 281 64 l 281 64 z "},"d":{"ha":390,"x_min":0,"x_max":371,"o":"m 371 781 l 343 751 q 326 763 336 758 q 306 768 317 768 q 303 768 304 768 q 301 768 303 768 q 301 412 301 590 q 301 54 301 233 q 306 48 301 47 q 317 53 311 49 q 325 64 321 57 q 331 78 329 71 q 331 81 331 79 q 331 83 331 82 l 369 83 q 344 24 369 46 q 286 1 318 1 q 281 1 283 1 q 275 3 278 1 q 248 12 261 4 q 224 33 235 19 q 183 8 204 15 q 139 0 161 0 q 42 47 85 1 q 0 157 0 93 q 42 266 0 218 q 139 313 83 314 q 156 311 147 313 q 174 308 164 310 q 190 301 182 306 q 207 292 199 297 q 207 502 207 397 q 207 711 207 607 q 238 782 207 756 q 304 808 268 808 q 340 802 322 808 q 371 781 357 796 l 371 781 m 207 74 l 207 239 q 183 260 194 254 q 161 265 172 267 q 122 238 138 265 q 104 176 107 210 q 103 166 103 171 q 103 157 103 161 q 108 111 103 132 q 124 75 114 90 q 124 73 124 74 q 126 71 125 72 q 142 54 132 63 q 163 46 151 46 q 165 46 164 46 q 168 47 167 46 q 171 48 169 47 q 174 49 172 49 q 192 60 183 53 q 207 74 200 67 l 207 74 z "},"e":{"ha":307,"x_min":6,"x_max":296,"o":"m 296 63 q 236 16 271 32 q 165 0 201 0 q 157 0 161 0 q 149 1 153 0 q 99 15 124 4 q 54 46 75 26 q 17 98 29 69 q 6 156 6 126 q 52 264 7 217 q 169 313 97 311 q 172 313 171 313 q 174 313 172 313 q 240 294 210 311 q 275 239 269 278 q 275 236 275 238 q 275 233 275 235 q 275 231 275 232 q 275 228 275 229 q 244 160 275 186 q 174 121 213 135 q 151 113 163 117 q 131 107 140 110 l 126 106 q 130 94 128 100 q 133 83 132 89 q 151 53 140 67 q 179 42 161 40 q 181 42 181 42 q 183 42 182 42 q 228 57 207 44 q 265 88 250 69 l 296 63 l 296 63 m 235 235 q 221 260 233 251 q 194 269 208 268 q 188 271 192 271 q 182 271 185 271 q 146 249 160 271 q 126 200 132 226 q 121 173 122 186 q 119 150 119 160 q 119 148 119 149 q 119 146 119 147 q 142 152 129 149 q 167 161 154 156 q 214 188 193 171 q 235 229 235 204 q 235 232 235 231 q 235 235 235 233 l 235 235 z "},"f":{"ha":196,"x_min":0,"x_max":210,"o":"m 210 781 l 182 751 q 165 763 175 758 q 144 768 156 768 q 142 768 143 768 q 140 768 142 768 l 142 313 l 189 313 l 189 272 l 142 272 l 142 -312 l 46 -312 l 46 272 l 0 272 l 0 313 l 46 313 q 46 513 46 413 q 46 711 46 613 q 76 782 46 756 q 143 808 107 808 q 178 802 161 808 q 210 781 196 796 l 210 781 z "},"g":{"ha":322,"x_min":-1,"x_max":300,"o":"m 300 -214 q 269 -283 300 -257 q 203 -310 239 -310 q 168 -303 185 -310 q 136 -282 151 -297 l 164 -254 q 181 -265 171 -260 q 201 -269 192 -269 q 203 -269 203 -269 q 206 -269 204 -269 l 206 22 q 170 6 188 11 q 135 0 153 0 q 39 47 79 0 q -1 157 -1 94 q 39 266 -1 218 q 135 314 79 314 q 170 308 153 314 q 206 290 188 301 q 206 296 206 293 q 206 301 206 299 q 206 307 206 304 q 206 313 206 310 l 300 313 l 300 -214 l 300 -214 m 206 75 l 206 238 q 183 259 194 251 q 158 267 171 267 q 140 260 149 267 q 121 239 131 254 q 106 200 111 221 q 100 156 100 179 q 106 113 100 133 q 121 75 111 92 q 141 53 131 60 q 161 47 151 46 q 184 55 172 47 q 206 75 196 63 l 206 75 z "},"h":{"ha":378,"x_min":0,"x_max":363,"o":"m 363 83 q 337 23 363 43 q 279 3 311 3 q 224 23 249 3 q 199 83 199 43 l 199 247 q 191 263 199 258 q 174 268 183 268 q 170 268 172 268 q 165 267 168 268 q 158 265 164 268 q 146 257 153 261 q 144 256 144 256 q 143 254 144 256 q 133 248 138 251 q 126 243 128 244 q 104 215 113 231 q 96 182 96 199 l 96 0 l 0 0 l 0 711 q 31 782 0 756 q 99 808 61 808 q 134 802 117 808 q 165 781 151 796 l 136 751 q 120 763 129 758 q 100 768 111 768 q 98 768 99 768 q 96 768 97 768 l 96 268 q 142 300 115 288 q 197 313 169 313 q 199 313 199 313 q 201 313 200 313 q 266 288 236 311 q 296 226 296 265 l 296 50 q 298 49 297 49 q 299 47 299 49 q 308 53 304 47 q 317 65 313 58 q 321 77 319 72 q 322 83 322 82 l 363 83 l 363 83 z "},"i":{"ha":188,"x_min":-6,"x_max":171,"o":"m 171 83 q 147 25 171 49 q 89 1 122 1 q 32 25 56 1 q 8 83 8 49 l 8 304 l 103 304 l 103 54 q 105 49 103 51 q 110 47 107 47 q 112 48 111 47 q 113 49 113 49 q 126 65 121 56 q 131 83 131 74 l 171 83 l 171 83 m 117 483 q 99 440 117 458 q 56 422 81 422 q 12 440 29 422 q -6 483 -6 458 q 12 528 -6 510 q 56 546 29 546 q 99 528 81 546 q 117 483 117 510 l 117 483 z "},"j":{"ha":126,"x_min":-56,"x_max":121,"o":"m 108 -214 q 101 -250 108 -232 q 79 -281 93 -268 q 49 -302 67 -294 q 11 -310 32 -310 q -7 -308 1 -310 q -24 -303 -15 -306 q -41 -294 -33 -299 q -56 -282 -49 -289 l -28 -254 q -18 -260 -22 -257 q -8 -265 -14 -264 q 1 -269 -3 -268 q 11 -269 6 -269 q 13 -269 13 -269 q 13 -269 13 -269 l 13 313 l 108 313 l 108 -214 l 108 -214 m 121 483 q 103 440 121 458 q 58 422 85 422 q 16 440 33 422 q -1 483 -1 458 q 16 528 -1 510 q 58 546 33 546 q 103 528 85 546 q 121 483 121 510 l 121 483 z "},"k":{"ha":371,"x_min":0,"x_max":356,"o":"m 356 83 q 330 23 356 44 q 272 1 304 1 q 231 13 250 1 q 201 47 213 25 q 192 66 197 57 q 181 85 186 75 q 144 138 165 113 q 96 175 122 163 l 96 0 l 0 0 l 0 711 q 31 782 0 756 q 97 808 61 808 q 133 802 115 808 q 164 781 150 796 l 136 751 q 119 763 129 758 q 99 768 110 768 q 97 768 97 768 q 94 768 96 768 l 94 261 q 143 298 115 285 q 200 311 171 311 q 210 310 206 311 q 221 310 215 310 q 242 303 232 307 q 263 293 253 300 q 284 272 275 286 q 296 243 293 258 q 296 240 296 242 q 296 236 296 238 q 296 232 296 235 q 294 228 296 229 q 293 219 294 224 q 289 211 292 215 q 274 197 283 201 q 256 192 265 192 q 252 192 254 192 q 249 192 250 192 q 211 214 228 196 q 194 256 194 232 q 195 264 194 260 q 197 272 196 268 q 195 272 196 272 q 193 272 194 272 q 146 257 167 272 q 110 219 125 242 q 226 166 176 211 q 288 53 276 121 q 290 50 289 51 q 293 49 292 49 q 294 47 293 47 q 296 47 296 47 q 306 55 301 49 q 313 68 310 61 q 315 76 314 72 q 315 83 315 81 l 356 83 l 356 83 z "},"l":{"ha":185,"x_min":1,"x_max":167,"o":"m 167 781 l 138 751 q 122 763 132 758 q 101 768 113 768 q 99 768 100 768 q 97 768 99 768 l 97 54 q 99 49 97 51 q 104 47 101 47 q 106 48 106 47 q 107 49 107 49 q 120 65 115 56 q 125 83 125 74 l 165 83 q 141 25 165 49 q 83 1 117 1 q 26 25 50 1 q 1 83 1 49 l 1 711 q 31 780 1 751 q 99 808 60 808 q 135 801 118 808 q 167 781 153 794 l 167 781 z "},"m":{"ha":593,"x_min":6,"x_max":576,"o":"m 576 82 q 552 24 576 47 q 494 0 528 0 q 437 24 461 0 q 413 82 413 47 l 413 247 q 405 263 413 258 q 388 268 397 268 q 384 268 386 268 q 379 267 382 268 q 374 265 379 268 q 360 257 368 261 q 359 256 360 256 q 358 256 358 256 q 347 247 351 251 q 342 243 342 243 q 344 236 343 240 q 344 226 344 232 l 344 0 l 247 0 l 247 247 q 244 262 247 256 q 233 268 240 268 q 231 268 232 268 q 228 267 231 268 q 192 242 208 260 q 168 203 175 225 l 168 0 l 74 0 l 74 260 q 74 260 74 260 q 72 263 74 261 q 70 265 72 264 q 65 267 68 267 q 65 267 65 267 q 64 267 64 267 q 63 265 64 265 q 63 265 63 265 q 49 251 54 260 q 44 231 44 242 l 6 231 q 32 291 6 269 q 89 313 58 313 q 129 301 110 313 q 160 267 149 290 q 205 299 179 286 q 257 313 231 313 q 294 305 276 313 q 325 281 311 297 q 359 301 340 293 q 399 311 378 310 q 405 313 401 313 q 411 313 408 313 q 478 290 447 313 q 508 226 508 267 l 508 53 q 510 48 508 50 q 515 46 513 46 q 517 47 517 46 q 518 47 518 47 q 531 63 526 54 q 536 82 536 71 l 576 82 l 576 82 z "},"n":{"ha":447,"x_min":0,"x_max":429,"o":"m 429 83 q 405 25 429 49 q 347 1 381 1 q 290 25 314 1 q 265 83 265 49 l 265 247 q 258 263 265 258 q 240 268 250 268 q 237 268 239 268 q 232 267 235 268 q 225 265 231 268 q 214 257 219 261 q 212 256 213 257 q 210 254 211 256 q 200 248 204 251 q 194 243 196 244 q 175 221 183 233 q 164 194 167 208 l 164 0 l 68 0 l 68 260 q 68 260 68 260 q 68 263 68 261 q 65 264 67 263 q 64 267 64 265 q 62 267 63 267 q 61 267 61 267 q 60 267 61 267 q 60 267 60 267 q 59 265 60 265 q 58 265 58 265 q 45 251 50 260 q 40 231 40 242 l 0 231 q 25 290 0 268 q 81 313 50 311 q 83 313 82 313 q 85 313 83 313 q 127 301 107 313 q 157 263 147 289 q 185 287 169 276 q 217 303 200 297 q 240 310 228 307 q 265 313 253 313 q 301 306 283 313 q 332 289 318 300 q 354 262 346 278 q 363 226 363 246 l 363 54 q 363 53 363 54 q 363 53 363 53 q 363 49 363 50 q 368 47 364 47 q 378 53 374 47 q 385 67 383 60 q 388 76 388 72 q 389 83 389 81 l 429 83 l 429 83 z "},"o":{"ha":306,"x_min":3,"x_max":281,"o":"m 281 157 q 281 155 281 156 q 281 153 281 154 q 241 48 279 96 q 142 0 203 0 q 42 48 81 0 q 3 153 4 96 q 3 155 3 154 q 3 157 3 156 q 41 264 3 215 q 142 313 79 313 q 242 264 204 313 q 281 157 281 215 l 281 157 m 211 74 q 231 104 224 88 q 239 138 238 121 q 240 146 240 142 q 240 154 240 150 q 217 231 239 197 q 168 263 196 264 q 162 262 165 263 q 156 260 158 261 q 142 252 149 257 q 131 238 136 247 q 117 205 122 225 q 113 157 113 185 q 113 138 113 149 q 115 118 114 128 q 132 72 119 93 q 172 51 144 51 q 194 58 183 51 q 211 74 204 65 l 211 74 z "},"p":{"ha":313,"x_min":0,"x_max":299,"o":"m 258 47 q 213 13 239 25 q 158 1 186 1 q 148 2 153 1 q 138 3 143 3 q 116 10 126 6 q 96 19 106 14 l 96 -311 l 0 -311 l 0 374 q 16 374 8 374 q 32 374 24 374 q 65 374 49 374 q 96 374 81 374 l 96 294 q 112 302 104 299 q 128 308 119 306 q 144 311 136 310 q 160 313 151 313 q 213 301 188 313 q 258 265 239 289 q 288 215 278 243 q 297 156 299 186 q 288 99 297 126 q 258 47 278 71 l 258 47 m 175 75 q 188 107 183 89 q 194 144 193 125 q 194 151 194 147 q 194 157 194 154 q 194 163 194 160 q 194 169 194 167 q 188 207 193 189 q 175 239 183 225 q 174 241 175 240 q 172 243 174 242 q 156 260 165 251 q 135 268 146 268 q 132 268 133 268 q 131 267 131 268 q 128 266 129 267 q 125 265 126 265 q 110 256 117 261 q 96 243 103 250 l 96 69 q 117 53 107 60 q 138 46 128 46 q 156 53 147 46 q 175 75 165 60 l 175 75 z "},"q":{"ha":339,"x_min":0,"x_max":374,"o":"m 374 -283 q 342 -303 360 -297 q 306 -310 325 -310 q 239 -283 269 -310 q 208 -212 208 -257 q 208 -153 208 -183 q 208 -94 208 -124 q 208 -35 208 -65 q 208 22 208 -6 q 174 6 192 11 q 138 0 157 0 q 85 13 111 0 q 40 47 60 25 q 10 99 21 71 q 1 158 0 128 q 11 215 1 188 q 40 265 21 243 q 86 301 60 289 q 139 313 113 313 q 174 307 157 313 q 208 290 192 301 l 208 313 l 304 313 q 304 119 304 217 q 304 -75 304 21 q 304 -172 304 -124 q 304 -269 304 -221 q 306 -269 306 -269 q 308 -269 307 -269 q 328 -265 319 -269 q 344 -253 338 -260 l 374 -283 l 374 -283 m 208 75 l 208 238 q 194 253 201 247 q 178 263 186 260 q 170 266 174 265 q 163 267 167 267 q 143 260 153 267 q 124 239 133 254 q 110 207 115 225 q 103 169 104 189 q 103 163 103 167 q 103 157 103 160 q 103 151 103 154 q 103 144 103 147 q 110 107 104 125 q 124 75 115 89 q 144 53 133 60 q 164 47 154 46 q 187 55 175 47 q 208 75 199 63 l 208 75 z "},"r":{"ha":325,"x_min":4,"x_max":306,"o":"m 294 206 q 281 195 289 199 q 264 192 272 192 q 251 194 257 193 q 238 200 244 196 q 216 221 225 207 q 204 250 207 235 q 204 253 204 251 q 204 257 204 256 q 204 261 204 260 q 206 265 204 263 q 206 269 206 267 q 207 272 207 271 q 205 272 206 272 q 204 272 204 272 q 202 272 203 272 q 200 272 201 272 q 191 272 196 272 q 181 269 186 271 q 170 266 175 268 q 161 261 165 264 q 165 247 164 254 q 167 231 167 239 l 167 0 l 72 0 l 72 260 q 72 260 72 260 q 72 263 72 261 q 69 264 71 263 q 68 267 68 265 q 66 267 67 267 q 65 267 65 267 q 65 267 65 267 q 64 267 64 267 q 63 265 64 265 q 63 265 63 265 q 49 251 54 260 q 44 231 44 242 l 4 231 q 30 290 4 268 q 86 313 56 313 q 113 308 100 313 q 138 293 126 304 q 171 308 154 303 q 206 313 188 313 q 240 308 224 313 q 272 293 257 303 q 294 272 285 286 q 306 243 303 258 q 306 240 306 242 q 306 236 306 238 q 303 220 306 228 q 294 206 301 213 l 294 206 z "},"s":{"ha":268,"x_min":4,"x_max":247,"o":"m 247 88 q 222 33 247 54 q 165 4 196 13 q 147 1 156 3 q 131 0 139 0 l 131 1 q 128 1 129 1 q 126 1 128 1 q 107 3 117 1 q 88 7 97 4 q 36 30 60 14 q 6 72 13 46 q 5 76 6 75 q 4 81 4 78 q 4 84 4 82 q 4 88 4 86 q 15 119 4 106 q 44 133 25 132 q 47 133 46 133 q 49 133 47 133 q 90 113 72 133 q 110 69 108 93 q 110 67 110 68 q 110 65 110 67 q 110 60 110 63 q 108 54 110 57 q 107 49 108 51 q 104 43 106 46 q 116 41 110 42 q 128 42 122 40 q 133 42 131 42 q 136 42 135 42 q 149 44 143 43 q 160 49 156 46 q 164 52 163 50 q 167 56 165 54 q 167 59 167 57 q 168 63 168 61 q 158 78 168 68 q 136 99 149 88 q 131 102 133 100 q 126 106 129 104 q 105 123 115 115 q 89 135 94 131 q 78 143 83 139 q 68 150 74 147 q 29 187 46 168 q 13 229 13 206 q 38 281 13 261 q 93 308 63 301 q 109 312 101 311 q 124 313 117 313 q 138 312 131 313 q 151 311 144 311 q 201 293 178 307 q 232 251 225 279 q 233 248 232 250 q 233 244 233 246 q 233 241 233 243 q 233 238 233 239 q 224 206 233 219 q 194 192 214 193 q 194 192 194 192 q 194 192 194 192 q 193 192 193 192 q 193 192 193 192 q 152 211 169 192 q 133 253 135 231 q 133 255 133 254 q 133 257 133 256 q 133 260 133 258 q 135 264 133 263 q 135 267 135 265 q 136 271 136 269 q 133 271 135 271 q 131 272 132 271 q 128 272 129 272 q 124 272 126 272 q 120 272 122 272 q 115 272 118 272 q 97 266 106 271 q 89 253 89 261 q 99 240 89 249 q 121 221 108 231 q 124 217 122 218 q 129 214 126 215 q 149 199 139 206 q 164 188 158 192 q 222 142 196 165 q 247 88 247 119 l 247 88 z "},"t":{"ha":222,"x_min":1,"x_max":204,"o":"m 204 83 q 180 25 204 49 q 122 1 156 1 q 65 25 89 1 q 40 83 40 49 l 40 272 l 1 272 l 1 313 l 40 313 l 40 546 l 136 546 l 136 313 l 200 313 l 200 272 l 136 272 q 136 218 136 246 q 136 164 136 190 q 136 109 136 136 q 136 54 136 82 q 138 51 136 53 q 142 49 139 49 q 144 47 143 47 q 146 49 144 47 q 159 64 154 54 q 164 83 164 74 l 204 83 l 204 83 z "},"u":{"ha":385,"x_min":3,"x_max":360,"o":"m 360 82 q 334 22 360 44 q 276 0 308 0 q 236 11 256 0 q 206 46 217 22 q 157 13 185 26 q 100 1 129 0 q 65 7 82 1 q 32 25 47 13 q 10 52 18 36 q 3 86 3 68 l 3 313 l 100 313 l 100 65 q 106 52 100 57 q 121 46 113 47 q 122 46 121 46 q 124 46 122 46 q 126 46 125 46 q 129 46 128 46 q 131 47 129 46 q 133 47 132 47 q 169 68 153 54 q 196 100 186 82 l 196 313 l 293 313 l 293 54 q 293 53 293 54 q 293 51 293 53 q 293 51 293 51 q 293 51 293 51 q 293 49 293 50 q 293 49 293 49 q 297 47 296 47 q 299 47 297 46 q 299 47 299 47 q 300 47 300 47 q 301 49 300 49 q 301 49 301 49 q 315 63 311 53 q 319 82 319 72 l 360 82 l 360 82 z "},"v":{"ha":297,"x_min":3,"x_max":267,"o":"m 267 154 q 267 147 267 150 q 267 140 267 143 q 230 44 263 88 q 139 1 197 1 q 135 1 138 1 q 131 1 132 1 q 126 0 128 0 q 121 0 124 0 q 80 6 100 1 q 44 22 60 11 q 15 58 26 35 q 3 117 3 81 l 3 313 l 99 313 l 99 74 q 107 50 99 58 q 132 42 115 42 q 140 42 136 42 q 149 43 144 42 q 172 49 160 44 q 192 63 183 54 q 219 103 211 79 q 226 154 226 128 q 224 188 226 171 q 217 218 221 204 q 206 213 211 214 q 193 211 200 211 q 187 212 190 211 q 181 213 183 213 q 173 215 176 214 q 167 218 169 217 q 143 242 153 226 q 133 276 133 258 q 138 292 135 285 q 146 307 140 300 q 160 317 153 314 q 176 319 168 319 q 181 319 179 319 q 186 318 183 319 q 200 313 193 317 q 213 304 207 310 q 215 301 214 303 q 218 299 217 300 q 220 296 219 297 q 222 293 221 294 q 253 236 240 271 q 267 164 265 201 q 267 159 267 161 q 267 154 267 157 l 267 154 z "},"w":{"ha":481,"x_min":0,"x_max":461,"o":"m 417 293 q 448 235 436 269 q 461 165 460 201 q 461 160 461 163 q 461 154 461 157 q 450 87 461 119 q 413 32 439 54 q 369 8 394 17 q 317 0 344 0 q 254 13 283 0 q 210 54 225 26 q 160 16 190 32 q 97 0 129 0 q 31 24 61 0 q 0 86 0 47 l 0 313 l 96 313 l 96 65 q 103 51 96 56 q 121 46 111 46 q 124 46 122 46 q 126 46 125 46 q 128 47 126 46 q 131 47 129 47 q 142 51 136 47 q 156 58 149 54 q 168 69 163 64 q 179 81 174 75 q 190 95 186 89 q 197 107 194 101 q 197 110 197 108 q 197 113 197 111 q 196 115 196 114 q 196 117 196 115 l 196 313 l 293 313 l 293 74 q 301 50 293 58 q 326 42 310 42 l 331 42 q 364 49 350 43 q 388 63 378 54 q 415 103 407 79 q 421 154 422 128 q 418 188 421 171 q 411 218 415 204 q 406 215 408 217 q 400 213 403 213 q 393 210 396 211 q 388 210 390 210 q 353 225 369 211 q 332 256 338 239 q 331 258 332 257 q 331 260 331 258 q 330 263 331 261 q 329 267 329 265 q 329 270 329 268 q 329 274 329 272 q 340 305 329 292 q 368 319 350 318 q 395 312 383 319 q 417 293 407 304 l 417 293 z "},"x":{"ha":369,"x_min":1,"x_max":349,"o":"m 349 82 q 323 24 349 47 q 265 0 297 0 q 247 3 256 1 q 229 10 238 6 q 207 26 215 17 q 192 49 199 36 q 190 51 190 50 q 188 54 189 53 q 150 20 174 35 q 100 1 126 6 q 92 1 96 1 q 86 1 89 1 q 82 1 85 1 q 78 1 79 1 q 73 2 75 1 q 68 3 71 3 q 66 3 67 3 q 64 4 65 3 q 31 23 46 8 q 17 57 17 38 q 17 59 17 58 q 18 61 17 60 q 18 63 18 63 q 18 65 18 64 q 35 91 22 83 q 61 99 47 99 q 67 99 64 99 q 72 97 69 99 q 107 82 92 94 q 126 51 122 69 q 147 68 138 58 q 163 90 157 78 l 50 256 q 44 244 47 250 q 42 231 42 238 l 1 231 q 27 290 1 267 q 83 313 53 313 q 102 310 93 313 q 121 303 111 308 q 142 288 133 297 q 157 269 150 279 q 160 264 158 267 q 164 258 163 261 q 200 292 178 278 q 246 311 222 307 q 255 313 250 313 q 265 313 260 313 q 275 313 271 313 q 283 311 279 313 q 287 310 285 311 q 290 310 289 310 q 322 289 307 304 q 335 254 336 274 q 335 251 335 253 q 335 247 335 250 q 318 222 331 229 q 290 215 306 215 q 285 215 288 215 q 281 215 283 215 q 259 222 269 217 q 240 235 249 226 q 231 247 235 240 q 225 261 228 254 q 204 245 214 256 q 189 222 194 235 l 300 57 q 305 65 303 61 q 307 74 307 69 q 308 78 308 75 q 308 82 308 81 l 349 82 l 349 82 z "},"y":{"ha":317,"x_min":3,"x_max":286,"o":"m 286 -214 q 258 -281 286 -253 q 189 -310 229 -310 q 153 -303 171 -310 q 121 -282 135 -296 l 150 -254 q 167 -265 157 -260 q 186 -269 176 -269 q 188 -269 188 -269 q 190 -269 189 -269 l 190 33 q 148 10 172 19 q 99 0 124 0 q 64 6 81 0 q 32 25 47 13 q 10 52 18 36 q 3 86 3 68 l 3 313 l 100 313 l 100 65 q 108 51 100 56 q 125 46 115 46 q 128 46 126 46 q 131 46 129 46 q 132 47 131 46 q 135 47 133 47 q 166 65 151 54 q 190 90 181 76 l 190 313 l 286 313 l 286 -214 l 286 -214 z "},"z":{"ha":282,"x_min":-7,"x_max":268,"o":"m 268 86 q 267 80 268 83 q 265 74 267 76 q 240 22 263 43 q 185 1 217 1 q 153 6 168 1 q 124 15 139 11 q 122 17 122 17 q 121 17 121 17 q 99 24 110 21 q 78 29 89 28 q 70 31 74 31 q 64 31 67 31 q 51 28 56 31 q 42 22 46 26 q 36 16 39 19 q 29 8 33 13 l -3 33 l -1 33 q 35 78 15 54 q 75 128 54 103 q 76 129 75 128 q 78 131 76 131 q 107 166 93 149 q 135 200 121 183 q 126 205 131 203 q 119 210 122 207 q 111 214 115 211 q 103 219 107 217 q 98 223 100 221 q 93 226 96 225 q 79 235 86 232 q 67 240 72 239 q 65 240 65 240 q 63 242 64 240 q 60 242 61 242 q 58 242 60 242 q 42 234 49 240 q 32 218 35 228 l -7 228 q 2 260 -3 244 q 18 288 7 275 q 35 302 26 297 q 54 308 44 307 q 63 310 58 310 q 72 311 68 311 q 89 310 81 311 q 106 307 97 308 q 121 301 113 304 q 138 296 129 299 q 143 294 140 294 q 147 293 146 293 q 163 288 156 290 q 176 285 171 286 q 183 283 179 283 q 189 283 186 283 q 201 285 196 283 q 210 293 206 288 q 215 298 213 294 q 221 306 218 301 l 251 279 l 119 119 q 131 113 125 117 q 142 106 136 110 q 147 102 144 104 q 153 99 150 100 q 160 94 157 97 q 168 89 164 92 q 185 78 176 83 q 203 74 194 74 q 206 74 204 74 q 210 75 208 74 q 213 76 211 75 q 217 78 215 76 q 224 86 221 81 q 229 97 228 92 l 268 86 l 268 86 z "},"{":{"ha":694,"x_min":0,"x_max":0,"o":""},"|":{"ha":100,"x_min":18,"x_max":94,"o":"m 94 -417 l 18 -417 l 18 967 l 94 967 l 94 -417 l 94 -417 z "},"}":{"ha":694,"x_min":0,"x_max":0,"o":""},"~":{"ha":694,"x_min":0,"x_max":0,"o":""},"Ä":{"ha":788,"x_min":-214,"x_max":771,"o":"m 771 0 l 472 0 l 472 40 l 574 40 l 574 161 q 560 263 574 214 q 510 358 547 313 q 449 413 483 390 q 378 449 415 436 q 349 351 363 400 q 322 251 335 301 q 283 110 303 181 q 236 -29 263 39 q 283 -42 260 -37 q 331 -46 307 -46 l 331 -86 q 303 -83 317 -85 q 276 -81 289 -82 q 249 -74 263 -78 q 221 -67 235 -71 q 117 -225 179 -164 q -42 -286 54 -286 q -160 -246 -107 -286 q -214 -136 -214 -206 q -180 -51 -214 -86 q -100 -17 -146 -17 q -77 -19 -89 -17 q -54 -28 -65 -22 q -52 -28 -53 -28 q -50 -29 -51 -29 q -22 -55 -35 -37 q -6 -90 -8 -72 q -6 -93 -6 -92 q -6 -96 -6 -94 q -10 -114 -7 -106 q -24 -129 -14 -122 q -37 -135 -31 -133 q -49 -137 -43 -137 q -85 -120 -68 -137 q -110 -82 -103 -103 q -110 -74 -110 -78 q -111 -65 -111 -69 q -111 -63 -111 -64 q -111 -62 -111 -62 q -111 -60 -111 -61 q -111 -58 -111 -60 q -157 -85 -140 -64 q -174 -136 -174 -107 q -136 -214 -174 -186 q -53 -246 -99 -242 q -47 -246 -50 -246 q -42 -246 -44 -246 q 92 -191 39 -246 q 185 -50 146 -136 q 58 63 107 -11 q 8 225 8 138 q 8 238 8 232 q 10 250 8 244 q 104 434 21 365 q 294 503 188 503 q 308 503 301 503 q 324 501 315 503 q 338 500 331 501 q 351 497 344 499 q 364 533 357 515 q 379 571 371 551 q 481 734 417 660 q 650 808 544 808 l 757 808 l 757 768 l 675 768 l 675 40 l 771 40 l 771 0 l 771 0 m 339 458 q 316 462 328 461 q 293 463 304 463 q 130 404 201 463 q 50 247 58 346 q 50 242 50 244 q 50 236 50 239 q 49 229 49 232 q 49 224 49 226 q 92 85 50 149 q 200 -12 133 21 q 247 124 226 54 q 285 265 267 194 q 288 276 286 271 q 290 286 289 281 q 313 372 301 329 q 339 458 325 415 l 339 458 m 572 339 l 572 751 q 465 651 508 722 q 390 486 422 581 q 494 430 447 468 q 572 339 542 392 l 572 339 m 628 861 q 617 835 628 846 q 590 825 606 825 q 565 835 576 825 q 554 861 554 846 q 565 887 554 876 q 590 897 576 897 q 617 887 606 897 q 628 861 628 876 l 628 861 m 733 861 q 722 835 733 846 q 696 825 711 825 q 671 835 682 825 q 660 861 660 846 q 671 887 660 876 q 696 897 682 897 q 722 887 711 897 q 733 861 733 876 l 733 861 z "},"Å":{"ha":788,"x_min":-214,"x_max":771,"o":"m 771 0 l 472 0 l 472 40 l 574 40 l 574 161 q 560 263 574 214 q 510 358 547 313 q 449 413 483 390 q 378 449 415 436 q 349 351 363 400 q 322 251 335 301 q 283 110 303 181 q 236 -29 263 39 q 283 -42 260 -37 q 331 -46 307 -46 l 331 -86 q 303 -83 317 -85 q 276 -81 289 -82 q 249 -74 263 -78 q 221 -67 235 -71 q 117 -225 179 -164 q -42 -286 54 -286 q -160 -246 -107 -286 q -214 -136 -214 -206 q -180 -51 -214 -86 q -100 -17 -146 -17 q -77 -19 -89 -17 q -54 -28 -65 -22 q -52 -28 -53 -28 q -50 -29 -51 -29 q -22 -55 -35 -37 q -6 -90 -8 -72 q -6 -93 -6 -92 q -6 -96 -6 -94 q -10 -114 -7 -106 q -24 -129 -14 -122 q -37 -135 -31 -133 q -49 -137 -43 -137 q -85 -120 -68 -137 q -110 -82 -103 -103 q -110 -74 -110 -78 q -111 -65 -111 -69 q -111 -63 -111 -64 q -111 -62 -111 -62 q -111 -60 -111 -61 q -111 -58 -111 -60 q -157 -85 -140 -64 q -174 -136 -174 -107 q -136 -214 -174 -186 q -53 -246 -99 -242 q -47 -246 -50 -246 q -42 -246 -44 -246 q 92 -191 39 -246 q 185 -50 146 -136 q 58 63 107 -11 q 8 225 8 138 q 8 238 8 232 q 10 250 8 244 q 104 434 21 365 q 294 503 188 503 q 308 503 301 503 q 324 501 315 503 q 338 500 331 501 q 351 497 344 499 q 364 533 357 515 q 379 571 371 551 q 481 734 417 660 q 650 808 544 808 l 757 808 l 757 768 l 675 768 l 675 40 l 771 40 l 771 0 l 771 0 m 339 458 q 316 462 328 461 q 293 463 304 463 q 130 404 201 463 q 50 247 58 346 q 50 242 50 244 q 50 236 50 239 q 49 229 49 232 q 49 224 49 226 q 92 85 50 149 q 200 -12 133 21 q 247 124 226 54 q 285 265 267 194 q 288 276 286 271 q 290 286 289 281 q 313 372 301 329 q 339 458 325 415 l 339 458 m 572 339 l 572 751 q 465 651 508 722 q 390 486 422 581 q 494 430 447 468 q 572 339 542 392 l 572 339 m 682 876 q 667 841 682 856 q 631 826 651 826 q 595 841 610 826 q 581 876 581 856 q 595 913 581 897 q 631 928 610 928 q 667 913 651 928 q 682 876 682 897 l 682 876 m 647 860 q 653 868 651 864 q 654 878 654 872 q 648 893 654 886 q 631 900 642 900 q 614 894 621 900 q 607 876 607 888 q 615 860 607 867 q 632 853 622 853 q 640 855 636 853 q 647 860 644 857 l 647 860 z "},"Ç":{"ha":664,"x_min":1,"x_max":640,"o":"m 485 -82 q 449 -159 485 -129 q 368 -187 413 -189 q 330 -181 349 -187 q 296 -160 311 -175 q 275 -132 283 -149 q 264 -97 267 -115 q 264 -94 264 -96 q 264 -89 264 -92 q 268 -67 264 -78 q 282 -47 272 -56 q 301 -36 290 -40 q 324 -32 313 -32 q 342 -35 333 -32 q 357 -46 350 -39 q 367 -61 364 -53 q 371 -79 371 -69 q 371 -81 371 -81 q 371 -83 371 -82 q 356 -114 369 -100 q 322 -128 343 -128 q 322 -128 322 -128 q 321 -128 321 -128 q 320 -128 321 -128 q 319 -128 319 -128 q 338 -141 328 -136 q 360 -147 349 -146 q 365 -147 363 -147 q 371 -147 368 -147 q 422 -129 399 -147 q 444 -81 444 -111 q 416 -22 444 -44 q 351 1 388 1 l 351 40 q 444 6 404 40 q 485 -81 485 -28 l 485 -82 m 640 135 q 534 44 596 79 q 401 1 472 8 q 393 1 397 1 q 385 1 389 1 q 376 0 381 0 q 368 0 372 0 q 103 125 206 0 q 1 404 1 250 q 111 688 1 568 q 389 808 221 808 q 406 808 397 808 q 422 806 414 807 q 560 744 497 796 q 622 610 622 692 q 603 551 622 576 q 557 526 583 526 q 545 528 551 526 q 533 533 539 529 q 522 542 528 536 q 510 556 515 547 q 498 577 501 567 q 494 597 494 588 q 508 628 496 617 q 538 639 519 639 q 549 638 543 639 q 560 633 554 636 q 571 625 565 629 q 582 614 576 621 q 533 715 581 675 q 429 765 485 754 q 415 767 422 767 q 401 768 408 768 l 401 767 q 280 741 333 767 q 190 671 226 715 q 128 549 149 619 q 107 401 107 478 q 107 399 107 400 q 107 397 107 399 q 178 151 108 263 q 392 40 249 39 q 408 41 400 40 q 422 43 415 42 q 527 87 476 53 q 610 160 578 121 l 640 135 l 640 135 z "},"É":{"ha":544,"x_min":6,"x_max":533,"o":"m 533 188 q 437 47 511 94 q 276 0 363 0 q 175 17 225 0 q 85 69 125 35 q 29 140 49 101 q 7 217 10 178 q 6 226 6 221 q 6 236 6 232 q 50 369 6 307 q 171 460 94 431 q 88 524 122 482 q 54 622 54 567 q 117 753 54 704 q 256 807 181 803 q 263 807 260 807 q 271 807 267 807 q 384 774 332 807 q 450 668 436 742 q 451 660 451 664 q 451 651 451 656 q 440 619 451 631 q 411 608 428 608 q 401 610 406 608 q 390 614 396 611 q 375 622 382 617 q 363 636 368 628 q 355 651 358 643 q 350 669 351 660 q 349 675 349 672 q 349 681 349 678 q 357 708 349 696 q 385 721 365 719 q 338 756 365 744 q 279 768 310 767 q 274 768 276 768 q 269 768 272 768 q 184 725 213 767 q 156 632 156 683 q 156 626 156 629 q 156 621 156 624 q 167 567 157 593 q 197 522 178 542 q 232 496 211 508 q 275 479 253 483 q 286 478 281 479 q 297 478 292 478 q 302 478 300 478 q 306 478 304 478 l 390 478 l 390 438 q 376 438 383 438 q 364 438 369 438 q 262 432 310 439 q 169 379 214 425 q 129 315 143 353 q 114 240 115 278 q 114 233 114 236 q 114 228 114 231 q 155 99 114 157 q 276 40 196 40 q 415 79 354 40 q 494 197 475 118 l 533 188 l 533 188 m 421 928 l 267 825 l 244 858 l 399 961 l 421 928 l 421 928 z "},"Ñ":{"ha":964,"x_min":8,"x_max":1179,"o":"m 1174 932 q 1178 915 1176 924 q 1179 900 1179 907 q 1150 837 1179 861 q 1081 813 1121 813 q 1080 813 1081 813 q 1079 813 1079 813 q 1078 813 1079 813 q 1078 813 1078 813 q 1069 814 1074 813 q 1061 817 1065 815 q 1025 840 1042 824 q 1008 876 1008 857 q 1010 889 1008 883 q 1017 900 1013 894 q 1033 914 1024 910 q 1051 918 1042 918 q 1058 917 1054 918 q 1064 917 1061 917 q 1100 897 1083 911 q 1121 864 1117 882 q 1135 883 1131 872 q 1139 903 1139 893 q 1139 906 1139 904 q 1139 908 1139 907 q 1125 940 1136 925 q 1097 961 1114 954 q 1080 966 1089 964 q 1060 968 1071 968 q 1043 967 1051 968 q 1026 963 1035 965 q 947 891 969 944 q 919 778 925 838 q 916 720 917 749 q 915 667 915 692 q 915 660 915 664 q 915 651 915 656 l 915 -1 l 883 -1 l 510 682 q 510 594 510 638 q 510 506 510 550 q 510 417 510 461 q 510 329 510 374 q 509 310 510 319 q 508 290 508 300 q 424 74 497 172 q 219 -24 350 -24 q 73 26 138 -24 q 8 163 8 75 q 49 264 8 226 q 136 307 89 301 q 146 308 142 308 q 154 308 150 308 q 229 282 196 308 q 267 199 263 256 q 249 144 267 161 q 210 126 232 126 q 208 126 208 126 q 206 126 207 126 q 167 146 185 128 q 147 193 149 164 q 147 195 147 194 q 147 197 147 196 q 160 227 147 217 q 188 238 172 238 q 204 235 196 238 q 219 226 213 232 q 192 260 210 250 q 154 271 174 271 q 148 271 151 271 q 140 269 144 271 q 77 234 106 264 q 49 163 49 204 q 101 53 49 92 q 219 15 154 15 q 391 97 329 15 q 467 278 453 179 q 469 303 468 290 q 469 329 469 317 l 469 767 l 349 767 l 349 807 l 558 807 l 564 796 l 875 226 l 875 651 q 875 653 875 653 q 875 656 875 654 q 876 713 875 682 q 879 775 876 744 q 914 912 886 847 q 1015 1000 942 976 q 1039 1006 1026 1004 q 1064 1008 1051 1008 q 1131 989 1100 1007 q 1174 932 1161 971 l 1174 932 m 832 882 q 823 860 828 871 q 810 840 818 850 q 788 826 800 831 q 763 821 775 821 q 752 822 757 821 q 743 824 747 822 q 716 832 729 826 q 692 844 703 838 q 688 845 690 844 q 685 847 686 846 q 678 851 682 849 q 668 857 674 854 q 657 862 663 860 q 644 867 651 864 q 634 869 639 868 q 624 869 629 869 q 614 868 618 869 q 607 864 610 867 q 599 851 603 858 q 593 835 596 843 l 556 850 q 565 871 560 861 q 578 890 569 881 q 600 906 589 901 q 624 910 611 910 q 632 909 628 910 q 640 908 636 908 q 667 900 654 906 q 693 888 681 894 q 699 885 696 886 q 704 882 701 883 q 713 878 708 881 q 724 872 718 875 q 735 867 729 869 q 746 864 740 865 q 754 862 750 863 q 763 861 758 861 q 773 863 768 861 q 781 868 778 864 q 788 880 785 872 q 794 896 792 888 l 832 882 l 832 882 z "},"Ö":{"ha":782,"x_min":1,"x_max":754,"o":"m 754 406 q 649 120 754 249 q 378 -8 544 -8 q 106 120 211 -8 q 1 406 1 249 q 106 692 1 563 q 378 821 210 821 q 649 692 544 821 q 754 406 754 564 l 754 406 m 567 138 q 628 265 607 194 q 647 407 649 335 q 647 415 647 411 q 647 424 647 419 q 625 556 644 490 q 567 674 606 621 q 482 753 531 724 q 378 782 433 782 q 274 753 322 782 q 189 674 225 724 q 128 548 149 618 q 108 404 107 478 q 108 396 108 400 q 108 388 108 392 q 131 256 111 321 q 189 138 150 190 q 278 58 229 85 q 378 31 326 31 q 478 58 429 31 q 567 138 528 85 l 567 138 m 364 881 q 353 855 364 865 q 326 844 342 844 q 301 855 313 844 q 290 881 290 865 q 301 906 290 896 q 326 917 313 917 q 353 906 342 917 q 364 881 364 896 l 364 881 m 469 881 q 458 855 469 865 q 432 844 447 844 q 407 855 418 844 q 396 881 396 865 q 407 906 396 896 q 432 917 418 917 q 458 906 447 917 q 469 881 469 896 l 469 881 z "},"Ü":{"ha":943,"x_min":6,"x_max":922,"o":"m 922 768 l 824 768 q 824 495 824 632 q 824 222 824 358 q 749 63 824 125 q 585 -10 674 0 q 580 -11 582 -11 q 576 -11 578 -11 q 569 -12 572 -11 q 561 -12 565 -12 q 553 -12 557 -12 q 546 -12 550 -12 q 351 57 432 -12 q 269 246 269 126 q 83 347 161 265 q 6 535 6 429 q 12 588 6 561 q 29 640 18 614 q 141 765 65 721 q 301 808 217 808 q 424 808 363 808 q 546 808 485 808 l 546 768 l 372 768 l 372 285 q 522 360 463 297 q 581 507 581 422 q 581 522 581 514 q 579 536 581 529 l 619 547 q 620 539 619 543 q 621 531 621 535 q 622 521 622 525 q 622 513 622 517 q 550 335 621 411 q 372 244 479 260 q 381 152 372 193 q 433 74 389 111 q 495 40 461 51 q 564 29 529 29 q 567 29 565 29 q 572 29 569 29 q 717 85 651 33 q 783 222 783 138 q 783 495 783 358 q 783 768 783 632 l 701 768 l 701 808 l 922 808 l 922 768 l 922 768 m 269 288 l 269 767 q 110 694 175 758 q 46 540 46 629 q 51 494 46 518 q 68 444 57 469 q 151 342 96 383 q 269 288 206 301 l 269 288 m 572 861 q 561 835 572 846 q 535 825 550 825 q 510 835 521 825 q 499 861 499 846 q 510 887 499 876 q 535 897 521 897 q 561 887 550 897 q 572 861 572 876 l 572 861 m 678 861 q 667 835 678 846 q 640 825 656 825 q 615 835 626 825 q 604 861 604 846 q 615 887 604 876 q 640 897 626 897 q 667 887 656 897 q 678 861 678 876 l 678 861 z "},"á":{"ha":393,"x_min":7,"x_max":381,"o":"m 381 83 q 355 24 381 46 q 297 1 329 1 q 263 10 279 1 q 233 36 246 18 q 192 9 214 18 q 146 1 169 0 q 93 13 119 1 q 47 47 67 25 q 17 99 28 71 q 8 158 7 128 q 18 215 8 188 q 47 265 28 243 q 93 301 67 289 q 146 313 119 313 q 183 306 165 313 q 218 289 201 300 l 218 304 q 266 304 242 304 q 313 304 290 304 q 313 179 313 242 q 313 54 313 117 q 315 49 313 51 q 319 47 317 47 q 322 48 321 47 q 324 49 322 49 q 337 64 332 54 q 342 83 342 74 l 381 83 l 381 83 m 218 79 l 218 235 q 201 252 211 244 q 181 265 192 260 q 175 267 178 267 q 169 268 172 268 q 147 258 157 267 q 131 239 138 250 q 116 200 121 221 q 111 156 111 179 q 116 113 111 133 q 131 75 121 92 q 150 54 140 61 q 169 47 160 47 q 194 56 182 47 q 218 79 207 65 l 218 79 m 332 436 l 178 333 l 156 367 l 310 469 l 332 436 l 332 436 z "},"à":{"ha":393,"x_min":7,"x_max":381,"o":"m 381 83 q 355 24 381 46 q 297 1 329 1 q 263 10 279 1 q 233 36 246 18 q 192 9 214 18 q 146 1 169 0 q 93 13 119 1 q 47 47 67 25 q 17 99 28 71 q 8 158 7 128 q 18 215 8 188 q 47 265 28 243 q 93 301 67 289 q 146 313 119 313 q 183 306 165 313 q 218 289 201 300 l 218 304 q 266 304 242 304 q 313 304 290 304 q 313 179 313 242 q 313 54 313 117 q 315 49 313 51 q 319 47 317 47 q 322 48 321 47 q 324 49 322 49 q 337 64 332 54 q 342 83 342 74 l 381 83 l 381 83 m 218 79 l 218 235 q 201 252 211 244 q 181 265 192 260 q 175 267 178 267 q 169 268 172 268 q 147 258 157 267 q 131 239 138 250 q 116 200 121 221 q 111 156 111 179 q 116 113 111 133 q 131 75 121 92 q 150 54 140 61 q 169 47 160 47 q 194 56 182 47 q 218 79 207 65 l 218 79 m 225 364 l 203 331 l 49 433 l 71 467 l 225 364 l 225 364 z "},"â":{"ha":393,"x_min":7,"x_max":381,"o":"m 381 83 q 355 24 381 46 q 297 1 329 1 q 263 10 279 1 q 233 36 246 18 q 192 9 214 18 q 146 1 169 0 q 93 13 119 1 q 47 47 67 25 q 17 99 28 71 q 8 158 7 128 q 18 215 8 188 q 47 265 28 243 q 93 301 67 289 q 146 313 119 313 q 183 306 165 313 q 218 289 201 300 l 218 304 q 266 304 242 304 q 313 304 290 304 q 313 179 313 242 q 313 54 313 117 q 315 49 313 51 q 319 47 317 47 q 322 48 321 47 q 324 49 322 49 q 337 64 332 54 q 342 83 342 74 l 381 83 l 381 83 m 218 79 l 218 235 q 201 252 211 244 q 181 265 192 260 q 175 267 178 267 q 169 268 172 268 q 147 258 157 267 q 131 239 138 250 q 116 200 121 221 q 111 156 111 179 q 116 113 111 133 q 131 75 121 92 q 150 54 140 61 q 169 47 160 47 q 194 56 182 47 q 218 79 207 65 l 218 79 m 297 351 l 272 321 l 165 413 l 60 321 l 33 351 l 165 465 l 297 351 l 297 351 z "},"ä":{"ha":393,"x_min":7,"x_max":381,"o":"m 381 83 q 355 24 381 46 q 297 1 329 1 q 263 10 279 1 q 233 36 246 18 q 192 9 214 18 q 146 1 169 0 q 93 13 119 1 q 47 47 67 25 q 17 99 28 71 q 8 158 7 128 q 18 215 8 188 q 47 265 28 243 q 93 301 67 289 q 146 313 119 313 q 183 306 165 313 q 218 289 201 300 l 218 304 q 266 304 242 304 q 313 304 290 304 q 313 179 313 242 q 313 54 313 117 q 315 49 313 51 q 319 47 317 47 q 322 48 321 47 q 324 49 322 49 q 337 64 332 54 q 342 83 342 74 l 381 83 l 381 83 m 218 79 l 218 235 q 201 252 211 244 q 181 265 192 260 q 175 267 178 267 q 169 268 172 268 q 147 258 157 267 q 131 239 138 250 q 116 200 121 221 q 111 156 111 179 q 116 113 111 133 q 131 75 121 92 q 150 54 140 61 q 169 47 160 47 q 194 56 182 47 q 218 79 207 65 l 218 79 m 183 364 q 172 338 183 349 q 146 328 161 328 q 121 338 132 328 q 110 364 110 349 q 121 390 110 379 q 146 400 132 400 q 172 390 161 400 q 183 364 183 379 l 183 364 m 289 364 q 278 338 289 349 q 251 328 267 328 q 226 338 238 328 q 215 364 215 349 q 226 390 215 379 q 251 400 238 400 q 278 390 267 400 q 289 364 289 379 l 289 364 z "},"ã":{"ha":393,"x_min":7,"x_max":381,"o":"m 381 83 q 355 24 381 46 q 297 1 329 1 q 263 10 279 1 q 233 36 246 18 q 192 9 214 18 q 146 1 169 0 q 93 13 119 1 q 47 47 67 25 q 17 99 28 71 q 8 158 7 128 q 18 215 8 188 q 47 265 28 243 q 93 301 67 289 q 146 313 119 313 q 183 306 165 313 q 218 289 201 300 l 218 304 q 266 304 242 304 q 313 304 290 304 q 313 179 313 242 q 313 54 313 117 q 315 49 313 51 q 319 47 317 47 q 322 48 321 47 q 324 49 322 49 q 337 64 332 54 q 342 83 342 74 l 381 83 l 381 83 m 218 79 l 218 235 q 201 252 211 244 q 181 265 192 260 q 175 267 178 267 q 169 268 172 268 q 147 258 157 267 q 131 239 138 250 q 116 200 121 221 q 111 156 111 179 q 116 113 111 133 q 131 75 121 92 q 150 54 140 61 q 169 47 160 47 q 194 56 182 47 q 218 79 207 65 l 218 79 m 326 393 q 317 372 322 382 q 304 351 313 361 q 282 337 294 342 q 257 332 269 332 q 247 333 251 332 q 238 335 242 333 q 210 343 224 338 q 186 356 197 349 q 183 356 185 356 q 179 358 181 357 q 172 363 176 360 q 163 368 168 365 q 151 373 157 371 q 139 378 146 375 q 128 380 133 379 q 118 381 124 381 q 108 379 113 381 q 101 375 104 378 q 94 362 97 369 q 88 346 90 354 l 50 361 q 59 382 54 372 q 72 401 64 392 q 94 417 83 413 q 118 421 106 421 q 126 420 122 421 q 135 419 131 419 q 162 411 149 417 q 188 399 175 406 q 193 396 190 397 q 199 393 196 394 q 208 389 203 392 q 218 383 213 386 q 229 378 224 381 q 240 375 235 376 q 249 373 244 374 q 257 372 253 372 q 267 374 263 372 q 275 379 272 375 q 283 391 279 383 q 289 407 286 399 l 326 393 l 326 393 z "},"å":{"ha":393,"x_min":7,"x_max":381,"o":"m 381 83 q 355 24 381 46 q 297 1 329 1 q 263 10 279 1 q 233 36 246 18 q 192 9 214 18 q 146 1 169 0 q 93 13 119 1 q 47 47 67 25 q 17 99 28 71 q 8 158 7 128 q 18 215 8 188 q 47 265 28 243 q 93 301 67 289 q 146 313 119 313 q 183 306 165 313 q 218 289 201 300 l 218 304 q 266 304 242 304 q 313 304 290 304 q 313 179 313 242 q 313 54 313 117 q 315 49 313 51 q 319 47 317 47 q 322 48 321 47 q 324 49 322 49 q 337 64 332 54 q 342 83 342 74 l 381 83 l 381 83 m 218 79 l 218 235 q 201 252 211 244 q 181 265 192 260 q 175 267 178 267 q 169 268 172 268 q 147 258 157 267 q 131 239 138 250 q 116 200 121 221 q 111 156 111 179 q 116 113 111 133 q 131 75 121 92 q 150 54 140 61 q 169 47 160 47 q 194 56 182 47 q 218 79 207 65 l 218 79 m 207 381 q 192 345 207 360 q 156 331 176 331 q 120 345 135 331 q 106 381 106 360 q 120 417 106 401 q 156 432 135 432 q 192 417 176 432 q 207 381 207 401 l 207 381 m 172 364 q 178 372 176 368 q 179 382 179 376 q 173 397 179 390 q 156 404 167 404 q 139 398 146 404 q 132 381 132 392 q 140 364 132 371 q 157 357 147 357 q 165 359 161 357 q 172 364 169 361 l 172 364 z "},"ç":{"ha":294,"x_min":3,"x_max":281,"o":"m 265 -78 q 229 -155 265 -125 q 149 -183 193 -185 q 110 -177 129 -183 q 76 -156 92 -171 q 56 -128 64 -144 q 44 -93 47 -111 q 44 -90 44 -92 q 44 -85 44 -87 q 49 -62 44 -74 q 63 -43 53 -51 q 82 -32 71 -36 q 104 -28 93 -28 q 122 -31 114 -28 q 138 -42 131 -35 q 148 -57 144 -49 q 151 -75 151 -65 q 151 -77 151 -76 q 151 -79 151 -78 q 137 -110 150 -96 q 103 -124 124 -124 q 102 -124 103 -124 q 101 -124 101 -124 q 101 -124 101 -124 q 100 -124 100 -124 q 119 -137 108 -132 q 140 -143 129 -142 q 146 -143 143 -143 q 151 -143 149 -143 q 202 -125 179 -143 q 225 -76 225 -107 q 197 -17 225 -40 q 132 6 168 6 l 132 44 q 225 10 185 44 q 265 -76 265 -24 l 265 -78 m 281 64 q 232 16 258 32 q 165 0 206 0 q 48 49 93 0 q 3 158 3 99 q 3 167 3 163 q 4 178 3 172 q 19 224 7 201 q 51 267 31 247 q 106 301 75 290 q 167 313 136 313 q 175 313 171 313 q 185 311 179 313 q 193 310 189 311 q 201 308 197 310 q 213 306 207 307 q 225 301 219 304 q 240 295 232 299 q 253 288 247 292 q 268 273 263 281 q 276 257 274 265 q 278 249 278 253 q 279 242 279 246 q 266 210 279 224 q 233 197 253 197 q 222 199 228 197 q 208 203 215 200 q 202 206 206 204 q 196 211 199 208 q 177 231 185 218 q 169 258 169 244 q 169 264 169 261 q 171 269 169 267 q 131 230 144 263 q 117 160 118 197 q 117 158 117 160 q 117 156 117 157 q 133 77 117 113 q 182 42 150 42 q 198 44 190 42 q 213 50 206 47 q 229 65 221 56 q 247 86 238 74 l 281 64 l 281 64 z "},"é":{"ha":307,"x_min":6,"x_max":296,"o":"m 296 63 q 236 16 271 32 q 165 0 201 0 q 157 0 161 0 q 149 1 153 0 q 99 15 124 4 q 54 46 75 26 q 17 98 29 69 q 6 156 6 126 q 52 264 7 217 q 169 313 97 311 q 172 313 171 313 q 174 313 172 313 q 240 294 210 311 q 275 239 269 278 q 275 236 275 238 q 275 233 275 235 q 275 231 275 232 q 275 228 275 229 q 244 160 275 186 q 174 121 213 135 q 151 113 163 117 q 131 107 140 110 l 126 106 q 130 94 128 100 q 133 83 132 89 q 151 53 140 67 q 179 42 161 40 q 181 42 181 42 q 183 42 182 42 q 228 57 207 44 q 265 88 250 69 l 296 63 l 296 63 m 235 235 q 221 260 233 251 q 194 269 208 268 q 188 271 192 271 q 182 271 185 271 q 146 249 160 271 q 126 200 132 226 q 121 173 122 186 q 119 150 119 160 q 119 148 119 149 q 119 146 119 147 q 142 152 129 149 q 167 161 154 156 q 214 188 193 171 q 235 229 235 204 q 235 232 235 231 q 235 235 235 233 l 235 235 m 288 433 l 133 331 l 111 364 l 265 467 l 288 433 l 288 433 z "},"è":{"ha":307,"x_min":6,"x_max":296,"o":"m 296 63 q 236 16 271 32 q 165 0 201 0 q 157 0 161 0 q 149 1 153 0 q 99 15 124 4 q 54 46 75 26 q 17 98 29 69 q 6 156 6 126 q 52 264 7 217 q 169 313 97 311 q 172 313 171 313 q 174 313 172 313 q 240 294 210 311 q 275 239 269 278 q 275 236 275 238 q 275 233 275 235 q 275 231 275 232 q 275 228 275 229 q 244 160 275 186 q 174 121 213 135 q 151 113 163 117 q 131 107 140 110 l 126 106 q 130 94 128 100 q 133 83 132 89 q 151 53 140 67 q 179 42 161 40 q 181 42 181 42 q 183 42 182 42 q 228 57 207 44 q 265 88 250 69 l 296 63 l 296 63 m 235 235 q 221 260 233 251 q 194 269 208 268 q 188 271 192 271 q 182 271 185 271 q 146 249 160 271 q 126 200 132 226 q 121 173 122 186 q 119 150 119 160 q 119 148 119 149 q 119 146 119 147 q 142 152 129 149 q 167 161 154 156 q 214 188 193 171 q 235 229 235 204 q 235 232 235 231 q 235 235 235 233 l 235 235 m 239 364 l 217 331 l 63 433 l 85 467 l 239 364 l 239 364 z "},"ê":{"ha":307,"x_min":6,"x_max":296,"o":"m 296 63 q 236 16 271 32 q 165 0 201 0 q 157 0 161 0 q 149 1 153 0 q 99 15 124 4 q 54 46 75 26 q 17 98 29 69 q 6 156 6 126 q 52 264 7 217 q 169 313 97 311 q 172 313 171 313 q 174 313 172 313 q 240 294 210 311 q 275 239 269 278 q 275 236 275 238 q 275 233 275 235 q 275 231 275 232 q 275 228 275 229 q 244 160 275 186 q 174 121 213 135 q 151 113 163 117 q 131 107 140 110 l 126 106 q 130 94 128 100 q 133 83 132 89 q 151 53 140 67 q 179 42 161 40 q 181 42 181 42 q 183 42 182 42 q 228 57 207 44 q 265 88 250 69 l 296 63 l 296 63 m 235 235 q 221 260 233 251 q 194 269 208 268 q 188 271 192 271 q 182 271 185 271 q 146 249 160 271 q 126 200 132 226 q 121 173 122 186 q 119 150 119 160 q 119 148 119 149 q 119 146 119 147 q 142 152 129 149 q 167 161 154 156 q 214 188 193 171 q 235 229 235 204 q 235 232 235 231 q 235 235 235 233 l 235 235 m 292 338 l 267 307 l 160 399 l 54 307 l 28 338 l 160 451 l 292 338 l 292 338 z "},"ë":{"ha":307,"x_min":6,"x_max":296,"o":"m 296 63 q 236 16 271 32 q 165 0 201 0 q 157 0 161 0 q 149 1 153 0 q 99 15 124 4 q 54 46 75 26 q 17 98 29 69 q 6 156 6 126 q 52 264 7 217 q 169 313 97 311 q 172 313 171 313 q 174 313 172 313 q 240 294 210 311 q 275 239 269 278 q 275 236 275 238 q 275 233 275 235 q 275 231 275 232 q 275 228 275 229 q 244 160 275 186 q 174 121 213 135 q 151 113 163 117 q 131 107 140 110 l 126 106 q 130 94 128 100 q 133 83 132 89 q 151 53 140 67 q 179 42 161 40 q 181 42 181 42 q 183 42 182 42 q 228 57 207 44 q 265 88 250 69 l 296 63 l 296 63 m 235 235 q 221 260 233 251 q 194 269 208 268 q 188 271 192 271 q 182 271 185 271 q 146 249 160 271 q 126 200 132 226 q 121 173 122 186 q 119 150 119 160 q 119 148 119 149 q 119 146 119 147 q 142 152 129 149 q 167 161 154 156 q 214 188 193 171 q 235 229 235 204 q 235 232 235 231 q 235 235 235 233 l 235 235 m 147 367 q 136 341 147 351 q 110 331 125 331 q 85 341 96 331 q 74 367 74 351 q 85 392 74 382 q 110 403 96 403 q 136 392 125 403 q 147 367 147 382 l 147 367 m 253 367 q 242 341 253 351 q 215 331 231 331 q 190 341 201 331 q 179 367 179 351 q 190 392 179 382 q 215 403 201 403 q 242 392 231 403 q 253 367 253 382 l 253 367 z "},"í":{"ha":188,"x_min":8,"x_max":210,"o":"m 171 83 q 147 25 171 49 q 89 1 122 1 q 32 25 56 1 q 8 83 8 49 l 8 304 l 103 304 l 103 54 q 105 49 103 51 q 110 47 107 47 q 112 48 111 47 q 113 49 113 49 q 126 65 121 56 q 131 83 131 74 l 171 83 l 171 83 m 210 431 l 56 328 l 33 361 l 188 464 l 210 431 l 210 431 z "},"ì":{"ha":188,"x_min":-93,"x_max":171,"o":"m 171 83 q 147 25 171 49 q 89 1 122 1 q 32 25 56 1 q 8 83 8 49 l 8 304 l 103 304 l 103 54 q 105 49 103 51 q 110 47 107 47 q 112 48 111 47 q 113 49 113 49 q 126 65 121 56 q 131 83 131 74 l 171 83 l 171 83 m 83 361 l 61 328 l -93 431 l -71 464 l 83 361 l 83 361 z "},"î":{"ha":188,"x_min":-78,"x_max":186,"o":"m 171 83 q 147 25 171 49 q 89 1 122 1 q 32 25 56 1 q 8 83 8 49 l 8 304 l 103 304 l 103 54 q 105 49 103 51 q 110 47 107 47 q 112 48 111 47 q 113 49 113 49 q 126 65 121 56 q 131 83 131 74 l 171 83 l 171 83 m 186 326 l 161 296 l 54 388 l -51 296 l -78 326 l 54 440 l 186 326 l 186 326 z "},"ï":{"ha":188,"x_min":-31,"x_max":171,"o":"m 171 83 q 147 25 171 49 q 89 1 122 1 q 32 25 56 1 q 8 83 8 49 l 8 304 l 103 304 l 103 54 q 105 49 103 51 q 110 47 107 47 q 112 48 111 47 q 113 49 113 49 q 126 65 121 56 q 131 83 131 74 l 171 83 l 171 83 m 42 364 q 31 338 42 349 q 4 328 19 328 q -20 338 -10 328 q -31 364 -31 349 q -20 390 -31 379 q 4 400 -10 400 q 31 390 19 400 q 42 364 42 379 l 42 364 m 147 364 q 136 338 147 349 q 110 328 125 328 q 85 338 96 328 q 74 364 74 349 q 85 390 74 379 q 110 400 96 400 q 136 390 125 400 q 147 364 147 379 l 147 364 z "},"ñ":{"ha":447,"x_min":0,"x_max":429,"o":"m 429 83 q 405 25 429 49 q 347 1 381 1 q 290 25 314 1 q 265 83 265 49 l 265 247 q 258 263 265 258 q 240 268 250 268 q 237 268 239 268 q 232 267 235 268 q 225 265 231 268 q 214 257 219 261 q 212 256 213 257 q 210 254 211 256 q 200 248 204 251 q 194 243 196 244 q 175 221 183 233 q 164 194 167 208 l 164 0 l 68 0 l 68 260 q 68 260 68 260 q 68 263 68 261 q 65 264 67 263 q 64 267 64 265 q 62 267 63 267 q 61 267 61 267 q 60 267 61 267 q 60 267 60 267 q 59 265 60 265 q 58 265 58 265 q 45 251 50 260 q 40 231 40 242 l 0 231 q 25 290 0 268 q 81 313 50 311 q 83 313 82 313 q 85 313 83 313 q 127 301 107 313 q 157 263 147 289 q 185 287 169 276 q 217 303 200 297 q 240 310 228 307 q 265 313 253 313 q 301 306 283 313 q 332 289 318 300 q 354 262 346 278 q 363 226 363 246 l 363 54 q 363 53 363 54 q 363 53 363 53 q 363 49 363 50 q 368 47 364 47 q 378 53 374 47 q 385 67 383 60 q 388 76 388 72 q 389 83 389 81 l 429 83 l 429 83 m 343 396 q 334 374 339 385 q 321 354 329 364 q 299 340 311 344 q 274 335 286 335 q 263 335 268 335 q 254 338 258 336 q 227 346 240 340 q 203 358 214 351 q 199 359 201 358 q 196 361 197 360 q 189 365 193 363 q 179 371 185 368 q 168 376 174 374 q 156 381 163 378 q 145 383 150 382 q 135 383 140 383 q 125 382 129 383 q 118 378 121 381 q 110 365 114 372 q 104 349 107 357 l 67 364 q 76 385 71 375 q 89 404 81 394 q 111 419 100 415 q 135 424 122 424 q 143 423 139 424 q 151 422 147 422 q 178 414 165 419 q 204 401 192 408 q 210 399 207 400 q 215 396 213 397 q 224 392 219 394 q 235 386 229 389 q 246 381 240 383 q 257 378 251 379 q 265 376 261 376 q 274 375 269 375 q 284 376 279 375 q 292 382 289 378 q 299 394 296 386 q 306 410 303 401 l 343 396 l 343 396 z "},"ó":{"ha":306,"x_min":3,"x_max":293,"o":"m 281 157 q 281 155 281 156 q 281 153 281 154 q 241 48 279 96 q 142 0 203 0 q 42 48 81 0 q 3 153 4 96 q 3 155 3 154 q 3 157 3 156 q 41 264 3 215 q 142 313 79 313 q 242 264 204 313 q 281 157 281 215 l 281 157 m 211 74 q 231 104 224 88 q 239 138 238 121 q 240 146 240 142 q 240 154 240 150 q 217 231 239 197 q 168 263 196 264 q 162 262 165 263 q 156 260 158 261 q 142 252 149 257 q 131 238 136 247 q 117 205 122 225 q 113 157 113 185 q 113 138 113 149 q 115 118 114 128 q 132 72 119 93 q 172 51 144 51 q 194 58 183 51 q 211 74 204 65 l 211 74 m 293 433 l 139 331 l 117 364 l 271 467 l 293 433 l 293 433 z "},"ò":{"ha":306,"x_min":3,"x_max":281,"o":"m 281 157 q 281 155 281 156 q 281 153 281 154 q 241 48 279 96 q 142 0 203 0 q 42 48 81 0 q 3 153 4 96 q 3 155 3 154 q 3 157 3 156 q 41 264 3 215 q 142 313 79 313 q 242 264 204 313 q 281 157 281 215 l 281 157 m 211 74 q 231 104 224 88 q 239 138 238 121 q 240 146 240 142 q 240 154 240 150 q 217 231 239 197 q 168 263 196 264 q 162 262 165 263 q 156 260 158 261 q 142 252 149 257 q 131 238 136 247 q 117 205 122 225 q 113 157 113 185 q 113 138 113 149 q 115 118 114 128 q 132 72 119 93 q 172 51 144 51 q 194 58 183 51 q 211 74 204 65 l 211 74 m 217 356 l 194 322 l 40 425 l 63 458 l 217 356 l 217 356 z "},"ô":{"ha":306,"x_min":0,"x_max":281,"o":"m 281 157 q 281 155 281 156 q 281 153 281 154 q 241 48 279 96 q 142 0 203 0 q 42 48 81 0 q 3 153 4 96 q 3 155 3 154 q 3 157 3 156 q 41 264 3 215 q 142 313 79 313 q 242 264 204 313 q 281 157 281 215 l 281 157 m 211 74 q 231 104 224 88 q 239 138 238 121 q 240 146 240 142 q 240 154 240 150 q 217 231 239 197 q 168 263 196 264 q 162 262 165 263 q 156 260 158 261 q 142 252 149 257 q 131 238 136 247 q 117 205 122 225 q 113 157 113 185 q 113 138 113 149 q 115 118 114 128 q 132 72 119 93 q 172 51 144 51 q 194 58 183 51 q 211 74 204 65 l 211 74 m 264 329 l 239 299 l 132 390 l 26 299 l 0 329 l 132 443 l 264 329 l 264 329 z "},"ö":{"ha":306,"x_min":3,"x_max":281,"o":"m 281 157 q 281 155 281 156 q 281 153 281 154 q 241 48 279 96 q 142 0 203 0 q 42 48 81 0 q 3 153 4 96 q 3 155 3 154 q 3 157 3 156 q 41 264 3 215 q 142 313 79 313 q 242 264 204 313 q 281 157 281 215 l 281 157 m 211 74 q 231 104 224 88 q 239 138 238 121 q 240 146 240 142 q 240 154 240 150 q 217 231 239 197 q 168 263 196 264 q 162 262 165 263 q 156 260 158 261 q 142 252 149 257 q 131 238 136 247 q 117 205 122 225 q 113 157 113 185 q 113 138 113 149 q 115 118 114 128 q 132 72 119 93 q 172 51 144 51 q 194 58 183 51 q 211 74 204 65 l 211 74 m 131 369 q 119 344 131 354 q 93 333 108 333 q 68 344 79 333 q 57 369 57 354 q 68 395 57 385 q 93 406 79 406 q 119 395 108 406 q 131 369 131 385 l 131 369 m 236 369 q 225 344 236 354 q 199 333 214 333 q 174 344 185 333 q 163 369 163 354 q 174 395 163 385 q 199 406 185 406 q 225 395 214 406 q 236 369 236 385 l 236 369 z "},"õ":{"ha":306,"x_min":3,"x_max":285,"o":"m 281 157 q 281 155 281 156 q 281 153 281 154 q 241 48 279 96 q 142 0 203 0 q 42 48 81 0 q 3 153 4 96 q 3 155 3 154 q 3 157 3 156 q 41 264 3 215 q 142 313 79 313 q 242 264 204 313 q 281 157 281 215 l 281 157 m 211 74 q 231 104 224 88 q 239 138 238 121 q 240 146 240 142 q 240 154 240 150 q 217 231 239 197 q 168 263 196 264 q 162 262 165 263 q 156 260 158 261 q 142 252 149 257 q 131 238 136 247 q 117 205 122 225 q 113 157 113 185 q 113 138 113 149 q 115 118 114 128 q 132 72 119 93 q 172 51 144 51 q 194 58 183 51 q 211 74 204 65 l 211 74 m 285 388 q 276 366 281 376 q 263 346 271 356 q 240 331 253 336 q 215 326 228 326 q 205 327 210 326 q 196 329 200 328 q 169 338 182 332 q 144 350 156 343 q 141 351 143 350 q 138 353 139 351 q 131 357 135 354 q 121 363 126 360 q 110 367 115 365 q 97 372 104 369 q 87 374 92 374 q 76 375 82 375 q 67 374 71 375 q 60 369 63 372 q 52 356 56 364 q 46 340 49 349 l 8 356 q 17 376 13 367 q 31 396 22 386 q 53 411 42 407 q 76 415 64 415 q 85 415 81 415 q 93 414 89 414 q 120 406 107 411 q 146 393 133 400 q 151 390 149 392 q 157 388 154 389 q 166 383 161 386 q 176 378 171 381 q 188 373 182 375 q 199 369 193 371 q 207 367 203 368 q 215 367 211 367 q 226 368 221 367 q 233 374 231 369 q 241 385 238 378 q 247 401 244 393 l 285 388 l 285 388 z "},"ú":{"ha":385,"x_min":3,"x_max":360,"o":"m 360 82 q 334 22 360 44 q 276 0 308 0 q 236 11 256 0 q 206 46 217 22 q 157 13 185 26 q 100 1 129 0 q 65 7 82 1 q 32 25 47 13 q 10 52 18 36 q 3 86 3 68 l 3 313 l 100 313 l 100 65 q 106 52 100 57 q 121 46 113 47 q 122 46 121 46 q 124 46 122 46 q 126 46 125 46 q 129 46 128 46 q 131 47 129 46 q 133 47 132 47 q 169 68 153 54 q 196 100 186 82 l 196 313 l 293 313 l 293 54 q 293 53 293 54 q 293 51 293 53 q 293 51 293 51 q 293 51 293 51 q 293 49 293 50 q 293 49 293 49 q 297 47 296 47 q 299 47 297 46 q 299 47 299 47 q 300 47 300 47 q 301 49 300 49 q 301 49 301 49 q 315 63 311 53 q 319 82 319 72 l 360 82 l 360 82 m 290 433 l 136 331 l 114 364 l 268 467 l 290 433 l 290 433 z "},"ù":{"ha":385,"x_min":3,"x_max":360,"o":"m 360 82 q 334 22 360 44 q 276 0 308 0 q 236 11 256 0 q 206 46 217 22 q 157 13 185 26 q 100 1 129 0 q 65 7 82 1 q 32 25 47 13 q 10 52 18 36 q 3 86 3 68 l 3 313 l 100 313 l 100 65 q 106 52 100 57 q 121 46 113 47 q 122 46 121 46 q 124 46 122 46 q 126 46 125 46 q 129 46 128 46 q 131 47 129 46 q 133 47 132 47 q 169 68 153 54 q 196 100 186 82 l 196 313 l 293 313 l 293 54 q 293 53 293 54 q 293 51 293 53 q 293 51 293 51 q 293 51 293 51 q 293 49 293 50 q 293 49 293 49 q 297 47 296 47 q 299 47 297 46 q 299 47 299 47 q 300 47 300 47 q 301 49 300 49 q 301 49 301 49 q 315 63 311 53 q 319 82 319 72 l 360 82 l 360 82 m 214 367 l 192 333 l 38 436 l 60 469 l 214 367 l 214 367 z "},"û":{"ha":385,"x_min":3,"x_max":360,"o":"m 360 82 q 334 22 360 44 q 276 0 308 0 q 236 11 256 0 q 206 46 217 22 q 157 13 185 26 q 100 1 129 0 q 65 7 82 1 q 32 25 47 13 q 10 52 18 36 q 3 86 3 68 l 3 313 l 100 313 l 100 65 q 106 52 100 57 q 121 46 113 47 q 122 46 121 46 q 124 46 122 46 q 126 46 125 46 q 129 46 128 46 q 131 47 129 46 q 133 47 132 47 q 169 68 153 54 q 196 100 186 82 l 196 313 l 293 313 l 293 54 q 293 53 293 54 q 293 51 293 53 q 293 51 293 51 q 293 51 293 51 q 293 49 293 50 q 293 49 293 49 q 297 47 296 47 q 299 47 297 46 q 299 47 299 47 q 300 47 300 47 q 301 49 300 49 q 301 49 301 49 q 315 63 311 53 q 319 82 319 72 l 360 82 l 360 82 m 281 360 l 256 329 l 149 421 l 43 329 l 17 360 l 149 474 l 281 360 l 281 360 z "},"ü":{"ha":385,"x_min":3,"x_max":360,"o":"m 360 82 q 334 22 360 44 q 276 0 308 0 q 236 11 256 0 q 206 46 217 22 q 157 13 185 26 q 100 1 129 0 q 65 7 82 1 q 32 25 47 13 q 10 52 18 36 q 3 86 3 68 l 3 313 l 100 313 l 100 65 q 106 52 100 57 q 121 46 113 47 q 122 46 121 46 q 124 46 122 46 q 126 46 125 46 q 129 46 128 46 q 131 47 129 46 q 133 47 132 47 q 169 68 153 54 q 196 100 186 82 l 196 313 l 293 313 l 293 54 q 293 53 293 54 q 293 51 293 53 q 293 51 293 51 q 293 51 293 51 q 293 49 293 50 q 293 49 293 49 q 297 47 296 47 q 299 47 297 46 q 299 47 299 47 q 300 47 300 47 q 301 49 300 49 q 301 49 301 49 q 315 63 311 53 q 319 82 319 72 l 360 82 l 360 82 m 136 369 q 125 344 136 354 q 99 333 114 333 q 74 344 85 333 q 63 369 63 354 q 74 395 63 385 q 99 406 85 406 q 125 395 114 406 q 136 369 136 385 l 136 369 m 242 369 q 231 344 242 354 q 204 333 219 333 q 179 344 190 333 q 168 369 168 354 q 179 395 168 385 q 204 406 190 406 q 231 395 219 406 q 242 369 242 385 l 242 369 z "},"†":{"ha":694,"x_min":0,"x_max":0,"o":""},"¢":{"ha":304,"x_min":14,"x_max":290,"o":"m 290 333 q 244 286 269 301 q 179 269 218 271 l 179 128 l 140 128 l 140 274 q 49 331 83 286 q 14 428 14 376 q 14 437 14 432 q 15 447 14 442 q 30 494 18 471 q 63 536 42 517 q 98 562 78 551 q 140 578 118 572 l 140 732 l 179 732 l 179 582 q 185 581 182 582 q 190 581 188 581 q 201 580 196 581 q 213 578 207 579 q 224 574 218 576 q 236 571 231 572 q 251 565 243 568 q 264 557 258 561 q 278 542 274 550 q 286 526 283 535 q 288 519 288 522 q 289 511 289 515 q 276 480 289 493 q 243 467 263 467 q 231 468 238 467 q 218 472 225 469 q 212 476 215 474 q 206 481 208 478 q 188 502 196 489 q 179 529 179 515 q 179 532 179 531 q 179 535 179 533 q 180 536 179 535 q 181 539 181 538 q 140 497 154 531 q 128 425 126 464 q 128 423 128 424 q 128 421 128 422 q 145 344 129 379 q 193 311 161 310 q 198 311 196 311 q 203 313 200 311 q 213 315 208 313 q 222 319 218 317 q 231 326 226 322 q 240 333 236 329 q 249 344 244 339 q 258 356 254 350 l 290 333 l 290 333 z "},"£":{"ha":622,"x_min":28,"x_max":594,"o":"m 594 178 q 592 163 593 171 q 589 149 590 156 q 585 120 586 135 q 582 90 583 106 q 538 16 576 40 q 456 -8 500 -8 q 447 -8 451 -8 q 438 -7 442 -8 q 419 -3 428 -6 q 401 0 410 -1 q 347 22 374 10 q 293 47 319 33 q 274 56 283 51 q 257 64 265 60 q 199 6 235 26 q 118 -15 163 -15 q 53 10 79 -15 q 29 68 28 36 q 30 76 29 72 q 31 83 31 79 q 40 105 33 94 q 56 125 46 115 q 88 144 71 139 q 124 149 106 149 q 135 148 129 149 q 147 147 142 147 q 166 144 157 146 q 183 139 175 142 q 189 138 186 139 q 194 136 192 138 q 197 188 197 163 q 196 240 197 214 q 196 262 196 251 q 196 282 196 272 q 196 299 196 290 q 196 318 196 308 q 194 335 194 326 q 194 353 194 344 l 103 353 l 103 393 l 193 393 q 192 415 192 404 q 192 436 192 425 q 192 463 192 450 q 193 490 192 476 q 232 666 197 586 q 367 746 267 746 q 471 703 428 746 q 514 604 514 661 q 512 584 514 594 q 507 563 510 574 l 468 574 q 471 582 469 578 q 472 590 472 586 q 474 597 474 593 q 474 606 474 601 q 453 663 472 638 q 404 700 435 689 q 401 700 403 700 q 399 700 400 700 q 396 700 397 700 q 393 700 394 700 q 325 661 346 700 q 297 567 304 622 q 295 540 296 554 q 293 511 294 525 q 293 497 293 504 q 293 483 293 490 q 294 437 293 460 q 296 394 294 414 q 296 393 296 393 q 296 393 296 393 l 429 393 l 429 353 l 297 353 q 297 322 297 338 q 297 290 297 306 q 297 267 297 279 q 297 244 297 256 q 294 172 297 206 q 281 110 292 138 q 294 105 288 107 q 307 100 300 103 q 328 94 318 97 q 349 86 338 90 q 382 76 365 81 q 415 67 399 71 q 431 64 422 65 q 447 63 439 63 q 507 80 479 63 q 543 132 535 97 q 549 160 546 146 q 556 188 553 174 l 594 178 l 594 178 m 189 96 q 182 98 186 97 q 174 100 178 99 q 160 104 167 103 q 146 107 153 106 q 133 109 139 108 q 122 110 128 110 q 101 106 111 108 q 82 96 90 103 q 74 87 78 92 q 69 76 71 82 q 69 72 69 74 q 68 67 68 69 q 83 35 68 49 q 118 22 99 22 q 165 44 149 22 q 188 92 182 65 q 189 94 189 93 q 189 96 189 94 l 189 96 z "},"§":{"ha":694,"x_min":0,"x_max":0,"o":""},"¶":{"ha":694,"x_min":0,"x_max":0,"o":""},"ß":{"ha":422,"x_min":-3,"x_max":407,"o":"m 407 88 q 381 33 407 54 q 325 4 356 13 q 307 1 315 3 q 290 0 299 0 l 290 1 q 288 1 289 1 q 286 1 288 1 q 267 3 276 1 q 247 7 257 4 q 196 30 219 14 q 165 72 172 46 q 165 76 165 75 q 164 81 164 78 q 164 84 164 82 q 164 88 164 86 q 174 119 164 106 q 204 133 185 132 q 206 133 206 133 q 208 133 207 133 q 249 114 232 133 q 269 71 267 94 q 269 67 269 69 q 269 64 269 65 q 268 53 269 58 q 264 43 267 49 q 276 41 269 42 q 288 42 282 40 q 292 42 290 42 q 296 42 294 42 q 309 44 303 43 q 319 49 315 46 q 324 52 322 50 q 326 56 325 54 q 327 59 326 57 q 328 63 328 61 q 318 78 328 68 q 296 99 308 88 q 291 102 293 100 q 286 106 289 104 q 265 123 275 115 q 249 135 254 131 q 238 143 243 139 q 228 150 233 147 q 189 187 206 168 q 172 229 172 206 q 182 257 172 246 q 203 279 192 268 q 207 282 206 281 q 210 285 208 283 q 224 297 217 290 q 236 311 231 303 q 265 380 253 335 q 276 482 276 425 q 276 501 276 492 q 275 519 276 510 l 275 521 q 260 619 272 574 q 228 700 247 665 q 193 749 213 731 q 142 768 174 768 q 141 768 142 768 q 140 768 140 768 q 140 768 140 768 q 139 768 139 768 l 139 -176 l 43 -204 l 43 272 l -3 272 l -3 313 l 43 313 q 43 513 43 413 q 43 711 43 613 q 74 782 43 756 q 142 808 104 808 q 146 808 144 808 q 150 808 147 808 q 153 808 151 808 q 157 807 156 807 q 222 778 197 801 q 264 718 246 754 q 297 630 283 681 q 315 522 311 579 l 315 524 q 317 502 317 513 q 317 481 317 492 q 301 357 317 413 q 257 269 285 301 q 251 263 254 267 q 249 256 249 260 q 258 242 249 251 q 281 224 268 233 q 285 219 282 221 q 289 217 288 218 q 310 201 300 208 q 325 190 319 194 q 382 144 357 168 q 407 88 407 119 l 407 88 z "},"®":{"ha":694,"x_min":0,"x_max":0,"o":""},"©":{"ha":694,"x_min":0,"x_max":0,"o":""},"™":{"ha":694,"x_min":0,"x_max":0,"o":""},"´":{"ha":304,"x_min":64,"x_max":240,"o":"m 240 953 l 86 850 l 64 883 l 218 986 l 240 953 l 240 953 z "},"¨":{"ha":304,"x_min":63,"x_max":242,"o":"m 136 897 q 125 872 136 882 q 99 861 114 861 q 74 872 85 861 q 63 897 63 882 q 74 923 63 913 q 99 933 85 933 q 125 923 114 933 q 136 897 136 913 l 136 897 m 242 897 q 231 872 242 882 q 204 861 219 861 q 179 872 190 861 q 168 897 168 882 q 179 923 168 913 q 204 933 190 933 q 231 923 219 933 q 242 897 242 913 l 242 897 z "},"≠":{"ha":694,"x_min":0,"x_max":0,"o":""},"Æ":{"ha":1226,"x_min":0,"x_max":1207,"o":"m 1207 188 q 1110 47 1185 94 q 950 0 1036 0 q 849 17 899 0 q 758 69 799 35 q 702 141 721 101 q 679 221 683 181 q 679 229 679 225 q 679 238 679 233 q 707 344 679 293 q 788 431 735 396 l 524 431 q 508 387 515 408 q 493 343 500 365 q 490 335 492 339 q 488 329 489 332 q 451 227 469 278 q 408 126 432 176 q 322 29 379 64 q 203 -4 265 -6 q 131 8 167 -4 q 64 47 96 21 q 17 110 33 75 q 0 182 0 144 q 10 238 0 210 q 40 289 21 265 q 80 322 58 310 q 124 336 101 333 q 131 338 128 338 q 139 338 135 338 q 195 321 168 338 q 239 271 222 304 l 238 271 q 247 250 244 260 q 250 233 250 240 q 237 205 250 215 q 206 194 224 194 q 202 194 204 194 q 199 194 200 194 q 163 213 179 197 q 144 260 146 229 q 144 262 144 261 q 144 264 144 263 q 144 265 144 264 q 144 267 144 265 q 148 282 144 275 q 157 294 151 289 q 151 297 154 296 q 146 297 149 297 q 140 297 143 297 q 135 297 138 297 q 79 271 103 297 q 46 213 56 244 q 42 195 43 204 q 40 178 40 186 q 85 81 40 119 q 185 35 131 43 q 197 34 190 35 q 208 33 203 33 q 215 33 211 33 q 221 33 218 33 q 310 69 268 38 q 372 143 353 101 q 413 238 394 189 q 447 338 431 288 q 449 343 449 340 q 451 349 450 346 q 598 665 510 522 q 914 808 686 808 q 1047 781 988 808 q 1124 669 1106 754 q 1125 660 1125 664 q 1125 651 1125 656 q 1113 619 1125 629 q 1086 610 1101 608 q 1078 610 1082 610 q 1071 613 1075 611 q 1038 634 1053 618 q 1021 675 1022 650 q 1021 677 1021 676 q 1021 678 1021 678 q 1031 707 1021 694 q 1058 721 1040 719 q 1015 754 1042 742 q 958 768 988 767 q 955 768 957 768 q 950 768 953 768 q 945 768 947 768 q 940 768 943 768 q 897 758 918 767 q 861 731 875 749 q 838 692 846 713 q 826 650 829 671 q 825 640 825 644 q 825 629 825 635 q 865 524 825 571 q 969 478 904 478 q 987 478 978 478 q 1006 478 996 478 q 1046 478 1028 478 q 1064 478 1064 478 l 1064 438 q 1050 438 1057 438 q 1038 438 1043 438 q 935 432 983 439 q 844 379 888 425 q 804 315 818 353 q 788 240 790 278 q 788 233 788 236 q 788 228 788 231 q 828 98 788 156 q 950 40 869 40 q 1088 79 1028 40 q 1168 197 1149 118 l 1207 188 l 1207 188 m 822 471 q 752 539 776 497 q 728 625 728 581 q 728 633 728 629 q 729 640 728 636 q 748 701 732 671 q 793 754 764 731 q 632 647 688 728 q 539 471 576 565 l 822 471 l 822 471 z "},"Ø":{"ha":778,"x_min":7,"x_max":760,"o":"m 760 406 q 655 120 760 249 q 383 -8 550 -8 q 235 24 303 -8 q 118 113 167 57 l 65 60 l 36 88 l 93 143 q 29 267 51 200 q 7 406 7 335 q 111 692 7 563 q 383 821 215 821 q 533 788 465 821 q 649 700 600 756 l 701 753 l 729 724 l 674 668 q 737 544 714 613 q 760 406 760 476 l 760 406 m 611 606 l 174 168 q 179 160 176 164 q 185 153 182 157 q 189 145 186 149 q 194 138 192 142 q 283 58 235 85 q 383 31 332 31 q 484 58 435 31 q 572 138 533 85 q 633 264 613 194 q 653 406 653 333 q 642 509 653 458 q 611 606 632 560 l 611 606 m 592 643 q 583 659 588 651 q 572 674 578 667 q 488 753 536 724 q 383 782 439 782 q 279 753 328 782 q 194 674 231 724 q 133 548 154 618 q 113 404 113 478 q 123 301 113 353 q 154 206 133 250 l 592 643 l 592 643 z "},"∞":{"ha":278,"x_min":0,"x_max":0,"o":""},"±":{"ha":694,"x_min":0,"x_max":0,"o":""},"≤":{"ha":694,"x_min":0,"x_max":0,"o":""},"≥":{"ha":694,"x_min":0,"x_max":0,"o":""},"¥":{"ha":750,"x_min":35,"x_max":715,"o":"m 715 692 l 632 692 l 443 400 l 572 400 l 572 360 l 429 360 l 429 332 l 572 332 l 572 292 l 429 292 l 429 40 l 525 40 l 525 0 l 225 0 l 225 40 l 326 40 l 326 292 l 193 292 l 193 332 l 326 332 l 326 344 l 318 360 l 193 360 l 193 400 l 296 400 l 133 692 l 35 692 l 35 732 l 333 732 l 333 692 l 251 692 l 404 414 l 585 692 l 504 692 l 504 732 l 715 732 l 715 692 l 715 692 z "},"µ":{"ha":694,"x_min":0,"x_max":0,"o":""},"∂":{"ha":694,"x_min":0,"x_max":0,"o":""},"Σ":{"ha":694,"x_min":0,"x_max":0,"o":""},"∏":{"ha":278,"x_min":0,"x_max":0,"o":""},"π":{"ha":694,"x_min":0,"x_max":0,"o":""},"∫":{"ha":278,"x_min":0,"x_max":0,"o":""},"ª":{"ha":411,"x_min":19,"x_max":392,"o":"m 392 514 q 366 456 392 478 q 308 433 340 433 q 274 442 290 433 q 244 468 257 450 q 203 441 225 450 q 157 433 181 432 q 104 445 131 433 q 58 479 78 457 q 31 524 42 499 q 19 574 21 549 q 19 581 19 578 q 19 589 19 585 q 29 647 19 618 q 58 697 39 675 q 104 733 78 721 q 158 743 131 744 q 170 742 164 743 q 182 740 176 742 q 206 734 194 739 q 229 721 218 729 l 229 735 q 277 735 253 735 q 324 735 301 735 q 324 611 324 674 q 324 486 324 549 q 326 481 324 483 q 331 479 328 479 q 333 480 332 479 q 335 481 333 481 q 347 492 342 485 q 353 507 351 500 q 353 511 353 510 q 353 514 353 513 l 392 514 l 392 514 m 229 510 l 229 667 q 213 684 222 676 q 192 696 203 692 q 186 698 189 697 q 181 699 183 699 q 158 689 168 697 q 142 669 149 681 q 128 638 133 656 q 122 600 124 619 q 122 594 122 597 q 122 588 122 590 q 122 581 122 585 q 122 575 122 578 q 128 538 124 556 q 142 506 133 519 q 161 485 151 492 q 181 478 171 478 q 206 487 193 478 q 229 510 218 496 l 229 510 z "},"º":{"ha":306,"x_min":14,"x_max":292,"o":"m 292 588 q 253 481 292 529 q 153 432 215 432 q 52 481 90 432 q 14 588 14 529 q 14 590 14 589 q 14 592 14 590 q 53 697 15 649 q 153 744 92 744 q 252 697 214 744 q 292 592 290 649 q 292 590 292 590 q 292 588 292 589 l 292 588 m 222 506 q 240 531 233 518 q 249 558 246 544 q 251 571 250 564 q 251 585 251 578 q 229 659 250 626 q 183 694 208 692 q 181 694 182 694 q 179 694 181 694 q 173 694 176 694 q 167 692 169 693 q 153 684 160 689 q 142 669 147 679 q 128 637 133 657 q 124 588 124 617 q 124 569 124 579 q 126 547 125 558 q 144 503 131 524 q 183 483 157 483 q 205 490 194 483 q 222 506 215 497 l 222 506 z "},"Ω":{"ha":694,"x_min":0,"x_max":0,"o":""},"æ":{"ha":518,"x_min":1,"x_max":503,"o":"m 503 63 q 449 19 481 35 q 386 1 418 4 q 379 1 382 1 q 374 1 376 1 q 308 15 340 1 q 251 57 276 29 q 248 53 250 56 q 243 50 246 51 q 235 44 239 47 q 226 36 232 40 q 185 9 207 18 q 139 1 163 0 q 86 13 113 1 q 40 47 60 25 q 11 99 21 71 q 1 158 1 128 q 12 215 1 188 q 40 265 22 243 q 86 301 60 289 q 139 313 113 313 q 176 306 158 313 q 211 289 194 300 l 211 304 q 259 304 235 304 q 307 304 283 304 q 307 302 307 303 q 307 301 307 301 q 307 299 307 300 q 307 297 307 299 q 340 308 322 304 q 375 313 357 313 q 380 313 378 313 q 383 313 382 313 q 447 294 418 311 q 481 239 476 278 q 481 236 481 238 q 482 233 481 235 q 482 229 482 231 q 482 226 482 228 q 450 160 481 185 q 383 121 419 135 q 360 113 371 117 q 338 107 349 110 l 332 106 q 335 94 333 100 q 339 83 338 89 q 357 53 346 67 q 386 42 368 40 q 388 42 388 42 q 390 42 389 42 q 435 57 414 44 q 471 88 456 69 l 503 63 l 503 63 m 211 79 l 211 235 q 194 252 204 244 q 174 265 185 260 q 171 266 172 265 q 168 267 169 267 q 165 268 167 268 q 163 268 164 268 q 142 258 151 267 q 125 239 132 250 q 110 200 115 221 q 104 156 104 179 q 110 113 104 133 q 125 75 115 92 q 137 59 131 65 q 150 50 143 53 q 156 48 153 49 q 163 47 160 47 q 189 56 176 47 q 211 79 201 65 l 211 79 m 442 235 q 427 260 440 251 q 397 271 414 268 q 393 271 396 271 q 388 271 390 271 q 351 249 365 271 q 332 199 338 226 q 328 174 329 186 q 326 153 326 163 q 326 150 326 151 q 326 146 326 149 q 349 152 336 149 q 374 161 361 156 q 421 188 400 171 q 442 229 442 204 q 442 233 442 232 q 442 235 442 233 l 442 235 z "},"ø":{"ha":294,"x_min":3,"x_max":281,"o":"m 281 157 q 281 155 281 156 q 281 153 281 154 q 241 48 279 96 q 142 0 203 0 q 116 3 128 0 q 93 10 104 6 l 75 -26 l 32 -26 l 60 31 q 18 87 33 53 q 3 157 3 121 q 41 264 3 215 q 142 313 79 313 q 170 310 157 313 q 194 301 183 307 l 214 339 l 256 339 l 226 281 q 264 230 250 260 q 281 168 278 200 q 281 163 281 165 q 281 157 281 160 l 281 157 m 211 74 q 233 112 226 92 q 239 153 239 132 q 231 203 239 179 q 207 242 222 226 l 128 79 q 145 59 135 67 q 172 51 156 51 q 194 58 183 51 q 211 74 204 65 l 211 74 m 175 263 q 173 263 174 263 q 172 263 172 263 q 170 263 171 263 q 168 263 169 263 q 162 262 165 263 q 156 260 158 261 q 142 252 149 257 q 131 238 136 247 q 117 205 122 225 q 113 157 113 185 q 113 152 113 154 q 113 147 113 150 q 113 142 113 144 q 114 138 114 140 l 175 263 l 175 263 z "},"¿":{"ha":468,"x_min":6,"x_max":454,"o":"m 6 -82 q 7 -54 6 -68 q 11 -28 8 -40 q 44 58 19 17 q 113 118 69 100 q 134 128 122 122 q 158 140 146 135 q 217 185 190 158 q 243 247 243 211 q 243 262 243 251 q 243 285 243 272 q 243 306 243 296 q 243 321 243 315 l 283 321 q 283 306 283 315 q 283 285 283 296 q 283 262 283 272 q 283 247 283 251 q 256 151 283 194 q 188 76 228 107 q 131 7 149 47 q 114 -81 114 -33 q 124 -160 114 -124 q 156 -224 135 -197 q 194 -257 171 -243 q 244 -274 218 -271 q 252 -275 249 -275 q 260 -275 256 -275 q 265 -275 263 -275 q 269 -274 267 -275 q 274 -273 272 -274 q 279 -272 276 -272 q 369 -224 331 -261 q 413 -132 408 -186 q 406 -131 410 -132 q 400 -131 403 -131 q 366 -109 382 -125 q 346 -75 350 -93 q 346 -72 346 -74 q 346 -68 346 -69 q 349 -56 347 -62 q 356 -44 351 -50 q 366 -35 360 -39 q 379 -31 372 -32 q 383 -29 381 -29 q 388 -29 386 -29 q 393 -29 390 -29 q 397 -31 396 -29 q 434 -52 418 -35 q 451 -90 450 -69 q 453 -106 453 -99 q 454 -121 454 -114 q 385 -262 454 -207 q 231 -317 317 -317 q 70 -246 135 -317 q 6 -81 6 -175 l 6 -82 m 194 439 q 213 482 194 464 q 257 500 231 500 q 300 482 282 500 q 318 439 318 464 q 300 394 318 413 q 257 376 282 376 q 213 394 231 376 q 194 439 194 413 l 194 439 z "},"¡":{"ha":181,"x_min":7,"x_max":172,"o":"m 7 -304 l 36 -275 q 53 -285 43 -281 q 72 -290 63 -290 q 74 -290 74 -290 q 76 -290 75 -290 l 76 281 q 74 285 76 283 q 69 288 72 288 q 67 287 68 288 q 67 286 67 286 q 63 283 65 285 q 58 278 61 281 l 39 315 q 63 329 50 325 q 90 333 76 333 q 149 310 125 333 q 172 253 172 286 l 172 -235 q 144 -302 172 -274 q 76 -331 117 -331 q 39 -324 57 -331 q 7 -303 21 -317 l 7 -304 m 49 425 q 67 468 49 450 q 110 486 85 486 q 154 468 136 486 q 172 425 172 450 q 154 381 172 399 q 110 363 136 363 q 67 381 85 363 q 49 425 49 399 l 49 425 z "},"¬":{"ha":694,"x_min":0,"x_max":0,"o":""},"√":{"ha":694,"x_min":0,"x_max":0,"o":""},"ƒ":{"ha":694,"x_min":0,"x_max":0,"o":""},"≈":{"ha":694,"x_min":0,"x_max":0,"o":""},"∆":{"ha":694,"x_min":0,"x_max":0,"o":""},"«":{"ha":379,"x_min":10,"x_max":358,"o":"m 178 190 l 10 358 l 178 528 l 178 422 l 115 358 l 178 296 l 178 190 l 178 190 m 358 190 l 190 358 l 358 528 l 358 422 l 296 358 l 358 296 l 358 190 l 358 190 z "},"»":{"ha":360,"x_min":8,"x_max":357,"o":"m 8 190 l 8 296 l 71 358 l 8 422 l 8 528 l 176 358 l 8 190 l 8 190 m 189 190 l 189 296 l 251 358 l 189 422 l 189 528 l 357 358 l 189 190 l 189 190 z "},"…":{"ha":694,"x_min":0,"x_max":0,"o":""},"À":{"ha":788,"x_min":-214,"x_max":771,"o":"m 771 0 l 472 0 l 472 40 l 574 40 l 574 161 q 560 263 574 214 q 510 358 547 313 q 449 413 483 390 q 378 449 415 436 q 349 351 363 400 q 322 251 335 301 q 283 110 303 181 q 236 -29 263 39 q 283 -42 260 -37 q 331 -46 307 -46 l 331 -86 q 303 -83 317 -85 q 276 -81 289 -82 q 249 -74 263 -78 q 221 -67 235 -71 q 117 -225 179 -164 q -42 -286 54 -286 q -160 -246 -107 -286 q -214 -136 -214 -206 q -180 -51 -214 -86 q -100 -17 -146 -17 q -77 -19 -89 -17 q -54 -28 -65 -22 q -52 -28 -53 -28 q -50 -29 -51 -29 q -22 -55 -35 -37 q -6 -90 -8 -72 q -6 -93 -6 -92 q -6 -96 -6 -94 q -10 -114 -7 -106 q -24 -129 -14 -122 q -37 -135 -31 -133 q -49 -137 -43 -137 q -85 -120 -68 -137 q -110 -82 -103 -103 q -110 -74 -110 -78 q -111 -65 -111 -69 q -111 -63 -111 -64 q -111 -62 -111 -62 q -111 -60 -111 -61 q -111 -58 -111 -60 q -157 -85 -140 -64 q -174 -136 -174 -107 q -136 -214 -174 -186 q -53 -246 -99 -242 q -47 -246 -50 -246 q -42 -246 -44 -246 q 92 -191 39 -246 q 185 -50 146 -136 q 58 63 107 -11 q 8 225 8 138 q 8 238 8 232 q 10 250 8 244 q 104 434 21 365 q 294 503 188 503 q 308 503 301 503 q 324 501 315 503 q 338 500 331 501 q 351 497 344 499 q 364 533 357 515 q 379 571 371 551 q 481 734 417 660 q 650 808 544 808 l 757 808 l 757 768 l 675 768 l 675 40 l 771 40 l 771 0 l 771 0 m 339 458 q 316 462 328 461 q 293 463 304 463 q 130 404 201 463 q 50 247 58 346 q 50 242 50 244 q 50 236 50 239 q 49 229 49 232 q 49 224 49 226 q 92 85 50 149 q 200 -12 133 21 q 247 124 226 54 q 285 265 267 194 q 288 276 286 271 q 290 286 289 281 q 313 372 301 329 q 339 458 325 415 l 339 458 m 572 339 l 572 751 q 465 651 508 722 q 390 486 422 581 q 494 430 447 468 q 572 339 542 392 l 572 339 m 692 856 l 669 822 l 515 925 l 538 958 l 692 856 l 692 856 z "},"Ã":{"ha":788,"x_min":-214,"x_max":774,"o":"m 771 0 l 472 0 l 472 40 l 574 40 l 574 161 q 560 263 574 214 q 510 358 547 313 q 449 413 483 390 q 378 449 415 436 q 349 351 363 400 q 322 251 335 301 q 283 110 303 181 q 236 -29 263 39 q 283 -42 260 -37 q 331 -46 307 -46 l 331 -86 q 303 -83 317 -85 q 276 -81 289 -82 q 249 -74 263 -78 q 221 -67 235 -71 q 117 -225 179 -164 q -42 -286 54 -286 q -160 -246 -107 -286 q -214 -136 -214 -206 q -180 -51 -214 -86 q -100 -17 -146 -17 q -77 -19 -89 -17 q -54 -28 -65 -22 q -52 -28 -53 -28 q -50 -29 -51 -29 q -22 -55 -35 -37 q -6 -90 -8 -72 q -6 -93 -6 -92 q -6 -96 -6 -94 q -10 -114 -7 -106 q -24 -129 -14 -122 q -37 -135 -31 -133 q -49 -137 -43 -137 q -85 -120 -68 -137 q -110 -82 -103 -103 q -110 -74 -110 -78 q -111 -65 -111 -69 q -111 -63 -111 -64 q -111 -62 -111 -62 q -111 -60 -111 -61 q -111 -58 -111 -60 q -157 -85 -140 -64 q -174 -136 -174 -107 q -136 -214 -174 -186 q -53 -246 -99 -242 q -47 -246 -50 -246 q -42 -246 -44 -246 q 92 -191 39 -246 q 185 -50 146 -136 q 58 63 107 -11 q 8 225 8 138 q 8 238 8 232 q 10 250 8 244 q 104 434 21 365 q 294 503 188 503 q 308 503 301 503 q 324 501 315 503 q 338 500 331 501 q 351 497 344 499 q 364 533 357 515 q 379 571 371 551 q 481 734 417 660 q 650 808 544 808 l 757 808 l 757 768 l 675 768 l 675 40 l 771 40 l 771 0 l 771 0 m 339 458 q 316 462 328 461 q 293 463 304 463 q 130 404 201 463 q 50 247 58 346 q 50 242 50 244 q 50 236 50 239 q 49 229 49 232 q 49 224 49 226 q 92 85 50 149 q 200 -12 133 21 q 247 124 226 54 q 285 265 267 194 q 288 276 286 271 q 290 286 289 281 q 313 372 301 329 q 339 458 325 415 l 339 458 m 572 339 l 572 751 q 465 651 508 722 q 390 486 422 581 q 494 430 447 468 q 572 339 542 392 l 572 339 m 774 890 q 765 869 769 879 q 751 849 760 858 q 729 834 742 839 q 704 829 717 829 q 694 830 699 829 q 685 832 689 831 q 658 840 671 835 q 633 853 644 846 q 630 853 632 853 q 626 856 628 854 q 619 860 624 857 q 610 865 615 863 q 599 870 604 868 q 586 875 593 872 q 576 877 581 876 q 565 878 571 878 q 556 876 560 878 q 549 872 551 875 q 541 859 544 867 q 535 843 538 851 l 497 858 q 506 879 501 869 q 519 899 511 889 q 542 914 531 910 q 565 918 553 918 q 574 917 569 918 q 582 917 578 917 q 609 908 596 914 q 635 896 622 903 q 640 893 638 894 q 646 890 643 892 q 655 886 650 889 q 665 881 660 883 q 676 876 671 878 q 688 872 682 874 q 696 870 692 871 q 704 869 700 869 q 715 871 710 869 q 722 876 719 872 q 730 888 726 881 q 736 904 733 896 l 774 890 l 774 890 z "},"Õ":{"ha":782,"x_min":1,"x_max":754,"o":"m 754 406 q 649 120 754 249 q 378 -8 544 -8 q 106 120 211 -8 q 1 406 1 249 q 106 692 1 563 q 378 821 210 821 q 649 692 544 821 q 754 406 754 564 l 754 406 m 567 138 q 628 265 607 194 q 647 407 649 335 q 647 415 647 411 q 647 424 647 419 q 625 556 644 490 q 567 674 606 621 q 482 753 531 724 q 378 782 433 782 q 274 753 322 782 q 189 674 225 724 q 128 548 149 618 q 108 404 107 478 q 108 396 108 400 q 108 388 108 392 q 131 256 111 321 q 189 138 150 190 q 278 58 229 85 q 378 31 326 31 q 478 58 429 31 q 567 138 528 85 l 567 138 m 526 901 q 517 880 522 890 q 504 860 513 869 q 482 845 494 850 q 457 840 469 840 q 447 841 451 840 q 438 843 442 842 q 410 851 424 846 q 386 864 397 857 q 383 865 385 864 q 379 867 381 865 q 372 871 376 868 q 363 876 368 874 q 351 881 357 879 q 339 886 346 883 q 328 888 333 888 q 318 889 324 889 q 308 888 313 889 q 301 883 304 886 q 294 870 297 878 q 288 854 290 863 l 250 869 q 259 890 254 881 q 272 910 264 900 q 294 925 283 921 q 318 929 306 929 q 326 928 322 929 q 335 928 331 928 q 362 919 349 925 q 388 907 375 914 q 393 904 390 906 q 399 901 396 903 q 408 897 403 900 q 418 892 413 894 q 429 887 424 889 q 440 883 435 885 q 449 881 444 882 q 457 881 453 881 q 467 882 463 881 q 475 888 472 883 q 483 899 479 892 q 489 915 486 907 l 526 901 l 526 901 z "},"Œ":{"ha":1043,"x_min":6,"x_max":1038,"o":"m 1038 188 q 940 47 1015 94 q 779 0 865 0 q 771 0 775 0 q 763 0 767 0 q 674 19 718 3 q 596 64 631 35 q 497 10 551 29 q 382 -8 443 -8 q 110 120 215 -8 q 6 406 6 249 q 110 692 6 563 q 382 821 214 821 q 503 799 447 821 q 606 739 560 778 q 673 786 633 768 q 756 807 713 804 q 765 808 760 808 q 775 808 769 808 q 888 775 836 808 q 953 668 939 742 q 954 658 954 663 q 954 650 954 654 q 942 619 954 629 q 915 608 931 608 q 909 609 913 608 q 903 610 906 610 q 884 619 893 613 q 867 636 875 626 q 859 651 863 643 q 854 669 856 660 q 853 675 853 672 q 853 681 853 678 q 861 708 853 696 q 889 721 869 719 q 842 756 869 744 q 783 768 814 767 q 778 768 781 768 q 774 768 776 768 q 688 724 717 767 q 658 631 658 682 q 669 572 658 600 q 700 522 679 543 q 735 497 715 508 q 778 481 756 485 q 790 478 783 479 q 801 478 796 478 q 806 478 804 478 q 810 478 808 478 l 894 478 l 894 438 q 881 438 888 438 q 867 438 874 438 q 766 432 814 439 q 674 379 718 425 q 633 315 647 353 q 617 240 619 278 q 617 233 617 236 q 617 228 617 231 q 658 99 617 157 q 781 40 700 40 q 919 79 858 40 q 999 197 979 118 l 1038 188 l 1038 188 m 674 460 q 592 524 626 482 q 558 622 558 567 q 560 651 558 638 q 568 678 563 665 q 483 754 532 726 q 382 782 435 782 q 278 753 326 782 q 193 674 229 724 q 132 548 153 618 q 113 404 111 478 q 113 396 113 400 q 113 388 113 392 q 135 256 115 321 q 193 138 154 190 q 274 61 229 88 q 367 31 319 35 q 374 31 371 31 q 382 31 378 31 q 470 51 426 31 q 550 113 514 72 q 519 174 529 142 q 510 238 510 206 q 553 369 510 307 q 674 460 597 432 l 674 460 z "},"œ":{"ha":464,"x_min":4,"x_max":457,"o":"m 457 63 q 397 16 432 32 q 326 0 363 0 q 316 0 321 0 q 307 1 311 0 q 267 13 286 4 q 229 35 247 21 q 191 10 213 19 q 143 0 169 0 q 44 48 82 0 q 4 153 6 96 q 4 155 4 154 q 4 157 4 156 q 42 264 4 215 q 143 313 81 313 q 191 303 169 313 q 231 278 213 293 q 276 303 250 293 q 331 313 301 313 q 337 313 333 313 q 343 313 340 313 q 403 293 375 310 q 436 239 432 276 q 436 236 436 238 q 436 233 436 235 q 436 231 436 232 q 436 228 436 229 q 405 160 436 186 q 335 121 374 135 q 313 113 324 117 q 292 107 301 110 l 288 106 q 290 94 289 100 q 294 83 292 89 q 311 53 300 67 q 340 42 322 40 q 342 42 342 42 q 344 42 343 42 q 390 57 368 44 q 426 88 411 69 l 457 63 l 457 63 m 201 250 q 186 260 194 257 q 169 263 178 263 q 163 262 167 263 q 157 260 160 261 q 144 252 150 257 q 132 238 138 247 q 119 205 124 225 q 114 157 114 185 q 115 138 114 149 q 117 118 115 128 q 133 72 121 93 q 174 51 146 51 q 188 54 182 51 q 200 63 194 57 q 175 108 183 85 q 167 156 167 132 q 176 205 168 181 q 201 250 185 229 l 201 250 m 396 235 q 382 260 394 251 q 356 269 369 268 q 349 271 353 271 q 343 271 346 271 q 307 249 321 271 q 288 200 293 226 q 282 173 283 186 q 281 150 281 160 q 281 148 281 149 q 281 146 281 147 q 303 152 290 149 q 328 161 315 156 q 375 188 354 171 q 396 229 396 204 q 396 233 396 232 q 396 235 396 233 l 396 235 z "},"—":{"ha":658,"x_min":0,"x_max":661,"o":"m 661 315 l 0 315 l 0 407 l 661 407 l 661 315 l 661 315 z "},"“":{"ha":260,"x_min":4,"x_max":251,"o":"m 17 742 l 75 819 l 107 796 l 83 764 q 88 763 86 764 q 93 760 90 761 q 98 757 96 758 q 103 754 100 756 q 120 732 114 744 q 126 704 126 719 q 124 685 126 694 q 115 668 122 676 q 93 649 106 656 q 65 643 81 643 q 59 644 63 643 q 53 644 56 644 q 40 649 46 646 q 28 656 33 651 q 10 678 17 665 q 4 706 4 692 q 8 724 4 715 q 17 742 11 733 l 17 742 m 142 742 l 200 819 l 232 796 l 208 764 q 213 763 211 764 q 218 760 215 761 q 223 757 221 758 q 228 754 225 756 q 245 732 239 744 q 251 704 251 719 q 249 685 251 694 q 240 668 247 676 q 218 649 231 656 q 190 643 206 643 q 184 644 188 643 q 178 644 181 644 q 165 649 171 646 q 153 656 158 651 q 135 678 142 665 q 129 706 129 692 q 133 724 129 715 q 142 742 136 733 l 142 742 z "},"”":{"ha":260,"x_min":7,"x_max":254,"o":"m 117 722 l 58 644 l 26 668 l 50 700 q 45 701 47 700 q 40 704 43 703 q 35 707 38 706 q 31 710 33 708 q 13 733 19 719 q 7 760 7 746 q 10 778 7 769 q 18 796 13 788 q 41 815 28 808 q 68 821 54 821 q 74 821 71 821 q 81 819 78 821 q 94 815 88 818 q 106 808 100 813 q 123 786 117 799 q 129 758 129 774 q 126 740 129 749 q 117 722 124 731 l 117 722 m 242 722 l 183 644 l 151 668 l 175 700 q 170 701 172 700 q 165 704 168 703 q 160 707 163 706 q 156 710 158 708 q 138 733 144 719 q 132 760 132 746 q 135 778 132 769 q 143 796 138 788 q 166 815 153 808 q 193 821 179 821 q 199 821 196 821 q 206 819 203 821 q 219 815 213 818 q 231 808 225 813 q 248 786 242 799 q 254 758 254 774 q 251 740 254 749 q 242 722 249 731 l 242 722 z "},"‘":{"ha":136,"x_min":4,"x_max":126,"o":"m 17 742 l 75 819 l 107 796 l 83 764 q 88 763 86 764 q 93 760 90 761 q 98 757 96 758 q 103 754 100 756 q 120 732 114 744 q 126 704 126 719 q 124 685 126 694 q 115 668 122 676 q 93 649 106 656 q 65 643 81 643 q 59 644 63 643 q 53 644 56 644 q 40 649 46 646 q 28 656 33 651 q 10 678 17 665 q 4 706 4 692 q 8 724 4 715 q 17 742 11 733 l 17 742 z "},"’":{"ha":136,"x_min":7,"x_max":129,"o":"m 117 722 l 58 644 l 26 668 l 50 700 q 45 701 47 700 q 40 704 43 703 q 35 707 38 706 q 31 710 33 708 q 13 733 19 719 q 7 760 7 746 q 10 778 7 769 q 18 796 13 788 q 41 815 28 808 q 68 821 54 821 q 74 821 71 821 q 81 819 78 821 q 94 815 88 818 q 106 808 100 813 q 123 786 117 799 q 129 758 129 774 q 126 740 129 749 q 117 722 124 731 l 117 722 z "},"÷":{"ha":694,"x_min":0,"x_max":0,"o":""},"◊":{"ha":694,"x_min":0,"x_max":0,"o":""},"ÿ":{"ha":317,"x_min":3,"x_max":286,"o":"m 286 -214 q 258 -281 286 -253 q 189 -310 229 -310 q 153 -303 171 -310 q 121 -282 135 -296 l 150 -254 q 167 -265 157 -260 q 186 -269 176 -269 q 188 -269 188 -269 q 190 -269 189 -269 l 190 33 q 148 10 172 19 q 99 0 124 0 q 64 6 81 0 q 32 25 47 13 q 10 52 18 36 q 3 86 3 68 l 3 313 l 100 313 l 100 65 q 108 51 100 56 q 125 46 115 46 q 128 46 126 46 q 131 46 129 46 q 132 47 131 46 q 135 47 133 47 q 166 65 151 54 q 190 90 181 76 l 190 313 l 286 313 l 286 -214 l 286 -214 m 133 367 q 122 341 133 351 q 96 331 111 331 q 71 341 82 331 q 60 367 60 351 q 71 392 60 382 q 96 403 82 403 q 122 392 111 403 q 133 367 133 382 l 133 367 m 239 367 q 228 341 239 351 q 201 331 217 331 q 176 341 188 331 q 165 367 165 351 q 176 392 165 382 q 201 403 188 403 q 228 392 217 403 q 239 367 239 382 l 239 367 z "},"Ÿ":{"ha":732,"x_min":-4,"x_max":713,"o":"m 686 456 q 656 365 674 411 q 617 272 639 318 q 488 49 564 157 q 326 -136 413 -60 q 318 -144 322 -140 q 308 -150 314 -147 q 251 -190 282 -171 q 188 -217 219 -208 q 176 -219 182 -218 q 163 -221 169 -221 q 157 -221 160 -221 q 151 -221 154 -221 q 138 -220 144 -221 q 125 -219 132 -219 q 37 -185 76 -214 q -3 -104 -3 -157 q -3 -103 -3 -104 q -3 -103 -3 -103 q -3 -102 -3 -103 q -3 -101 -3 -101 q 17 -45 -1 -62 q 58 -25 35 -28 q 66 -24 63 -24 q 74 -24 69 -24 q 101 -27 89 -24 q 119 -36 114 -31 q 140 -59 131 -46 q 151 -87 149 -72 q 151 -92 151 -89 q 151 -96 151 -94 q 148 -114 151 -106 q 136 -129 144 -122 q 125 -137 131 -135 q 113 -137 119 -139 q 108 -137 110 -137 q 104 -136 106 -137 q 74 -120 88 -133 q 51 -92 60 -107 q 47 -85 49 -89 q 44 -76 46 -81 q 38 -89 40 -82 q 36 -104 36 -96 q 37 -112 36 -108 q 39 -121 38 -117 q 72 -163 46 -144 q 149 -181 99 -182 q 155 -181 151 -181 q 161 -181 158 -181 q 178 -178 169 -181 q 196 -172 188 -176 q 236 -153 217 -165 q 274 -126 256 -140 q 288 -116 281 -121 q 300 -106 294 -111 q 337 -72 319 -90 q 372 -35 354 -54 l 103 768 l -4 768 l -4 808 l 296 808 l 296 768 l 214 768 l 450 61 q 521 172 488 114 q 582 289 554 231 q 619 378 603 333 q 649 465 636 422 q 660 515 656 489 q 669 569 665 542 q 672 597 671 583 q 672 624 672 611 q 640 749 672 696 q 519 803 608 803 q 433 765 468 803 q 399 681 399 726 q 399 678 399 679 q 399 676 399 678 q 404 640 399 658 q 424 607 410 622 l 393 581 q 369 619 378 599 q 360 660 361 639 q 358 668 358 664 q 358 676 358 672 q 404 791 358 739 q 521 843 450 843 q 672 776 631 843 q 711 622 713 710 q 710 594 711 608 q 708 565 710 581 q 700 510 706 538 q 686 456 694 482 l 686 456 m 324 864 q 313 838 324 849 q 286 828 301 828 q 261 838 272 828 q 250 864 250 849 q 261 890 250 879 q 286 900 272 900 q 313 890 301 900 q 324 864 324 879 l 324 864 m 429 864 q 418 838 429 849 q 392 828 407 828 q 367 838 378 828 q 356 864 356 849 q 367 890 356 879 q 392 900 378 900 q 418 890 407 900 q 429 864 429 879 l 429 864 z "},"∕":{"ha":694,"x_min":0,"x_max":0,"o":""},"€":{"ha":704,"x_min":32,"x_max":672,"o":"m 672 600 l 656 561 q 558 624 613 601 q 443 646 503 646 q 280 569 342 646 q 201 401 218 493 q 201 399 201 400 q 201 397 201 399 l 586 397 l 569 357 l 199 357 q 197 349 197 353 q 197 343 197 346 q 197 340 197 342 q 197 336 197 338 q 198 333 197 335 q 199 329 199 331 l 558 329 l 540 289 l 201 289 q 201 287 201 288 q 201 285 201 286 q 280 117 218 193 q 443 40 342 40 q 531 53 488 40 q 611 89 574 65 l 632 56 q 553 17 594 31 q 468 1 511 4 q 455 0 461 0 q 443 0 449 0 q 313 25 376 0 q 199 100 249 50 q 134 189 158 140 q 101 289 110 238 l 32 289 l 49 329 l 97 329 q 97 337 97 333 q 97 343 97 340 q 97 349 97 346 q 97 357 97 353 l 35 357 l 51 397 l 101 397 q 134 497 110 449 q 199 585 158 546 q 314 661 250 636 q 444 686 378 686 q 565 665 506 686 q 672 600 624 643 l 672 600 z "},"‹":{"ha":211,"x_min":10,"x_max":178,"o":"m 178 190 l 10 358 l 178 528 l 178 422 l 115 358 l 178 296 l 178 190 l 178 190 z "},"›":{"ha":211,"x_min":8,"x_max":176,"o":"m 8 190 l 8 296 l 71 358 l 8 422 l 8 528 l 176 358 l 8 190 l 8 190 z "},"":{"ha":694,"x_min":0,"x_max":0,"o":""},"":{"ha":694,"x_min":0,"x_max":0,"o":""},"‡":{"ha":694,"x_min":0,"x_max":0,"o":""},"∙":{"ha":694,"x_min":0,"x_max":0,"o":""},"‚":{"ha":136,"x_min":7,"x_max":129,"o":"m 117 14 l 58 -64 l 26 -40 l 50 -8 q 45 -6 47 -7 q 40 -3 43 -4 q 35 -1 38 -1 q 31 1 33 0 q 13 24 19 11 q 7 51 7 38 q 10 70 7 61 q 18 88 13 79 q 41 106 28 100 q 68 113 54 113 q 74 113 71 113 q 81 111 78 113 q 94 107 88 110 q 106 100 100 104 q 123 78 117 90 q 129 50 129 65 q 126 31 129 40 q 117 14 124 22 l 117 14 z "},"„":{"ha":260,"x_min":7,"x_max":254,"o":"m 117 14 l 58 -64 l 26 -40 l 50 -8 q 45 -6 47 -7 q 40 -3 43 -4 q 35 -1 38 -1 q 31 1 33 0 q 13 24 19 11 q 7 51 7 38 q 10 70 7 61 q 18 88 13 79 q 41 106 28 100 q 68 113 54 113 q 74 113 71 113 q 81 111 78 113 q 94 107 88 110 q 106 100 100 104 q 123 78 117 90 q 129 50 129 65 q 126 31 129 40 q 117 14 124 22 l 117 14 m 242 14 l 183 -64 l 151 -40 l 175 -8 q 170 -6 172 -7 q 165 -3 168 -4 q 160 -1 163 -1 q 156 1 158 0 q 138 24 144 11 q 132 51 132 38 q 135 70 132 61 q 143 88 138 79 q 166 106 153 100 q 193 113 179 113 q 199 113 196 113 q 206 111 203 113 q 219 107 213 110 q 231 100 225 104 q 248 78 242 90 q 254 50 254 65 q 251 31 254 40 q 242 14 249 22 l 242 14 z "},"‰":{"ha":694,"x_min":0,"x_max":0,"o":""},"Â":{"ha":788,"x_min":-214,"x_max":771,"o":"m 771 0 l 472 0 l 472 40 l 574 40 l 574 161 q 560 263 574 214 q 510 358 547 313 q 449 413 483 390 q 378 449 415 436 q 349 351 363 400 q 322 251 335 301 q 283 110 303 181 q 236 -29 263 39 q 283 -42 260 -37 q 331 -46 307 -46 l 331 -86 q 303 -83 317 -85 q 276 -81 289 -82 q 249 -74 263 -78 q 221 -67 235 -71 q 117 -225 179 -164 q -42 -286 54 -286 q -160 -246 -107 -286 q -214 -136 -214 -206 q -180 -51 -214 -86 q -100 -17 -146 -17 q -77 -19 -89 -17 q -54 -28 -65 -22 q -52 -28 -53 -28 q -50 -29 -51 -29 q -22 -55 -35 -37 q -6 -90 -8 -72 q -6 -93 -6 -92 q -6 -96 -6 -94 q -10 -114 -7 -106 q -24 -129 -14 -122 q -37 -135 -31 -133 q -49 -137 -43 -137 q -85 -120 -68 -137 q -110 -82 -103 -103 q -110 -74 -110 -78 q -111 -65 -111 -69 q -111 -63 -111 -64 q -111 -62 -111 -62 q -111 -60 -111 -61 q -111 -58 -111 -60 q -157 -85 -140 -64 q -174 -136 -174 -107 q -136 -214 -174 -186 q -53 -246 -99 -242 q -47 -246 -50 -246 q -42 -246 -44 -246 q 92 -191 39 -246 q 185 -50 146 -136 q 58 63 107 -11 q 8 225 8 138 q 8 238 8 232 q 10 250 8 244 q 104 434 21 365 q 294 503 188 503 q 308 503 301 503 q 324 501 315 503 q 338 500 331 501 q 351 497 344 499 q 364 533 357 515 q 379 571 371 551 q 481 734 417 660 q 650 808 544 808 l 757 808 l 757 768 l 675 768 l 675 40 l 771 40 l 771 0 l 771 0 m 339 458 q 316 462 328 461 q 293 463 304 463 q 130 404 201 463 q 50 247 58 346 q 50 242 50 244 q 50 236 50 239 q 49 229 49 232 q 49 224 49 226 q 92 85 50 149 q 200 -12 133 21 q 247 124 226 54 q 285 265 267 194 q 288 276 286 271 q 290 286 289 281 q 313 372 301 329 q 339 458 325 415 l 339 458 m 572 339 l 572 751 q 465 651 508 722 q 390 486 422 581 q 494 430 447 468 q 572 339 542 392 l 572 339 m 744 854 l 719 824 l 613 915 l 507 824 l 481 854 l 613 968 l 744 854 l 744 854 z "},"Ê":{"ha":544,"x_min":6,"x_max":533,"o":"m 533 188 q 437 47 511 94 q 276 0 363 0 q 175 17 225 0 q 85 69 125 35 q 29 140 49 101 q 7 217 10 178 q 6 226 6 221 q 6 236 6 232 q 50 369 6 307 q 171 460 94 431 q 88 524 122 482 q 54 622 54 567 q 117 753 54 704 q 256 807 181 803 q 263 807 260 807 q 271 807 267 807 q 384 774 332 807 q 450 668 436 742 q 451 660 451 664 q 451 651 451 656 q 440 619 451 631 q 411 608 428 608 q 401 610 406 608 q 390 614 396 611 q 375 622 382 617 q 363 636 368 628 q 355 651 358 643 q 350 669 351 660 q 349 675 349 672 q 349 681 349 678 q 357 708 349 696 q 385 721 365 719 q 338 756 365 744 q 279 768 310 767 q 274 768 276 768 q 269 768 272 768 q 184 725 213 767 q 156 632 156 683 q 156 626 156 629 q 156 621 156 624 q 167 567 157 593 q 197 522 178 542 q 232 496 211 508 q 275 479 253 483 q 286 478 281 479 q 297 478 292 478 q 302 478 300 478 q 306 478 304 478 l 390 478 l 390 438 q 376 438 383 438 q 364 438 369 438 q 262 432 310 439 q 169 379 214 425 q 129 315 143 353 q 114 240 115 278 q 114 233 114 236 q 114 228 114 231 q 155 99 114 157 q 276 40 196 40 q 415 79 354 40 q 494 197 475 118 l 533 188 l 533 188 m 394 835 l 369 804 l 263 896 l 157 804 l 131 835 l 263 949 l 394 835 l 394 835 z "},"Á":{"ha":788,"x_min":-214,"x_max":776,"o":"m 771 0 l 472 0 l 472 40 l 574 40 l 574 161 q 560 263 574 214 q 510 358 547 313 q 449 413 483 390 q 378 449 415 436 q 349 351 363 400 q 322 251 335 301 q 283 110 303 181 q 236 -29 263 39 q 283 -42 260 -37 q 331 -46 307 -46 l 331 -86 q 303 -83 317 -85 q 276 -81 289 -82 q 249 -74 263 -78 q 221 -67 235 -71 q 117 -225 179 -164 q -42 -286 54 -286 q -160 -246 -107 -286 q -214 -136 -214 -206 q -180 -51 -214 -86 q -100 -17 -146 -17 q -77 -19 -89 -17 q -54 -28 -65 -22 q -52 -28 -53 -28 q -50 -29 -51 -29 q -22 -55 -35 -37 q -6 -90 -8 -72 q -6 -93 -6 -92 q -6 -96 -6 -94 q -10 -114 -7 -106 q -24 -129 -14 -122 q -37 -135 -31 -133 q -49 -137 -43 -137 q -85 -120 -68 -137 q -110 -82 -103 -103 q -110 -74 -110 -78 q -111 -65 -111 -69 q -111 -63 -111 -64 q -111 -62 -111 -62 q -111 -60 -111 -61 q -111 -58 -111 -60 q -157 -85 -140 -64 q -174 -136 -174 -107 q -136 -214 -174 -186 q -53 -246 -99 -242 q -47 -246 -50 -246 q -42 -246 -44 -246 q 92 -191 39 -246 q 185 -50 146 -136 q 58 63 107 -11 q 8 225 8 138 q 8 238 8 232 q 10 250 8 244 q 104 434 21 365 q 294 503 188 503 q 308 503 301 503 q 324 501 315 503 q 338 500 331 501 q 351 497 344 499 q 364 533 357 515 q 379 571 371 551 q 481 734 417 660 q 650 808 544 808 l 757 808 l 757 768 l 675 768 l 675 40 l 771 40 l 771 0 l 771 0 m 339 458 q 316 462 328 461 q 293 463 304 463 q 130 404 201 463 q 50 247 58 346 q 50 242 50 244 q 50 236 50 239 q 49 229 49 232 q 49 224 49 226 q 92 85 50 149 q 200 -12 133 21 q 247 124 226 54 q 285 265 267 194 q 288 276 286 271 q 290 286 289 281 q 313 372 301 329 q 339 458 325 415 l 339 458 m 572 339 l 572 751 q 465 651 508 722 q 390 486 422 581 q 494 430 447 468 q 572 339 542 392 l 572 339 m 776 922 l 622 819 l 600 853 l 754 956 l 776 922 l 776 922 z "},"Ë":{"ha":544,"x_min":6,"x_max":533,"o":"m 533 188 q 437 47 511 94 q 276 0 363 0 q 175 17 225 0 q 85 69 125 35 q 29 140 49 101 q 7 217 10 178 q 6 226 6 221 q 6 236 6 232 q 50 369 6 307 q 171 460 94 431 q 88 524 122 482 q 54 622 54 567 q 117 753 54 704 q 256 807 181 803 q 263 807 260 807 q 271 807 267 807 q 384 774 332 807 q 450 668 436 742 q 451 660 451 664 q 451 651 451 656 q 440 619 451 631 q 411 608 428 608 q 401 610 406 608 q 390 614 396 611 q 375 622 382 617 q 363 636 368 628 q 355 651 358 643 q 350 669 351 660 q 349 675 349 672 q 349 681 349 678 q 357 708 349 696 q 385 721 365 719 q 338 756 365 744 q 279 768 310 767 q 274 768 276 768 q 269 768 272 768 q 184 725 213 767 q 156 632 156 683 q 156 626 156 629 q 156 621 156 624 q 167 567 157 593 q 197 522 178 542 q 232 496 211 508 q 275 479 253 483 q 286 478 281 479 q 297 478 292 478 q 302 478 300 478 q 306 478 304 478 l 390 478 l 390 438 q 376 438 383 438 q 364 438 369 438 q 262 432 310 439 q 169 379 214 425 q 129 315 143 353 q 114 240 115 278 q 114 233 114 236 q 114 228 114 231 q 155 99 114 157 q 276 40 196 40 q 415 79 354 40 q 494 197 475 118 l 533 188 l 533 188 m 250 864 q 239 838 250 849 q 213 828 228 828 q 188 838 199 828 q 176 864 176 849 q 188 890 176 879 q 213 900 199 900 q 239 890 228 900 q 250 864 250 879 l 250 864 m 356 864 q 344 838 356 849 q 318 828 333 828 q 293 838 304 828 q 282 864 282 849 q 293 890 282 879 q 318 900 304 900 q 344 890 333 900 q 356 864 356 879 l 356 864 z "},"È":{"ha":544,"x_min":6,"x_max":533,"o":"m 533 188 q 437 47 511 94 q 276 0 363 0 q 175 17 225 0 q 85 69 125 35 q 29 140 49 101 q 7 217 10 178 q 6 226 6 221 q 6 236 6 232 q 50 369 6 307 q 171 460 94 431 q 88 524 122 482 q 54 622 54 567 q 117 753 54 704 q 256 807 181 803 q 263 807 260 807 q 271 807 267 807 q 384 774 332 807 q 450 668 436 742 q 451 660 451 664 q 451 651 451 656 q 440 619 451 631 q 411 608 428 608 q 401 610 406 608 q 390 614 396 611 q 375 622 382 617 q 363 636 368 628 q 355 651 358 643 q 350 669 351 660 q 349 675 349 672 q 349 681 349 678 q 357 708 349 696 q 385 721 365 719 q 338 756 365 744 q 279 768 310 767 q 274 768 276 768 q 269 768 272 768 q 184 725 213 767 q 156 632 156 683 q 156 626 156 629 q 156 621 156 624 q 167 567 157 593 q 197 522 178 542 q 232 496 211 508 q 275 479 253 483 q 286 478 281 479 q 297 478 292 478 q 302 478 300 478 q 306 478 304 478 l 390 478 l 390 438 q 376 438 383 438 q 364 438 369 438 q 262 432 310 439 q 169 379 214 425 q 129 315 143 353 q 114 240 115 278 q 114 233 114 236 q 114 228 114 231 q 155 99 114 157 q 276 40 196 40 q 415 79 354 40 q 494 197 475 118 l 533 188 l 533 188 m 317 856 l 294 822 l 140 925 l 163 958 l 317 856 l 317 856 z "},"Í":{"ha":329,"x_min":0,"x_max":300,"o":"m 300 0 l 0 0 l 0 40 l 100 40 l 100 768 l 0 768 l 0 808 l 300 808 l 300 768 l 204 768 l 204 40 l 300 40 l 300 0 l 300 0 m 290 928 l 136 825 l 114 858 l 268 961 l 290 928 l 290 928 z "},"Î":{"ha":329,"x_min":0,"x_max":300,"o":"m 300 0 l 0 0 l 0 40 l 100 40 l 100 768 l 0 768 l 0 808 l 300 808 l 300 768 l 204 768 l 204 40 l 300 40 l 300 0 l 300 0 m 283 849 l 258 818 l 151 910 l 46 818 l 19 849 l 151 963 l 283 849 l 283 849 z "},"Ï":{"ha":329,"x_min":0,"x_max":300,"o":"m 300 0 l 0 0 l 0 40 l 100 40 l 100 768 l 0 768 l 0 808 l 300 808 l 300 768 l 204 768 l 204 40 l 300 40 l 300 0 l 300 0 m 136 869 q 125 844 136 854 q 99 833 114 833 q 74 844 85 833 q 63 869 63 854 q 74 895 63 885 q 99 906 85 906 q 125 895 114 906 q 136 869 136 885 l 136 869 m 242 869 q 231 844 242 854 q 204 833 219 833 q 179 844 190 833 q 168 869 168 854 q 179 895 168 885 q 204 906 190 906 q 231 895 219 906 q 242 869 242 885 l 242 869 z "},"Ì":{"ha":329,"x_min":0,"x_max":300,"o":"m 300 0 l 0 0 l 0 40 l 100 40 l 100 768 l 0 768 l 0 808 l 300 808 l 300 768 l 204 768 l 204 40 l 300 40 l 300 0 l 300 0 m 208 856 l 186 822 l 32 925 l 54 958 l 208 856 l 208 856 z "},"Ó":{"ha":782,"x_min":1,"x_max":754,"o":"m 754 406 q 649 120 754 249 q 378 -8 544 -8 q 106 120 211 -8 q 1 406 1 249 q 106 692 1 563 q 378 821 210 821 q 649 692 544 821 q 754 406 754 564 l 754 406 m 567 138 q 628 265 607 194 q 647 407 649 335 q 647 415 647 411 q 647 424 647 419 q 625 556 644 490 q 567 674 606 621 q 482 753 531 724 q 378 782 433 782 q 274 753 322 782 q 189 674 225 724 q 128 548 149 618 q 108 404 107 478 q 108 396 108 400 q 108 388 108 392 q 131 256 111 321 q 189 138 150 190 q 278 58 229 85 q 378 31 326 31 q 478 58 429 31 q 567 138 528 85 l 567 138 m 510 939 l 356 836 l 333 869 l 488 972 l 510 939 l 510 939 z "},"Ô":{"ha":782,"x_min":1,"x_max":754,"o":"m 754 406 q 649 120 754 249 q 378 -8 544 -8 q 106 120 211 -8 q 1 406 1 249 q 106 692 1 563 q 378 821 210 821 q 649 692 544 821 q 754 406 754 564 l 754 406 m 567 138 q 628 265 607 194 q 647 407 649 335 q 647 415 647 411 q 647 424 647 419 q 625 556 644 490 q 567 674 606 621 q 482 753 531 724 q 378 782 433 782 q 274 753 322 782 q 189 674 225 724 q 128 548 149 618 q 108 404 107 478 q 108 396 108 400 q 108 388 108 392 q 131 256 111 321 q 189 138 150 190 q 278 58 229 85 q 378 31 326 31 q 478 58 429 31 q 567 138 528 85 l 567 138 m 508 860 l 483 829 l 376 921 l 271 829 l 244 860 l 376 974 l 508 860 l 508 860 z "},"":{"ha":278,"x_min":0,"x_max":0,"o":""},"Ò":{"ha":278,"x_min":0,"x_max":0,"o":""},"Ú":{"ha":943,"x_min":6,"x_max":922,"o":"m 922 768 l 824 768 q 824 495 824 632 q 824 222 824 358 q 749 63 824 125 q 585 -10 674 0 q 580 -11 582 -11 q 576 -11 578 -11 q 569 -12 572 -11 q 561 -12 565 -12 q 553 -12 557 -12 q 546 -12 550 -12 q 351 57 432 -12 q 269 246 269 126 q 83 347 161 265 q 6 535 6 429 q 12 588 6 561 q 29 640 18 614 q 141 765 65 721 q 301 808 217 808 q 424 808 363 808 q 546 808 485 808 l 546 768 l 372 768 l 372 285 q 522 360 463 297 q 581 507 581 422 q 581 522 581 514 q 579 536 581 529 l 619 547 q 620 539 619 543 q 621 531 621 535 q 622 521 622 525 q 622 513 622 517 q 550 335 621 411 q 372 244 479 260 q 381 152 372 193 q 433 74 389 111 q 495 40 461 51 q 564 29 529 29 q 567 29 565 29 q 572 29 569 29 q 717 85 651 33 q 783 222 783 138 q 783 495 783 358 q 783 768 783 632 l 701 768 l 701 808 l 922 808 l 922 768 l 922 768 m 269 288 l 269 767 q 110 694 175 758 q 46 540 46 629 q 51 494 46 518 q 68 444 57 469 q 151 342 96 383 q 269 288 206 301 l 269 288 m 735 928 l 581 825 l 558 858 l 713 961 l 735 928 l 735 928 z "},"Û":{"ha":943,"x_min":6,"x_max":922,"o":"m 922 768 l 824 768 q 824 495 824 632 q 824 222 824 358 q 749 63 824 125 q 585 -10 674 0 q 580 -11 582 -11 q 576 -11 578 -11 q 569 -12 572 -11 q 561 -12 565 -12 q 553 -12 557 -12 q 546 -12 550 -12 q 351 57 432 -12 q 269 246 269 126 q 83 347 161 265 q 6 535 6 429 q 12 588 6 561 q 29 640 18 614 q 141 765 65 721 q 301 808 217 808 q 424 808 363 808 q 546 808 485 808 l 546 768 l 372 768 l 372 285 q 522 360 463 297 q 581 507 581 422 q 581 522 581 514 q 579 536 581 529 l 619 547 q 620 539 619 543 q 621 531 621 535 q 622 521 622 525 q 622 513 622 517 q 550 335 621 411 q 372 244 479 260 q 381 152 372 193 q 433 74 389 111 q 495 40 461 51 q 564 29 529 29 q 567 29 565 29 q 572 29 569 29 q 717 85 651 33 q 783 222 783 138 q 783 495 783 358 q 783 768 783 632 l 701 768 l 701 808 l 922 808 l 922 768 l 922 768 m 269 288 l 269 767 q 110 694 175 758 q 46 540 46 629 q 51 494 46 518 q 68 444 57 469 q 151 342 96 383 q 269 288 206 301 l 269 288 m 708 849 l 683 818 l 576 910 l 471 818 l 444 849 l 576 963 l 708 849 l 708 849 z "},"Ù":{"ha":943,"x_min":6,"x_max":922,"o":"m 922 768 l 824 768 q 824 495 824 632 q 824 222 824 358 q 749 63 824 125 q 585 -10 674 0 q 580 -11 582 -11 q 576 -11 578 -11 q 569 -12 572 -11 q 561 -12 565 -12 q 553 -12 557 -12 q 546 -12 550 -12 q 351 57 432 -12 q 269 246 269 126 q 83 347 161 265 q 6 535 6 429 q 12 588 6 561 q 29 640 18 614 q 141 765 65 721 q 301 808 217 808 q 424 808 363 808 q 546 808 485 808 l 546 768 l 372 768 l 372 285 q 522 360 463 297 q 581 507 581 422 q 581 522 581 514 q 579 536 581 529 l 619 547 q 620 539 619 543 q 621 531 621 535 q 622 521 622 525 q 622 513 622 517 q 550 335 621 411 q 372 244 479 260 q 381 152 372 193 q 433 74 389 111 q 495 40 461 51 q 564 29 529 29 q 567 29 565 29 q 572 29 569 29 q 717 85 651 33 q 783 222 783 138 q 783 495 783 358 q 783 768 783 632 l 701 768 l 701 808 l 922 808 l 922 768 l 922 768 m 269 288 l 269 767 q 110 694 175 758 q 46 540 46 629 q 51 494 46 518 q 68 444 57 469 q 151 342 96 383 q 269 288 206 301 l 269 288 m 636 858 l 614 825 l 460 928 l 482 961 l 636 858 l 636 858 z "},"ı":{"ha":188,"x_min":8,"x_max":171,"o":"m 171 83 q 147 25 171 49 q 89 1 122 1 q 32 25 56 1 q 8 83 8 49 l 8 304 l 103 304 l 103 54 q 105 49 103 51 q 110 47 107 47 q 112 48 111 47 q 113 49 113 49 q 126 65 121 56 q 131 83 131 74 l 171 83 l 171 83 z "},"˜":{"ha":304,"x_min":19,"x_max":283,"o":"m 283 835 l 258 804 l 151 896 l 46 804 l 19 835 l 151 949 l 283 835 l 283 835 z "},"ˆ":{"ha":304,"x_min":14,"x_max":290,"o":"m 290 963 q 281 941 286 951 q 268 921 276 931 q 246 906 258 911 q 221 901 233 901 q 210 902 215 901 q 201 904 206 903 q 174 913 188 907 q 150 925 161 918 q 147 926 149 925 q 143 928 144 926 q 136 932 140 929 q 126 938 132 935 q 115 942 121 940 q 103 947 110 944 q 92 949 97 949 q 82 950 88 950 q 72 949 76 950 q 65 944 68 947 q 58 931 61 939 q 51 915 54 924 l 14 931 q 23 951 18 942 q 36 971 28 961 q 58 986 47 982 q 82 990 69 990 q 90 990 86 990 q 99 989 94 989 q 126 981 113 986 q 151 968 139 975 q 157 965 154 967 q 163 963 160 964 q 172 958 167 961 q 182 953 176 956 q 193 948 188 950 q 204 944 199 946 q 213 942 208 943 q 221 942 217 942 q 231 943 226 942 q 239 949 236 944 q 247 960 243 953 q 253 976 250 968 l 290 963 l 290 963 z "},"ˉ":{"ha":694,"x_min":0,"x_max":0,"o":""},"˘":{"ha":694,"x_min":0,"x_max":0,"o":""},"˙":{"ha":694,"x_min":0,"x_max":0,"o":""},"˚":{"ha":304,"x_min":97,"x_max":199,"o":"m 199 918 q 183 883 199 897 q 147 868 168 868 q 112 883 126 868 q 97 918 97 897 q 112 954 97 939 q 147 969 126 969 q 183 954 168 969 q 199 918 199 939 l 199 918 m 164 901 q 169 910 168 906 q 171 919 171 914 q 165 935 171 928 q 147 942 158 942 q 131 935 138 942 q 124 918 124 929 q 131 901 124 908 q 149 894 139 894 q 157 897 153 894 q 164 901 161 899 l 164 901 z "},"¸":{"ha":304,"x_min":42,"x_max":263,"o":"m 263 -79 q 226 -156 263 -126 q 146 -185 190 -186 q 108 -178 126 -185 q 74 -157 89 -172 q 53 -129 61 -146 q 42 -94 44 -112 q 42 -91 42 -93 q 42 -86 42 -89 q 46 -64 42 -75 q 60 -44 50 -53 q 79 -33 68 -37 q 101 -29 90 -29 q 119 -33 111 -29 q 135 -43 128 -36 q 145 -58 142 -50 q 149 -76 149 -67 q 149 -78 149 -78 q 149 -81 149 -79 q 134 -111 147 -97 q 100 -125 121 -125 q 99 -125 100 -125 q 99 -125 99 -125 q 98 -125 99 -125 q 97 -125 97 -125 q 116 -138 106 -133 q 138 -144 126 -143 q 143 -144 140 -144 q 149 -144 146 -144 q 199 -126 176 -144 q 222 -78 222 -108 q 194 -19 222 -42 q 129 4 165 4 l 129 43 q 222 9 182 43 q 263 -78 263 -25 l 263 -79 z "},"ʺ":{"ha":694,"x_min":0,"x_max":0,"o":""},"˛":{"ha":694,"x_min":0,"x_max":0,"o":""},"ˇ":{"ha":304,"x_min":19,"x_max":283,"o":"m 283 940 l 151 826 l 19 940 l 44 971 l 151 879 l 257 971 l 283 940 l 283 940 z "},"Ł":{"ha":694,"x_min":0,"x_max":0,"o":""},"ł":{"ha":694,"x_min":0,"x_max":0,"o":""},"Š":{"ha":547,"x_min":3,"x_max":515,"o":"m 515 185 q 438 38 515 86 q 269 -12 361 -10 q 262 -12 265 -12 q 254 -12 258 -12 q 183 -6 218 -12 q 118 14 147 0 q 38 85 69 36 q 3 189 6 135 q 3 195 3 192 q 3 201 3 199 q 11 254 3 229 q 38 301 19 279 q 81 336 57 325 q 132 347 106 347 q 194 326 165 346 q 229 264 222 306 q 231 256 231 260 q 231 249 231 251 q 210 191 231 215 q 160 168 189 167 q 149 169 154 168 q 140 171 144 169 q 130 176 135 174 q 119 182 125 178 q 97 206 104 193 q 90 231 90 218 q 103 260 90 249 q 135 272 115 272 q 154 269 144 272 q 174 258 164 265 q 183 251 179 256 q 190 243 188 247 q 190 244 190 243 q 190 246 190 244 q 190 248 190 247 q 190 249 190 249 q 172 292 190 278 q 131 307 154 307 q 125 307 128 307 q 119 306 122 307 q 92 297 106 304 q 68 276 79 289 q 48 240 54 260 q 42 200 42 221 q 42 194 42 197 q 42 188 42 190 q 72 106 46 144 q 135 50 97 68 q 190 31 161 38 q 250 25 219 25 q 363 58 313 25 q 413 167 413 90 q 364 294 413 240 q 257 399 315 349 q 253 402 256 400 q 249 406 251 404 q 136 517 186 458 q 86 660 86 576 q 146 790 86 746 q 279 835 206 835 q 287 835 283 835 q 294 835 290 835 q 360 820 328 832 q 419 786 393 808 l 419 813 l 460 813 l 460 600 l 419 600 l 419 726 q 371 772 401 756 q 307 790 340 788 q 299 792 303 792 q 292 792 296 792 q 215 766 249 792 q 181 685 181 740 q 210 596 181 632 q 275 528 239 560 q 278 524 276 526 q 282 521 279 522 q 298 506 290 514 q 314 490 306 499 q 340 463 326 476 q 368 436 354 450 q 371 434 369 435 q 374 432 372 433 q 471 324 426 381 q 515 185 515 268 l 515 185 m 433 957 l 301 843 l 169 957 l 194 988 l 301 896 l 407 988 l 433 957 l 433 957 z "},"š":{"ha":268,"x_min":3,"x_max":267,"o":"m 247 88 q 222 33 247 54 q 165 4 196 13 q 147 1 156 3 q 131 0 139 0 l 131 1 q 128 1 129 1 q 126 1 128 1 q 107 3 117 1 q 88 7 97 4 q 36 30 60 14 q 6 72 13 46 q 5 76 6 75 q 4 81 4 78 q 4 84 4 82 q 4 88 4 86 q 15 119 4 106 q 44 133 25 132 q 47 133 46 133 q 49 133 47 133 q 90 113 72 133 q 110 69 108 93 q 110 67 110 68 q 110 65 110 67 q 110 60 110 63 q 108 54 110 57 q 107 49 108 51 q 104 43 106 46 q 116 41 110 42 q 128 42 122 40 q 133 42 131 42 q 136 42 135 42 q 149 44 143 43 q 160 49 156 46 q 164 52 163 50 q 167 56 165 54 q 167 59 167 57 q 168 63 168 61 q 158 78 168 68 q 136 99 149 88 q 131 102 133 100 q 126 106 129 104 q 105 123 115 115 q 89 135 94 131 q 78 143 83 139 q 68 150 74 147 q 29 187 46 168 q 13 229 13 206 q 38 281 13 261 q 93 308 63 301 q 109 312 101 311 q 124 313 117 313 q 138 312 131 313 q 151 311 144 311 q 201 293 178 307 q 232 251 225 279 q 233 248 232 250 q 233 244 233 246 q 233 241 233 243 q 233 238 233 239 q 224 206 233 219 q 194 192 214 193 q 194 192 194 192 q 194 192 194 192 q 193 192 193 192 q 193 192 193 192 q 152 211 169 192 q 133 253 135 231 q 133 255 133 254 q 133 257 133 256 q 133 260 133 258 q 135 264 133 263 q 135 267 135 265 q 136 271 136 269 q 133 271 135 271 q 131 272 132 271 q 128 272 129 272 q 124 272 126 272 q 120 272 122 272 q 115 272 118 272 q 97 266 106 271 q 89 253 89 261 q 99 240 89 249 q 121 221 108 231 q 124 217 122 218 q 129 214 126 215 q 149 199 139 206 q 164 188 158 192 q 222 142 196 165 q 247 88 247 119 l 247 88 m 267 436 l 135 322 l 3 436 l 28 467 l 135 375 l 240 467 l 267 436 l 267 436 z "},"Ž":{"ha":694,"x_min":0,"x_max":0,"o":""},"ž":{"ha":694,"x_min":0,"x_max":0,"o":""},"¦":{"ha":694,"x_min":0,"x_max":0,"o":""},"Ð":{"ha":846,"x_min":1,"x_max":824,"o":"m 706 689 q 795 555 767 628 q 822 407 824 482 q 713 126 822 251 q 421 0 603 0 l 121 0 l 121 40 l 222 40 l 222 215 q 64 323 126 243 q 1 504 1 403 q 93 724 1 640 q 317 808 185 807 q 372 885 342 849 q 438 953 403 922 l 464 924 q 460 920 463 922 q 457 917 458 918 q 453 913 454 915 q 449 910 451 911 q 412 858 428 883 q 383 808 396 832 q 558 784 478 808 q 706 689 638 760 l 706 689 m 717 404 q 626 654 717 540 q 390 768 536 768 q 378 768 385 768 q 365 768 372 768 q 332 642 339 707 q 325 513 325 578 q 325 491 325 501 q 325 469 325 481 q 325 412 325 440 q 325 356 325 383 q 325 299 325 328 q 325 242 325 271 q 401 255 364 243 q 468 288 438 267 l 490 256 q 412 217 454 231 q 325 201 369 203 l 325 40 l 390 40 q 626 153 536 40 q 717 404 717 267 l 717 404 m 294 767 q 113 688 186 761 q 40 504 40 615 q 92 352 40 419 q 222 257 143 285 q 222 290 222 274 q 222 322 222 306 q 229 548 221 438 q 294 767 238 658 l 294 767 m 410 338 l 135 338 l 135 378 l 410 378 l 410 338 l 410 338 z "},"ð":{"ha":357,"x_min":4,"x_max":382,"o":"m 382 753 l 328 721 q 328 718 328 719 q 328 717 328 717 q 328 714 328 715 q 328 711 328 713 l 328 160 q 278 40 328 79 q 167 1 228 1 q 165 1 165 1 q 163 1 164 1 q 53 43 103 4 q 4 157 4 82 q 53 267 4 222 q 165 313 101 313 q 177 313 172 313 q 188 311 182 313 q 190 311 189 311 q 192 310 190 311 q 213 306 203 308 q 233 299 224 303 l 233 663 l 201 644 l 183 674 l 233 704 l 233 768 q 231 768 232 768 q 228 768 231 768 q 209 764 218 768 q 192 751 200 760 l 164 781 q 196 802 179 796 q 231 808 213 808 q 282 794 258 808 q 318 756 306 779 l 364 782 l 382 753 l 382 753 m 233 99 l 233 253 q 209 265 222 260 q 182 271 196 269 q 180 271 181 271 q 179 271 179 271 q 158 264 167 271 q 142 246 149 257 q 123 204 129 228 q 117 156 117 181 q 123 109 117 132 q 142 67 129 86 q 158 49 149 57 q 179 42 167 42 q 180 42 179 42 q 181 42 181 42 q 181 42 181 42 q 182 42 182 42 q 185 42 183 42 q 188 43 186 42 q 189 43 188 43 q 192 43 190 43 q 222 65 211 50 q 233 99 233 81 l 233 99 z "},"Ý":{"ha":278,"x_min":0,"x_max":0,"o":""},"ý":{"ha":278,"x_min":0,"x_max":0,"o":""},"Þ":{"ha":678,"x_min":1,"x_max":656,"o":"m 649 428 q 617 358 639 389 q 564 306 596 326 q 499 274 533 285 q 429 261 464 264 q 419 261 424 261 q 408 261 414 261 q 395 261 401 261 q 382 263 389 261 q 355 265 368 263 q 329 269 342 267 l 329 147 q 395 156 363 147 q 457 181 428 164 l 476 146 q 406 117 443 128 q 329 107 368 107 l 329 40 l 425 40 l 425 0 l 125 0 l 125 40 l 226 40 l 226 124 q 65 240 129 157 q 1 428 1 324 q 77 638 1 551 q 267 743 153 724 q 338 861 293 807 q 444 956 382 915 l 465 922 q 396 842 428 885 q 349 749 364 800 q 484 728 428 747 q 578 676 540 708 q 634 596 614 643 q 656 499 654 549 q 656 493 656 496 q 656 488 656 490 q 653 458 656 472 q 649 428 651 443 l 649 428 m 250 699 q 101 603 160 676 q 42 428 42 531 q 94 269 42 340 q 226 167 146 199 l 226 531 q 233 617 226 575 q 250 699 239 660 l 250 699 m 542 497 q 527 583 542 543 q 481 651 513 624 q 422 688 457 674 q 339 704 386 701 q 331 626 333 669 q 329 531 329 583 l 329 314 q 357 311 344 313 q 382 310 369 310 q 447 319 419 310 q 492 344 474 328 q 520 384 510 361 q 536 433 531 407 q 540 465 539 449 q 542 497 542 481 l 542 497 z "},"þ":{"ha":313,"x_min":0,"x_max":299,"o":"m 258 47 q 213 13 239 25 q 158 1 186 1 q 148 2 153 1 q 138 3 143 3 q 116 10 126 6 q 96 19 106 14 l 96 -311 l 0 -311 l 0 642 q 48 642 24 642 q 96 642 72 642 l 96 294 q 112 302 104 299 q 128 308 119 306 q 144 311 136 310 q 160 313 151 313 q 213 301 188 313 q 258 265 239 289 q 288 215 278 243 q 297 156 299 186 q 288 99 297 126 q 258 47 278 71 l 258 47 m 175 75 q 188 107 183 89 q 194 144 193 125 q 194 151 194 147 q 194 157 194 154 q 194 163 194 160 q 194 169 194 167 q 188 207 193 189 q 175 239 183 225 q 174 241 175 240 q 172 243 174 242 q 156 260 165 251 q 135 268 146 268 q 132 268 133 268 q 131 267 131 268 q 128 266 129 267 q 125 265 126 265 q 110 256 117 261 q 96 243 103 250 l 96 69 q 117 53 107 60 q 138 46 128 46 q 156 53 147 46 q 175 75 165 60 l 175 75 z "},"−":{"ha":694,"x_min":0,"x_max":0,"o":""},"×":{"ha":694,"x_min":0,"x_max":0,"o":""},"¹":{"ha":694,"x_min":0,"x_max":0,"o":""},"²":{"ha":694,"x_min":0,"x_max":0,"o":""},"³":{"ha":694,"x_min":0,"x_max":0,"o":""},"½":{"ha":694,"x_min":0,"x_max":0,"o":""},"¼":{"ha":694,"x_min":0,"x_max":0,"o":""},"¾":{"ha":694,"x_min":0,"x_max":0,"o":""},"₣":{"ha":694,"x_min":0,"x_max":0,"o":""},"Ğ":{"ha":278,"x_min":0,"x_max":0,"o":""},"ğ":{"ha":278,"x_min":0,"x_max":0,"o":""},"İ":{"ha":278,"x_min":0,"x_max":0,"o":""},"Ş":{"ha":278,"x_min":0,"x_max":0,"o":""},"ş":{"ha":278,"x_min":0,"x_max":0,"o":""},"Ć":{"ha":278,"x_min":0,"x_max":0,"o":""},"ć":{"ha":278,"x_min":0,"x_max":0,"o":""},"Č":{"ha":278,"x_min":0,"x_max":0,"o":""},"č":{"ha":278,"x_min":0,"x_max":0,"o":""},"đ":{"ha":278,"x_min":0,"x_max":0,"o":""},"→":{"ha":694,"x_min":0,"x_max":0,"o":""},"⌂":{"ha":278,"x_min":0,"x_max":0,"o":""},"–":{"ha":428,"x_min":6,"x_max":417,"o":"m 417 288 l 6 288 l 6 379 l 417 379 l 417 288 l 417 288 z "},"­":{"ha":694,"x_min":0,"x_max":0,"o":""},"■":{"ha":694,"x_min":0,"x_max":0,"o":""},"•":{"ha":282,"x_min":14,"x_max":269,"o":"m 269 422 q 232 333 269 369 q 142 296 194 296 q 51 333 89 296 q 14 422 14 369 q 51 513 14 475 q 142 550 89 550 q 232 513 194 550 q 269 422 269 475 l 269 422 z "},"¯":{"ha":278,"x_min":0,"x_max":0,"o":""},"°":{"ha":694,"x_min":0,"x_max":0,"o":""},"·":{"ha":278,"x_min":0,"x_max":0,"o":""},"‗":{"ha":694,"x_min":0,"x_max":0,"o":""},"‼":{"ha":694,"x_min":0,"x_max":0,"o":""},"ⁿ":{"ha":694,"x_min":0,"x_max":0,"o":""},"₧":{"ha":694,"x_min":0,"x_max":0,"o":""},"Γ":{"ha":694,"x_min":0,"x_max":0,"o":""},"Θ":{"ha":694,"x_min":0,"x_max":0,"o":""},"Φ":{"ha":694,"x_min":0,"x_max":0,"o":""},"α":{"ha":694,"x_min":0,"x_max":0,"o":""},"δ":{"ha":694,"x_min":0,"x_max":0,"o":""},"ε":{"ha":694,"x_min":0,"x_max":0,"o":""},"σ":{"ha":278,"x_min":0,"x_max":0,"o":""},"τ":{"ha":694,"x_min":0,"x_max":0,"o":""},"φ":{"ha":278,"x_min":0,"x_max":0,"o":""},"←":{"ha":278,"x_min":0,"x_max":0,"o":""},"↑":{"ha":278,"x_min":0,"x_max":0,"o":""},"↓":{"ha":278,"x_min":0,"x_max":0,"o":""},"↔":{"ha":278,"x_min":0,"x_max":0,"o":""},"↕":{"ha":278,"x_min":0,"x_max":0,"o":""},"↨":{"ha":278,"x_min":0,"x_max":0,"o":""},"∟":{"ha":278,"x_min":0,"x_max":0,"o":""},"∩":{"ha":278,"x_min":0,"x_max":0,"o":""},"≡":{"ha":278,"x_min":0,"x_max":0,"o":""},"⌐":{"ha":278,"x_min":0,"x_max":0,"o":""},"⌠":{"ha":278,"x_min":0,"x_max":0,"o":""},"⌡":{"ha":278,"x_min":0,"x_max":0,"o":""},"▬":{"ha":278,"x_min":0,"x_max":0,"o":""},"○":{"ha":278,"x_min":0,"x_max":0,"o":""},"▲":{"ha":278,"x_min":0,"x_max":0,"o":""},"►":{"ha":278,"x_min":0,"x_max":0,"o":""},"▼":{"ha":278,"x_min":0,"x_max":0,"o":""},"◄":{"ha":278,"x_min":0,"x_max":0,"o":""},"◘":{"ha":278,"x_min":0,"x_max":0,"o":""},"◙":{"ha":278,"x_min":0,"x_max":0,"o":""},"Ř":{"ha":278,"x_min":0,"x_max":0,"o":""},"▀":{"ha":278,"x_min":0,"x_max":0,"o":""},"▄":{"ha":278,"x_min":0,"x_max":0,"o":""},"█":{"ha":278,"x_min":0,"x_max":0,"o":""},"▌":{"ha":278,"x_min":0,"x_max":0,"o":""},"▐":{"ha":278,"x_min":0,"x_max":0,"o":""},"░":{"ha":278,"x_min":0,"x_max":0,"o":""},"▒":{"ha":278,"x_min":0,"x_max":0,"o":""},"▓":{"ha":278,"x_min":0,"x_max":0,"o":""},"☺":{"ha":278,"x_min":0,"x_max":0,"o":""},"☻":{"ha":278,"x_min":0,"x_max":0,"o":""},"☼":{"ha":278,"x_min":0,"x_max":0,"o":""},"♀":{"ha":278,"x_min":0,"x_max":0,"o":""},"♂":{"ha":278,"x_min":0,"x_max":0,"o":""},"♠":{"ha":278,"x_min":0,"x_max":0,"o":""},"♣":{"ha":278,"x_min":0,"x_max":0,"o":""},"♥":{"ha":278,"x_min":0,"x_max":0,"o":""},"♦":{"ha":278,"x_min":0,"x_max":0,"o":""},"♪":{"ha":278,"x_min":0,"x_max":0,"o":""},"♫":{"ha":278,"x_min":0,"x_max":0,"o":""},"Ă":{"ha":278,"x_min":0,"x_max":0,"o":""},"ă":{"ha":278,"x_min":0,"x_max":0,"o":""},"Ą":{"ha":278,"x_min":0,"x_max":0,"o":""},"ą":{"ha":278,"x_min":0,"x_max":0,"o":""},"Ď":{"ha":278,"x_min":0,"x_max":0,"o":""},"ď":{"ha":278,"x_min":0,"x_max":0,"o":""},"Đ":{"ha":278,"x_min":0,"x_max":0,"o":""},"Ę":{"ha":278,"x_min":0,"x_max":0,"o":""},"ę":{"ha":278,"x_min":0,"x_max":0,"o":""},"Ě":{"ha":278,"x_min":0,"x_max":0,"o":""},"ě":{"ha":278,"x_min":0,"x_max":0,"o":""},"Ĺ":{"ha":278,"x_min":0,"x_max":0,"o":""},"ĺ":{"ha":278,"x_min":0,"x_max":0,"o":""},"Ľ":{"ha":278,"x_min":0,"x_max":0,"o":""},"ľ":{"ha":278,"x_min":0,"x_max":0,"o":""},"Ń":{"ha":278,"x_min":0,"x_max":0,"o":""},"ń":{"ha":278,"x_min":0,"x_max":0,"o":""},"Ň":{"ha":278,"x_min":0,"x_max":0,"o":""},"ň":{"ha":278,"x_min":0,"x_max":0,"o":""},"Ő":{"ha":278,"x_min":0,"x_max":0,"o":""},"ő":{"ha":278,"x_min":0,"x_max":0,"o":""},"Ŕ":{"ha":278,"x_min":0,"x_max":0,"o":""},"ŕ":{"ha":278,"x_min":0,"x_max":0,"o":""},"ř":{"ha":278,"x_min":0,"x_max":0,"o":""},"Ś":{"ha":278,"x_min":0,"x_max":0,"o":""},"ś":{"ha":278,"x_min":0,"x_max":0,"o":""},"Ţ":{"ha":278,"x_min":0,"x_max":0,"o":""},"ţ":{"ha":278,"x_min":0,"x_max":0,"o":""},"Ť":{"ha":278,"x_min":0,"x_max":0,"o":""},"ť":{"ha":278,"x_min":0,"x_max":0,"o":""},"Ů":{"ha":278,"x_min":0,"x_max":0,"o":""},"ů":{"ha":278,"x_min":0,"x_max":0,"o":""},"ű":{"ha":278,"x_min":0,"x_max":0,"o":""},"Ű":{"ha":278,"x_min":0,"x_max":0,"o":""},"Ź":{"ha":278,"x_min":0,"x_max":0,"o":""},"ź":{"ha":278,"x_min":0,"x_max":0,"o":""},"Ż":{"ha":278,"x_min":0,"x_max":0,"o":""},"ż":{"ha":278,"x_min":0,"x_max":0,"o":""},"Ŀ":{"ha":278,"x_min":0,"x_max":0,"o":""},"ŀ":{"ha":278,"x_min":0,"x_max":0,"o":""},"─":{"ha":278,"x_min":0,"x_max":0,"o":""},"│":{"ha":278,"x_min":0,"x_max":0,"o":""},"┌":{"ha":278,"x_min":0,"x_max":0,"o":""},"┐":{"ha":278,"x_min":0,"x_max":0,"o":""},"└":{"ha":278,"x_min":0,"x_max":0,"o":""},"┘":{"ha":278,"x_min":0,"x_max":0,"o":""},"├":{"ha":278,"x_min":0,"x_max":0,"o":""},"┤":{"ha":278,"x_min":0,"x_max":0,"o":""},"┬":{"ha":278,"x_min":0,"x_max":0,"o":""},"┴":{"ha":278,"x_min":0,"x_max":0,"o":""},"┼":{"ha":278,"x_min":0,"x_max":0,"o":""},"═":{"ha":278,"x_min":0,"x_max":0,"o":""},"║":{"ha":278,"x_min":0,"x_max":0,"o":""},"╒":{"ha":278,"x_min":0,"x_max":0,"o":""},"╓":{"ha":278,"x_min":0,"x_max":0,"o":""},"╔":{"ha":278,"x_min":0,"x_max":0,"o":""},"╕":{"ha":278,"x_min":0,"x_max":0,"o":""},"╖":{"ha":278,"x_min":0,"x_max":0,"o":""},"╗":{"ha":278,"x_min":0,"x_max":0,"o":""},"╘":{"ha":278,"x_min":0,"x_max":0,"o":""},"╙":{"ha":278,"x_min":0,"x_max":0,"o":""},"╚":{"ha":278,"x_min":0,"x_max":0,"o":""},"╛":{"ha":278,"x_min":0,"x_max":0,"o":""},"╜":{"ha":278,"x_min":0,"x_max":0,"o":""},"╝":{"ha":278,"x_min":0,"x_max":0,"o":""},"╞":{"ha":278,"x_min":0,"x_max":0,"o":""},"╟":{"ha":278,"x_min":0,"x_max":0,"o":""},"╠":{"ha":278,"x_min":0,"x_max":0,"o":""},"╡":{"ha":278,"x_min":0,"x_max":0,"o":""},"╢":{"ha":278,"x_min":0,"x_max":0,"o":""},"╣":{"ha":278,"x_min":0,"x_max":0,"o":""},"╤":{"ha":278,"x_min":0,"x_max":0,"o":""},"╥":{"ha":278,"x_min":0,"x_max":0,"o":""},"╦":{"ha":278,"x_min":0,"x_max":0,"o":""},"╧":{"ha":278,"x_min":0,"x_max":0,"o":""},"╨":{"ha":278,"x_min":0,"x_max":0,"o":""},"╩":{"ha":278,"x_min":0,"x_max":0,"o":""},"╪":{"ha":278,"x_min":0,"x_max":0,"o":""},"╫":{"ha":278,"x_min":0,"x_max":0,"o":""},"╬":{"ha":278,"x_min":0,"x_max":0,"o":""}}}
